{
date = "2015-10-15 14:20:12 +0000";
designer = "Mirco Monsees";
designerURL = mircomonsees.com;
familyName = "Project Gin";
featurePrefixes = (
{
automatic = 1;
code = "languagesystem DFLT dflt;\012languagesystem latn dflt;\012";
name = Languagesystems;
}
);
features = (
{
automatic = 1;
code = "feature ccmp;\012feature case;\012";
name = aalt;
},
{
automatic = 1;
code = "lookup latn_decomb {\012\011script latn;\012@CombiningTopAccents = [acutecomb circumflexcomb dieresiscomb dotaccentcomb gravecomb ringcomb tildecomb];\012@CombiningNonTopAccents = [cedillacomb slashlongcomb strokeshortcomb];\012\011sub [i j]' @CombiningTopAccents by [idotless jdotless];\012\011sub [i j]' @CombiningNonTopAccents @CombiningTopAccents by [idotless jdotless];\012} latn_decomb;\012";
name = ccmp;
},
{
automatic = 1;
code = "sub acutecomb by acutecomb.case;\012sub slashlongcomb by slashlongcomb.case;\012";
name = case;
},
{
automatic = 1;
code = "sub T h by T_h.dlig;\012sub c t by c_t.dlig;\012sub l l by l_l.dlig;\012sub s p by s_p.dlig;\012sub s t by s_t.dlig;\012";
name = dlig;
},
{
automatic = 1;
code = "sub f b by f_b.liga;\012sub f f by f_f.liga;\012sub f f b by f_f_b.liga;\012sub f f h by f_f_h.liga;\012sub f f i by f_f_i.liga;\012sub f f j by f_f_j.liga;\012sub f f k by f_f_k.liga;\012sub f f l by f_f_l.liga;\012sub f f t by f_f_t.liga;\012sub f h by f_h.liga;\012sub f j by f_j.liga;\012sub f k by f_k.liga;\012sub f t by f_t.liga;\012sub f i by fi.liga;\012sub f l by fl.liga;\012";
name = liga;
}
);
fontMaster = (
{
alignmentZones = (
"{700, -50}",
"{510, 1}",
"{480, 5}",
"{480, -45}",
"{350, 1}",
"{0, 50}",
"{0, -5}"
);
ascender = 740;
capHeight = 700;
descender = -250;
id = "71FD7A9F-05F5-4D76-8D4F-547475A05E4C";
italicAngle = 6;
userData = {
GSCornerRadius = 19;
angle = 0;
height = 56;
width = 76;
};
weight = Bold;
weightValue = 115;
widthValue = 480;
xHeight = 480;
}
);
glyphs = (
{
glyphname = A;
lastChange = "2015-11-23 19:54:59 +0000";
layers = (
{
anchors = (
{
name = bottom;
position = "{330, 0}";
},
{
name = ogonek;
position = "{614, 10}";
},
{
name = top;
position = "{365, 647}";
}
);
background = {
paths = (
{
closed = 1;
nodes = (
"275 337 LINE",
"312 243 OFFCURVE",
"361 130 OFFCURVE",
"383 82 CURVE SMOOTH",
"388 71 OFFCURVE",
"400 59 OFFCURVE",
"423 49 CURVE",
"343 49 LINE",
"338 0 LINE",
"605 0 LINE",
"610 47 LINE",
"562 55 LINE",
"494 158 OFFCURVE",
"416 314 OFFCURVE",
"374 399 CURVE"
);
},
{
closed = 1;
nodes = (
"453 562 OFFCURVE",
"370 442 OFFCURVE",
"328 392 CURVE",
"363 316 LINE",
"431 409 OFFCURVE",
"557 586 OFFCURVE",
"586 615 CURVE SMOOTH",
"610 639 OFFCURVE",
"634 650 OFFCURVE",
"661 650 CURVE",
"666 700 LINE",
"432 700 LINE",
"427 653 LINE",
"481 645 LINE"
);
},
{
closed = 1;
nodes = (
"210 113 OFFCURVE",
"299 253 OFFCURVE",
"330 303 CURVE",
"281 368 LINE",
"221 275 OFFCURVE",
"110 112 OFFCURVE",
"79 85 CURVE SMOOTH",
"51 61 OFFCURVE",
"27 50 OFFCURVE",
"0 50 CURVE",
"-5 0 LINE",
"218 0 LINE",
"223 47 LINE",
"176 55 LINE"
);
},
{
closed = 1;
nodes = (
"373 390 LINE",
"332 474 OFFCURVE",
"306 522 OFFCURVE",
"286 574 CURVE SMOOTH",
"272 610 OFFCURVE",
"258 651 OFFCURVE",
"317 651 CURVE",
"322 700 LINE",
"65 700 LINE",
"60 653 LINE",
"107 643 LINE",
"180 505 OFFCURVE",
"239 390 OFFCURVE",
"270 323 CURVE"
);
}
);
};
layerId = "71FD7A9F-05F5-4D76-8D4F-547475A05E4C";
name = "Bold Italic";
paths = (
{
closed = 1;
nodes = (
"317 695 LINE",
"320 683 OFFCURVE",
"330 649 OFFCURVE",
"336 620 CURVE",
"371 458 OFFCURVE",
"462 97 OFFCURVE",
"465 88 CURVE SMOOTH",
"470 71 OFFCURVE",
"490 57 OFFCURVE",
"513 50 CURVE",
"422 50 LINE",
"418 0 LINE",
"671 0 LINE",
"680 47 LINE",
"629 54 LINE",
"593 116 OFFCURVE",
"459 621 OFFCURVE",
"440 711 CURVE"
);
},
{
closed = 1;
nodes = (
"164 206 LINE",
"479 205 LINE",
"480 278 LINE",
"175 280 LINE"
);
},
{
closed = 1;
nodes = (
"191 122 OFFCURVE",
"302 398 OFFCURVE",
"360 558 CURVE",
"396 652 OFFCURVE",
"394 640 OFFCURVE",
"436 708 CURVE",
"317 695 LINE",
"264 525 OFFCURVE",
"141 199 OFFCURVE",
"96 119 CURVE SMOOTH",
"61 57 OFFCURVE",
"34 50 OFFCURVE",
"5 50 CURVE",
"0 0 LINE",
"227 1 LINE",
"235 47 LINE",
"185 59 LINE"
);
}
);
width = 710;
}
);
leftKerningGroup = A;
rightKerningGroup = A;
unicode = 0041;
},
{
glyphname = AE;
lastChange = "2015-11-29 10:54:38 +0000";
layers = (
{
anchors = (
{
name = bottom;
position = "{183, 0}";
},
{
name = ogonek;
position = "{467, 10}";
},
{
name = top;
position = "{520, 700}";
}
);
layerId = "71FD7A9F-05F5-4D76-8D4F-547475A05E4C";
name = "Bold Italic";
paths = (
{
closed = 1;
nodes = (
"234 206 LINE",
"549 205 LINE",
"550 278 LINE",
"245 280 LINE"
);
},
{
closed = 1;
nodes = (
"199 82 OFFCURVE",
"423 489 OFFCURVE",
"583 696 CURVE",
"466 698 LINE",
"373 536 OFFCURVE",
"157 199 OFFCURVE",
"103 119 CURVE SMOOTH",
"63 60 OFFCURVE",
"34 50 OFFCURVE",
"5 50 CURVE",
"0 0 LINE",
"239 1 LINE",
"247 47 LINE",
"197 59 LINE"
);
},
{
closed = 1;
nodes = (
"467 700 LINE",
"478 642 LINE",
"483 602 OFFCURVE",
"479 484 OFFCURVE",
"475 427 CURVE SMOOTH",
"463 249 OFFCURVE",
"436 101 OFFCURVE",
"438 88 CURVE SMOOTH",
"442 74 OFFCURVE",
"480 56 OFFCURVE",
"499 50 CURVE",
"379 51 LINE",
"375 0 LINE",
"865 -1 LINE",
"894 164 LINE",
"845 173 LINE",
"809 103 LINE",
"769 90 OFFCURVE",
"670 85 OFFCURVE",
"596 86 CURVE",
"567 119 OFFCURVE",
"577 228 OFFCURVE",
"587 331 CURVE",
"709 325 LINE",
"719 279 LINE",
"759 282 LINE",
"765 325 OFFCURVE",
"773 410 OFFCURVE",
"758 410 CURVE SMOOTH",
"750 410 OFFCURVE",
"587 404 OFFCURVE",
"593 404 CURVE",
"595 455 OFFCURVE",
"612 569 OFFCURVE",
"624 613 CURVE",
"715 612 OFFCURVE",
"796 610 OFFCURVE",
"837 602 CURVE",
"866 540 LINE",
"915 550 LINE",
"898 700 LINE"
);
}
);
width = 917;
}
);
leftKerningGroup = A;
leftMetricsKey = A;
rightKerningGroup = E;
rightMetricsKey = E;
unicode = 00C6;
},
{
glyphname = B;
lastChange = "2015-11-23 16:21:52 +0000";
layers = (
{
background = {
paths = (
{
closed = 1;
nodes = (
"409 304 LINE",
"496 334 OFFCURVE",
"576 430 OFFCURVE",
"557 545 CURVE SMOOTH",
"522 752 OFFCURVE",
"196 703 OFFCURVE",
"72 699 CURVE",
"65 653 LINE",
"112 644 LINE",
"124 604 OFFCURVE",
"117 466 OFFCURVE",
"102 326 CURVE SMOOTH",
"84 158 OFFCURVE",
"71 96 OFFCURVE",
"76 85 CURVE SMOOTH",
"79 76 OFFCURVE",
"111 50 OFFCURVE",
"135 50 CURVE",
"17 51 LINE",
"12 0 LINE",
"292 0 LINE",
"299 47 LINE",
"245 55 LINE",
"224 108 OFFCURVE",
"218 157 OFFCURVE",
"229 285 CURVE",
"248 283 OFFCURVE",
"306 283 OFFCURVE",
"329 284 CURVE"
);
},
{
closed = 1;
nodes = (
"267 626 CURVE",
"437 635 OFFCURVE",
"461 404 OFFCURVE",
"356 363 CURVE",
"336 363 OFFCURVE",
"284 367 OFFCURVE",
"234 385 CURVE",
"242 480 OFFCURVE",
"250 550 OFFCURVE"
);
},
{
closed = 1;
nodes = (
"335 291 LINE",
"340 273 OFFCURVE",
"353 60 OFFCURVE",
"391 32 CURVE SMOOTH",
"400 25 OFFCURVE",
"472 -1 OFFCURVE",
"525 -1 CURVE",
"558 7 OFFCURVE",
"585 25 OFFCURVE",
"590 28 CURVE",
"585 74 LINE",
"565 66 OFFCURVE",
"551 65 OFFCURVE",
"540 63 CURVE",
"487 119 OFFCURVE",
"456 229 OFFCURVE",
"430 327 CURVE"
);
}
);
};
layerId = "71FD7A9F-05F5-4D76-8D4F-547475A05E4C";
name = "Bold Italic";
paths = (
{
closed = 1;
nodes = (
"267 626 CURVE",
"409 635 OFFCURVE",
"465 453 OFFCURVE",
"364 382 CURVE",
"322 378 OFFCURVE",
"270 383 OFFCURVE",
"235 395 CURVE",
"246 513 OFFCURVE",
"255 569 OFFCURVE"
);
},
{
closed = 1;
nodes = (
"334 318 LINE",
"378 311 OFFCURVE",
"401 283 OFFCURVE",
"412 232 CURVE SMOOTH",
"436 121 OFFCURVE",
"369 70 OFFCURVE",
"295 70 CURVE",
"241 85 LINE",
"223 111 OFFCURVE",
"218 175 OFFCURVE",
"231 303 CURVE",
"271 296 OFFCURVE",
"334 304 OFFCURVE",
"370 316 CURVE",
"508 373 OFFCURVE",
"566 466 OFFCURVE",
"542 570 CURVE SMOOTH",
"515 691 OFFCURVE",
"369 707 OFFCURVE",
"211 704 CURVE SMOOTH",
"164 703 OFFCURVE",
"93 702 OFFCURVE",
"73 700 CURVE",
"65 650 LINE",
"115 639 LINE",
"126 596 OFFCURVE",
"118 494 OFFCURVE",
"101 326 CURVE SMOOTH",
"84 137 OFFCURVE",
"69 96 OFFCURVE",
"74 85 CURVE SMOOTH",
"77 76 OFFCURVE",
"105 59 OFFCURVE",
"134 50 CURVE",
"21 50 LINE",
"17 0 LINE",
"281 -1 LINE SMOOTH",
"408 -1 OFFCURVE",
"572 71 OFFCURVE",
"543 257 CURVE SMOOTH",
"534 310 OFFCURVE",
"492 368 OFFCURVE",
"421 366 CURVE"
);
}
);
width = 575;
}
);
leftKerningGroup = I;
leftMetricsKey = I;
rightKerningGroup = B;
rightMetricsKey = O;
unicode = 0042;
},
{
glyphname = C;
lastChange = "2015-11-23 16:02:29 +0000";
layers = (
{
background = {
paths = (
{
closed = 1;
nodes = (
"163 718 OFFCURVE",
"12 492 OFFCURVE",
"46 236 CURVE SMOOTH",
"68 67 OFFCURVE",
"181 -1 OFFCURVE",
"290 -10 CURVE SMOOTH",
"417 -20 OFFCURVE",
"533 16 OFFCURVE",
"587 54 CURVE",
"587 131 OFFCURVE",
"593 238 OFFCURVE",
"600 260 CURVE SMOOTH",
"609 286 OFFCURVE",
"631 292 OFFCURVE",
"638 292 CURVE",
"642 342 LINE",
"559 339 OFFCURVE",
"515 340 OFFCURVE",
"436 343 CURVE",
"428 295 LINE",
"481 279 LINE",
"480 224 OFFCURVE",
"480 115 OFFCURVE",
"443 75 CURVE",
"308 61 OFFCURVE",
"228 115 OFFCURVE",
"202 270 CURVE SMOOTH",
"166 486 OFFCURVE",
"266 599 OFFCURVE",
"328 626 CURVE",
"511 613 OFFCURVE",
"538 488 OFFCURVE",
"538 481 CURVE",
"583 491 LINE",
"611 635 LINE",
"579 668 OFFCURVE",
"509 712 OFFCURVE",
"394 714 CURVE SMOOTH"
);
}
);
};
layerId = "71FD7A9F-05F5-4D76-8D4F-547475A05E4C";
name = "Bold Italic";
paths = (
{
closed = 1;
nodes = (
"572 48 LINE",
"550 32 OFFCURVE",
"469 -7 OFFCURVE",
"357 -12 CURVE SMOOTH",
"218 -18 OFFCURVE",
"85 40 OFFCURVE",
"51 202 CURVE SMOOTH",
"-1 442 OFFCURVE",
"135 717 OFFCURVE",
"397 714 CURVE SMOOTH",
"495 713 OFFCURVE",
"577 672 OFFCURVE",
"609 635 CURVE",
"581 491 LINE",
"536 480 LINE",
"535 487 OFFCURVE",
"516 609 OFFCURVE",
"331 625 CURVE",
"256 599 OFFCURVE",
"165 467 OFFCURVE",
"204 256 CURVE SMOOTH",
"224 148 OFFCURVE",
"285 77 OFFCURVE",
"393 72 CURVE SMOOTH",
"456 69 OFFCURVE",
"522 98 OFFCURVE",
"557 128 CURVE"
);
}
);
width = 617;
}
);
leftKerningGroup = O;
leftMetricsKey = O;
rightKerningGroup = C;
rightMetricsKey = O;
unicode = 0043;
},
{
glyphname = D;
lastChange = "2015-11-23 16:21:52 +0000";
layers = (
{
background = {
paths = (
{
closed = 1;
nodes = (
"507 683 OFFCURVE",
"420 727 OFFCURVE",
"286 709 CURVE",
"-3 647 OFFCURVE",
"-62 244 OFFCURVE",
"72 81 CURVE SMOOTH",
"143 -7 OFFCURVE",
"252 -28 OFFCURVE",
"369 0 CURVE",
"624 77 OFFCURVE",
"695 439 OFFCURVE",
"558 616 CURVE SMOOTH"
);
},
{
closed = 1;
nodes = (
"283 74 OFFCURVE",
"230 99 OFFCURVE",
"195 176 CURVE SMOOTH",
"121 333 OFFCURVE",
"149 545 OFFCURVE",
"289 626 CURVE",
"348 626 OFFCURVE",
"398 608 OFFCURVE",
"438 519 CURVE SMOOTH",
"506 371 OFFCURVE",
"481 162 OFFCURVE",
"343 75 CURVE"
);
}
);
};
layerId = "71FD7A9F-05F5-4D76-8D4F-547475A05E4C";
name = "Bold Italic";
paths = (
{
closed = 1;
nodes = (
"590 666 OFFCURVE",
"449 704 OFFCURVE",
"268 706 CURVE SMOOTH",
"218 706 OFFCURVE",
"115 702 OFFCURVE",
"73 700 CURVE",
"65 650 LINE",
"112 641 LINE",
"123 607 OFFCURVE",
"115 476 OFFCURVE",
"107 371 CURVE SMOOTH",
"98 254 OFFCURVE",
"73 96 OFFCURVE",
"78 85 CURVE SMOOTH",
"81 76 OFFCURVE",
"112 59 OFFCURVE",
"136 50 CURVE",
"25 50 LINE",
"21 0 LINE",
"292 -3 LINE SMOOTH",
"505 -5 OFFCURVE",
"669 198 OFFCURVE",
"621 482 CURVE SMOOTH"
);
},
{
closed = 1;
nodes = (
"336 626 OFFCURVE",
"438 590 OFFCURVE",
"465 456 CURVE SMOOTH",
"507 249 OFFCURVE",
"410 107 OFFCURVE",
"334 71 CURVE",
"234 83 LINE",
"208 129 OFFCURVE",
"242 510 OFFCURVE",
"266 622 CURVE"
);
}
);
width = 642;
}
);
leftKerningGroup = I;
leftMetricsKey = I;
rightKerningGroup = O;
rightMetricsKey = O;
unicode = 0044;
},
{
glyphname = E;
lastChange = "2015-11-29 10:54:25 +0000";
layers = (
{
anchors = (
{
name = bottom;
position = "{254, 0}";
},
{
name = ogonek;
position = "{477, 10}";
},
{
name = top;
position = "{312, 645}";
},
{
name = topleft;
position = "{68, 700}";
}
);
background = {
paths = (
{
closed = 1;
nodes = (
"69 700 LINE",
"61 653 LINE",
"111 642 LINE",
"122 602 OFFCURVE",
"115 484 OFFCURVE",
"112 427 CURVE SMOOTH",
"103 249 OFFCURVE",
"78 101 OFFCURVE",
"81 88 CURVE SMOOTH",
"85 74 OFFCURVE",
"123 56 OFFCURVE",
"142 50 CURVE",
"22 51 LINE",
"19 0 LINE",
"517 -1 LINE",
"543 164 LINE",
"493 175 LINE",
"488 165 OFFCURVE",
"473 127 OFFCURVE",
"459 98 CURVE",
"420 85 OFFCURVE",
"321 80 OFFCURVE",
"247 81 CURVE",
"217 114 OFFCURVE",
"225 228 OFFCURVE",
"233 331 CURVE",
"355 325 LINE",
"366 279 LINE",
"406 282 LINE",
"411 325 OFFCURVE",
"418 410 OFFCURVE",
"403 410 CURVE SMOOTH",
"395 410 OFFCURVE",
"232 404 OFFCURVE",
"238 404 CURVE",
"239 455 OFFCURVE",
"255 570 OFFCURVE",
"266 614 CURVE",
"337 614 OFFCURVE",
"436 615 OFFCURVE",
"480 601 CURVE",
"487 585 OFFCURVE",
"499 561 OFFCURVE",
"514 524 CURVE",
"564 535 LINE",
"538 700 LINE"
);
}
);
};
guideLines = (
{
angle = 12;
position = "{485, 529}";
},
{
angle = -12;
position = "{466, 175}";
},
{
angle = 84;
position = "{480, 548}";
}
);
layerId = "71FD7A9F-05F5-4D76-8D4F-547475A05E4C";
name = "Bold Italic";
paths = (
{
closed = 1;
nodes = (
"74 700 LINE",
"65 653 LINE",
"115 642 LINE",
"125 602 OFFCURVE",
"117 484 OFFCURVE",
"113 427 CURVE SMOOTH",
"101 249 OFFCURVE",
"74 101 OFFCURVE",
"76 88 CURVE SMOOTH",
"80 74 OFFCURVE",
"118 56 OFFCURVE",
"137 50 CURVE",
"17 51 LINE",
"13 0 LINE",
"511 -1 LINE",
"540 164 LINE",
"491 173 LINE",
"455 103 LINE",
"415 90 OFFCURVE",
"316 85 OFFCURVE",
"242 86 CURVE",
"213 119 OFFCURVE",
"223 228 OFFCURVE",
"233 331 CURVE",
"355 325 LINE",
"365 279 LINE",
"405 282 LINE",
"411 325 OFFCURVE",
"419 410 OFFCURVE",
"404 410 CURVE SMOOTH",
"396 410 OFFCURVE",
"233 404 OFFCURVE",
"239 404 CURVE",
"241 455 OFFCURVE",
"258 569 OFFCURVE",
"270 613 CURVE",
"361 612 OFFCURVE",
"442 610 OFFCURVE",
"483 602 CURVE",
"512 540 LINE",
"561 550 LINE",
"544 700 LINE"
);
}
);
width = 563;
}
);
leftKerningGroup = I;
leftMetricsKey = I;
rightKerningGroup = E;
rightMetricsKey = I;
unicode = 0045;
},
{
glyphname = F;
lastChange = "2015-11-23 16:21:52 +0000";
layers = (
{
background = {
paths = (
{
closed = 1;
nodes = (
"47 700 LINE",
"39 653 LINE",
"89 642 LINE",
"100 602 OFFCURVE",
"93 484 OFFCURVE",
"90 427 CURVE SMOOTH",
"81 249 OFFCURVE",
"56 101 OFFCURVE",
"59 88 CURVE SMOOTH",
"63 74 OFFCURVE",
"101 56 OFFCURVE",
"120 50 CURVE",
"0 51 LINE",
"-3 0 LINE",
"495 -1 LINE",
"521 164 LINE",
"472 173 LINE",
"437 98 LINE",
"398 85 OFFCURVE",
"299 80 OFFCURVE",
"225 81 CURVE",
"195 114 OFFCURVE",
"203 228 OFFCURVE",
"211 331 CURVE",
"333 325 LINE",
"344 279 LINE",
"384 282 LINE",
"389 325 OFFCURVE",
"396 410 OFFCURVE",
"381 410 CURVE SMOOTH",
"373 410 OFFCURVE",
"210 404 OFFCURVE",
"216 404 CURVE",
"217 455 OFFCURVE",
"233 573 OFFCURVE",
"244 617 CURVE",
"335 616 OFFCURVE",
"416 614 OFFCURVE",
"458 606 CURVE",
"489 537 LINE",
"538 547 LINE",
"517 700 LINE"
);
}
);
};
guideLines = (
{
position = "{484, 541}";
}
);
layerId = "71FD7A9F-05F5-4D76-8D4F-547475A05E4C";
name = "Bold Italic";
paths = (
{
closed = 1;
nodes = (
"73 700 LINE",
"65 653 LINE",
"111 644 LINE",
"124 605 OFFCURVE",
"117 484 OFFCURVE",
"113 426 CURVE SMOOTH",
"103 263 OFFCURVE",
"77 104 OFFCURVE",
"82 89 CURVE SMOOTH",
"85 74 OFFCURVE",
"119 58 OFFCURVE",
"142 50 CURVE",
"24 50 LINE",
"20 0 LINE",
"310 0 LINE",
"318 47 LINE",
"248 57 LINE",
"222 106 OFFCURVE",
"226 196 OFFCURVE",
"230 323 CURVE",
"341 317 LINE",
"353 271 LINE",
"395 275 LINE",
"398 296 OFFCURVE",
"403 403 OFFCURVE",
"394 403 CURVE SMOOTH",
"388 403 OFFCURVE",
"231 396 OFFCURVE",
"235 396 CURVE",
"245 533 OFFCURVE",
"254 566 OFFCURVE",
"265 616 CURVE",
"320 616 OFFCURVE",
"394 614 OFFCURVE",
"458 606 CURVE",
"487 540 LINE",
"537 550 LINE",
"518 699 LINE"
);
}
);
width = 509;
}
);
leftKerningGroup = I;
leftMetricsKey = I;
rightKerningGroup = F;
rightMetricsKey = "=E-5";
unicode = 0046;
},
{
glyphname = G;
lastChange = "2015-11-23 15:55:56 +0000";
layers = (
{
background = {
paths = (
{
closed = 1;
nodes = (
"544 683 OFFCURVE",
"457 727 OFFCURVE",
"323 709 CURVE",
"34 647 OFFCURVE",
"-25 244 OFFCURVE",
"109 81 CURVE SMOOTH",
"180 -7 OFFCURVE",
"289 -28 OFFCURVE",
"406 0 CURVE",
"661 77 OFFCURVE",
"732 439 OFFCURVE",
"595 616 CURVE SMOOTH"
);
},
{
closed = 1;
nodes = (
"320 74 OFFCURVE",
"267 99 OFFCURVE",
"232 176 CURVE SMOOTH",
"158 333 OFFCURVE",
"186 545 OFFCURVE",
"326 626 CURVE",
"385 626 OFFCURVE",
"435 608 OFFCURVE",
"475 519 CURVE SMOOTH",
"543 371 OFFCURVE",
"518 162 OFFCURVE",
"380 75 CURVE"
);
}
);
};
layerId = "71FD7A9F-05F5-4D76-8D4F-547475A05E4C";
name = "Bold Italic";
paths = (
{
closed = 1;
nodes = (
"162 718 OFFCURVE",
"11 492 OFFCURVE",
"45 236 CURVE SMOOTH",
"67 67 OFFCURVE",
"182 -1 OFFCURVE",
"294 -10 CURVE SMOOTH",
"421 -20 OFFCURVE",
"532 16 OFFCURVE",
"586 54 CURVE",
"586 131 OFFCURVE",
"592 238 OFFCURVE",
"599 260 CURVE SMOOTH",
"608 286 OFFCURVE",
"630 292 OFFCURVE",
"637 292 CURVE",
"641 342 LINE",
"558 339 OFFCURVE",
"514 340 OFFCURVE",
"435 343 CURVE",
"427 295 LINE",
"480 279 LINE",
"479 224 OFFCURVE",
"479 119 OFFCURVE",
"442 79 CURVE",
"307 65 OFFCURVE",
"227 115 OFFCURVE",
"201 270 CURVE SMOOTH",
"165 486 OFFCURVE",
"265 599 OFFCURVE",
"327 626 CURVE",
"510 613 OFFCURVE",
"537 488 OFFCURVE",
"537 481 CURVE",
"582 491 LINE",
"610 635 LINE",
"578 668 OFFCURVE",
"508 712 OFFCURVE",
"393 714 CURVE SMOOTH"
);
}
);
width = 657;
}
);
leftKerningGroup = O;
leftMetricsKey = O;
rightKerningGroup = I;
rightMetricsKey = O;
unicode = 0047;
},
{
glyphname = H;
lastChange = "2015-11-23 16:21:52 +0000";
layers = (
{
background = {
paths = (
{
closed = 1;
nodes = (
"542 671 OFFCURVE",
"471 732 OFFCURVE",
"305 696 CURVE SMOOTH",
"53 641 OFFCURVE",
"-1 234 OFFCURVE",
"123 89 CURVE SMOOTH",
"194 6 OFFCURVE",
"276 -23 OFFCURVE",
"416 8 CURVE SMOOTH",
"649 60 OFFCURVE",
"717 458 OFFCURVE",
"588 615 CURVE SMOOTH"
);
},
{
closed = 1;
nodes = (
"320 77 OFFCURVE",
"271 104 OFFCURVE",
"237 179 CURVE SMOOTH",
"168 333 OFFCURVE",
"188 544 OFFCURVE",
"323 627 CURVE",
"380 627 OFFCURVE",
"439 609 OFFCURVE",
"477 522 CURVE SMOOTH",
"541 377 OFFCURVE",
"525 162 OFFCURVE",
"388 77 CURVE"
);
}
);
};
layerId = "71FD7A9F-05F5-4D76-8D4F-547475A05E4C";
name = "Bold Italic";
paths = (
{
closed = 1;
nodes = (
"72 700 LINE",
"65 653 LINE",
"111 644 LINE",
"122 619 OFFCURVE",
"116 480 OFFCURVE",
"106 348 CURVE SMOOTH",
"96 212 OFFCURVE",
"79 104 OFFCURVE",
"82 88 CURVE SMOOTH",
"84 79 OFFCURVE",
"101 66 OFFCURVE",
"141 50 CURVE",
"23 50 LINE",
"20 0 LINE",
"295 0 LINE",
"302 47 LINE",
"247 55 LINE",
"217 104 OFFCURVE",
"218 212 OFFCURVE",
"227 349 CURVE SMOOTH",
"236 480 OFFCURVE",
"252 598 OFFCURVE",
"263 620 CURVE SMOOTH",
"275 640 OFFCURVE",
"292 648 OFFCURVE",
"315 650 CURVE",
"318 699 LINE"
);
},
{
closed = 1;
nodes = (
"444 700 LINE",
"436 653 LINE",
"482 644 LINE",
"493 619 OFFCURVE",
"486 480 OFFCURVE",
"478 354 CURVE SMOOTH",
"469 219 OFFCURVE",
"450 104 OFFCURVE",
"454 88 CURVE SMOOTH",
"455 79 OFFCURVE",
"472 66 OFFCURVE",
"512 50 CURVE",
"401 50 LINE",
"398 0 LINE",
"662 0 LINE",
"669 47 LINE",
"613 55 LINE",
"588 97 OFFCURVE",
"591 219 OFFCURVE",
"598 351 CURVE SMOOTH",
"605 480 OFFCURVE",
"618 598 OFFCURVE",
"629 620 CURVE SMOOTH",
"641 640 OFFCURVE",
"656 648 OFFCURVE",
"679 650 CURVE",
"683 699 LINE"
);
},
{
closed = 1;
nodes = (
"207 310 LINE",
"513 313 LINE",
"510 396 LINE",
"217 396 LINE"
);
}
);
width = 699;
}
);
leftKerningGroup = I;
leftMetricsKey = I;
rightKerningGroup = I;
rightMetricsKey = I;
unicode = 0048;
},
{
glyphname = I;
lastChange = "2015-11-23 20:01:03 +0000";
layers = (
{
anchors = (
{
name = bottom;
position = "{144, 0}";
},
{
name = ogonek;
position = "{278, 10}";
},
{
name = top;
position = "{195, 648}";
},
{
name = topleft;
position = "{68, 700}";
}
);
background = {
paths = (
{
closed = 1;
nodes = (
"453 175 LINE",
"450 172 OFFCURVE",
"440 96 OFFCURVE",
"381 74 CURVE SMOOTH",
"338 58 OFFCURVE",
"281 58 OFFCURVE",
"230 61 CURVE",
"212 150 OFFCURVE",
"223 278 OFFCURVE",
"240 433 CURVE SMOOTH",
"248 505 OFFCURVE",
"258 614 OFFCURVE",
"287 637 CURVE SMOOTH",
"304 650 OFFCURVE",
"321 649 OFFCURVE",
"328 650 CURVE",
"333 700 LINE",
"228 697 OFFCURVE",
"171 697 OFFCURVE",
"73 700 CURVE",
"69 650 LINE",
"80 650 OFFCURVE",
"98 646 OFFCURVE",
"109 634 CURVE SMOOTH",
"133 608 OFFCURVE",
"121 510 OFFCURVE",
"111 418 CURVE SMOOTH",
"98 299 OFFCURVE",
"67 102 OFFCURVE",
"69 88 CURVE SMOOTH",
"73 77 OFFCURVE",
"89 67 OFFCURVE",
"125 51 CURVE",
"6 53 LINE",
"0 0 LINE",
"162 4 OFFCURVE",
"222 4 OFFCURVE",
"477 0 CURVE",
"487 89 OFFCURVE",
"501 159 OFFCURVE",
"502 165 CURVE"
);
}
);
};
layerId = "71FD7A9F-05F5-4D76-8D4F-547475A05E4C";
name = "Bold Italic";
paths = (
{
closed = 1;
nodes = (
"73 700 LINE",
"65 653 LINE",
"111 644 LINE",
"121 619 OFFCURVE",
"120 510 OFFCURVE",
"111 419 CURVE SMOOTH",
"97 284 OFFCURVE",
"75 104 OFFCURVE",
"80 88 CURVE SMOOTH",
"81 79 OFFCURVE",
"88 62 OFFCURVE",
"126 50 CURVE",
"20 50 LINE",
"15 0 LINE",
"297 1 LINE",
"302 48 LINE",
"246 56 LINE",
"211 115 OFFCURVE",
"226 322 OFFCURVE",
"235 444 CURVE SMOOTH",
"243 557 OFFCURVE",
"256 599 OFFCURVE",
"268 621 CURVE SMOOTH",
"280 641 OFFCURVE",
"297 649 OFFCURVE",
"320 651 CURVE",
"325 701 LINE"
);
}
);
width = 337;
}
);
leftKerningGroup = I;
rightKerningGroup = I;
unicode = 0049;
},
{
glyphname = J;
lastChange = "2015-11-22 20:11:10 +0000";
layers = (
{
background = {
paths = (
{
closed = 1;
nodes = (
"190 504 OFFCURVE",
"107 515 OFFCURVE",
"76 512 CURVE",
"66 471 LINE",
"102 442 LINE",
"105 430 OFFCURVE",
"107 394 OFFCURVE",
"106 371 CURVE SMOOTH",
"104 335 OFFCURVE",
"99 226 OFFCURVE",
"95 179 CURVE",
"66 -23 OFFCURVE",
"51 -66 OFFCURVE",
"30 -94 CURVE",
"18 -94 OFFCURVE",
"4 -88 OFFCURVE",
"-20 -74 CURVE",
"-37 -118 LINE",
"-13 -138 OFFCURVE",
"15 -152 OFFCURVE",
"34 -158 CURVE",
"141 -132 OFFCURVE",
"171 -78 OFFCURVE",
"195 148 CURVE",
"208 282 OFFCURVE",
"232 463 OFFCURVE",
"230 487 CURVE"
);
}
);
};
layerId = "71FD7A9F-05F5-4D76-8D4F-547475A05E4C";
name = "Bold Italic";
paths = (
{
closed = 1;
nodes = (
"74 700 LINE",
"65 653 LINE",
"113 644 LINE",
"124 619 OFFCURVE",
"118 489 OFFCURVE",
"112 429 CURVE",
"76 46 OFFCURVE",
"55 -34 OFFCURVE",
"21 -94 CURVE",
"3 -92 OFFCURVE",
"-15 -84 OFFCURVE",
"-31 -75 CURVE",
"-48 -118 LINE",
"-26 -137 OFFCURVE",
"3 -151 OFFCURVE",
"23 -158 CURVE",
"138 -130 OFFCURVE",
"194 -40 OFFCURVE",
"203 83 CURVE SMOOTH",
"227 400 OFFCURVE",
"248 598 OFFCURVE",
"261 620 CURVE SMOOTH",
"273 640 OFFCURVE",
"288 648 OFFCURVE",
"311 650 CURVE",
"316 699 LINE"
);
}
);
width = 283;
}
);
leftKerningGroup = I;
rightKerningGroup = I;
unicode = 004A;
},
{
glyphname = K;
lastChange = "2015-11-23 16:21:52 +0000";
layers = (
{
background = {
paths = (
{
closed = 1;
nodes = (
"72 700 LINE",
"67 653 LINE",
"113 644 LINE",
"124 619 OFFCURVE",
"112 480 OFFCURVE",
"98 348 CURVE SMOOTH",
"84 212 OFFCURVE",
"63 104 OFFCURVE",
"65 88 CURVE SMOOTH",
"66 79 OFFCURVE",
"83 66 OFFCURVE",
"123 50 CURVE",
"5 50 LINE",
"0 0 LINE",
"281 0 LINE",
"285 47 LINE",
"229 55 LINE",
"201 104 OFFCURVE",
"205 212 OFFCURVE",
"219 349 CURVE SMOOTH",
"232 480 OFFCURVE",
"252 598 OFFCURVE",
"265 620 CURVE SMOOTH",
"277 640 OFFCURVE",
"294 648 OFFCURVE",
"317 650 CURVE",
"322 699 LINE"
);
},
{
closed = 1;
nodes = (
"443 700 LINE",
"438 653 LINE",
"484 644 LINE",
"495 619 OFFCURVE",
"482 480 OFFCURVE",
"470 354 CURVE SMOOTH",
"457 219 OFFCURVE",
"434 104 OFFCURVE",
"436 88 CURVE SMOOTH",
"437 79 OFFCURVE",
"454 66 OFFCURVE",
"494 50 CURVE",
"383 50 LINE",
"378 0 LINE",
"652 0 LINE",
"656 47 LINE",
"600 55 LINE",
"577 97 OFFCURVE",
"584 219 OFFCURVE",
"595 351 CURVE SMOOTH",
"606 480 OFFCURVE",
"623 598 OFFCURVE",
"636 620 CURVE SMOOTH",
"648 640 OFFCURVE",
"663 648 OFFCURVE",
"686 650 CURVE",
"691 699 LINE"
);
},
{
closed = 1;
nodes = (
"197 308 LINE",
"503 314 LINE",
"504 396 LINE",
"211 396 LINE"
);
}
);
};
layerId = "71FD7A9F-05F5-4D76-8D4F-547475A05E4C";
name = "Bold Italic";
paths = (
{
closed = 1;
nodes = (
"305 352 LINE",
"313 272 OFFCURVE",
"393 52 OFFCURVE",
"420 32 CURVE SMOOTH",
"429 25 OFFCURVE",
"501 -1 OFFCURVE",
"554 -1 CURVE",
"589 7 OFFCURVE",
"616 25 OFFCURVE",
"621 28 CURVE",
"616 74 LINE",
"596 66 OFFCURVE",
"582 65 OFFCURVE",
"571 63 CURVE",
"518 119 OFFCURVE",
"415 326 OFFCURVE",
"391 425 CURVE"
);
},
{
closed = 1;
nodes = (
"73 700 LINE",
"65 653 LINE",
"111 644 LINE",
"122 619 OFFCURVE",
"114 487 OFFCURVE",
"109 427 CURVE SMOOTH",
"97 292 OFFCURVE",
"70 104 OFFCURVE",
"73 88 CURVE SMOOTH",
"74 79 OFFCURVE",
"82 62 OFFCURVE",
"120 50 CURVE",
"13 50 LINE",
"9 0 LINE",
"290 0 LINE",
"297 47 LINE",
"241 55 LINE",
"206 114 OFFCURVE",
"225 286 OFFCURVE",
"236 408 CURVE SMOOTH",
"246 521 OFFCURVE",
"255 598 OFFCURVE",
"267 620 CURVE SMOOTH",
"279 640 OFFCURVE",
"296 648 OFFCURVE",
"319 650 CURVE",
"323 699 LINE"
);
},
{
closed = 1;
nodes = (
"442 584 OFFCURVE",
"296 400 OFFCURVE",
"217 312 CURVE",
"215 203 LINE",
"363 372 LINE",
"442 465 OFFCURVE",
"544 586 OFFCURVE",
"572 615 CURVE SMOOTH",
"596 639 OFFCURVE",
"620 650 OFFCURVE",
"647 650 CURVE",
"651 700 LINE",
"429 700 LINE",
"421 651 LINE",
"471 642 LINE"
);
}
);
width = 638;
}
);
leftKerningGroup = I;
leftMetricsKey = I;
rightKerningGroup = X;
unicode = 004B;
},
{
glyphname = L;
lastChange = "2015-11-23 16:21:52 +0000";
layers = (
{
background = {
paths = (
{
closed = 1;
nodes = (
"50 700 LINE",
"42 653 LINE",
"92 642 LINE",
"103 602 OFFCURVE",
"96 484 OFFCURVE",
"93 427 CURVE SMOOTH",
"84 249 OFFCURVE",
"59 101 OFFCURVE",
"62 88 CURVE SMOOTH",
"66 74 OFFCURVE",
"104 56 OFFCURVE",
"123 50 CURVE",
"3 51 LINE",
"0 0 LINE",
"498 -1 LINE",
"525 163 LINE",
"480 173 LINE",
"476 166 OFFCURVE",
"471 115 OFFCURVE",
"408 94 CURVE SMOOTH",
"369 81 OFFCURVE",
"302 80 OFFCURVE",
"228 81 CURVE",
"198 114 OFFCURVE",
"206 228 OFFCURVE",
"214 331 CURVE",
"336 325 LINE",
"347 279 LINE",
"387 282 LINE",
"392 325 OFFCURVE",
"399 410 OFFCURVE",
"384 410 CURVE SMOOTH",
"376 410 OFFCURVE",
"213 404 OFFCURVE",
"219 404 CURVE",
"220 455 OFFCURVE",
"236 569 OFFCURVE",
"247 613 CURVE",
"362 613 LINE",
"456 610 OFFCURVE",
"485 580 OFFCURVE",
"493 527 CURVE",
"540 537 LINE",
"522 699 LINE"
);
}
);
};
guideLines = (
{
angle = -12;
position = "{445, 184}";
}
);
layerId = "71FD7A9F-05F5-4D76-8D4F-547475A05E4C";
name = "Bold Italic";
paths = (
{
closed = 1;
nodes = (
"472 175 LINE",
"438 98 LINE",
"399 84 OFFCURVE",
"277 79 OFFCURVE",
"232 83 CURVE",
"222 121 OFFCURVE",
"222 275 OFFCURVE",
"236 433 CURVE SMOOTH",
"243 513 OFFCURVE",
"247 608 OFFCURVE",
"276 634 CURVE SMOOTH",
"287 644 OFFCURVE",
"306 650 OFFCURVE",
"317 650 CURVE",
"321 700 LINE",
"73 700 LINE",
"65 650 LINE",
"112 641 LINE",
"121 608 OFFCURVE",
"117 510 OFFCURVE",
"109 418 CURVE SMOOTH",
"96 282 OFFCURVE",
"70 107 OFFCURVE",
"74 87 CURVE SMOOTH",
"76 78 OFFCURVE",
"83 72 OFFCURVE",
"132 50 CURVE",
"15 50 LINE",
"11 0 LINE",
"499 0 LINE",
"509 89 OFFCURVE",
"521 159 OFFCURVE",
"522 165 CURVE"
);
}
);
width = 518;
}
);
leftKerningGroup = I;
leftMetricsKey = I;
rightKerningGroup = L;
unicode = 004C;
},
{
glyphname = M;
lastChange = "2015-11-23 16:08:42 +0000";
layers = (
{
background = {
paths = (
{
closed = 1;
nodes = (
"475 87 LINE",
"460 169 OFFCURVE",
"354 610 OFFCURVE",
"350 617 CURVE SMOOTH",
"343 628 OFFCURVE",
"326 642 OFFCURVE",
"303 650 CURVE",
"396 650 LINE",
"401 700 LINE",
"140 700 LINE",
"131 653 LINE",
"185 645 LINE",
"209 613 OFFCURVE",
"254 448 OFFCURVE",
"287 327 CURVE SMOOTH",
"316 220 OFFCURVE",
"356 44 OFFCURVE",
"369 0 CURVE"
);
},
{
closed = 1;
nodes = (
"599 608 OFFCURVE",
"555 463 OFFCURVE",
"536 412 CURVE SMOOTH",
"436 144 OFFCURVE",
"392 44 OFFCURVE",
"371 0 CURVE",
"482 0 LINE",
"569 270 OFFCURVE",
"673 545 OFFCURVE",
"692 592 CURVE SMOOTH",
"711 638 OFFCURVE",
"747 650 OFFCURVE",
"777 650 CURVE",
"782 700 LINE",
"531 700 LINE",
"522 653 LINE",
"589 640 LINE"
);
}
);
};
layerId = "71FD7A9F-05F5-4D76-8D4F-547475A05E4C";
name = "Bold Italic";
paths = (
{
closed = 1;
nodes = (
"240 480 LINE",
"295 329 OFFCURVE",
"380 6 OFFCURVE",
"383 0 CURVE",
"466 193 LINE",
"453 212 OFFCURVE",
"363 520 OFFCURVE",
"324 700 CURVE",
"319 695 LINE",
"322 700 LINE",
"186 642 LINE"
);
},
{
closed = 1;
nodes = (
"524 143 OFFCURVE",
"608 385 OFFCURVE",
"644 479 CURVE",
"653 323 OFFCURVE",
"665 90 OFFCURVE",
"667 85 CURVE SMOOTH",
"671 74 OFFCURVE",
"683 60 OFFCURVE",
"712 50 CURVE",
"620 50 LINE",
"616 0 LINE",
"868 0 LINE",
"875 47 LINE",
"824 54 LINE",
"793 139 OFFCURVE",
"776 458 OFFCURVE",
"762 589 CURVE SMOOTH",
"757 633 OFFCURVE",
"782 650 OFFCURVE",
"809 650 CURVE",
"814 700 LINE",
"621 700 LINE",
"580 553 OFFCURVE",
"496 312 OFFCURVE",
"441 178 CURVE",
"419 119 OFFCURVE",
"408 59 OFFCURVE",
"383 0 CURVE",
"483 0 LINE"
);
},
{
closed = 1;
nodes = (
"189 88 OFFCURVE",
"200 193 OFFCURVE",
"205 243 CURVE SMOOTH",
"215 339 OFFCURVE",
"230 429 OFFCURVE",
"255 541 CURVE",
"270 596 OFFCURVE",
"300 680 OFFCURVE",
"324 700 CURVE",
"136 700 LINE",
"128 653 LINE",
"184 642 LINE",
"148 387 OFFCURVE",
"111 163 OFFCURVE",
"94 120 CURVE SMOOTH",
"70 61 OFFCURVE",
"36 50 OFFCURVE",
"10 50 CURVE",
"5 0 LINE",
"244 0 LINE",
"252 49 LINE",
"199 58 LINE"
);
}
);
width = 915;
}
);
leftKerningGroup = A;
rightKerningGroup = A;
unicode = 004D;
},
{
glyphname = N;
lastChange = "2015-11-23 20:27:23 +0000";
layers = (
{
anchors = (
{
name = bottom;
position = "{306, 0}";
},
{
name = top;
position = "{360, 661}";
}
);
background = {
paths = (
{
closed = 1;
nodes = (
"308 352 LINE",
"316 272 OFFCURVE",
"396 52 OFFCURVE",
"423 32 CURVE SMOOTH",
"432 25 OFFCURVE",
"504 -1 OFFCURVE",
"557 -1 CURVE",
"592 7 OFFCURVE",
"619 25 OFFCURVE",
"624 28 CURVE",
"619 74 LINE",
"599 66 OFFCURVE",
"585 65 OFFCURVE",
"574 63 CURVE",
"521 119 OFFCURVE",
"418 326 OFFCURVE",
"394 425 CURVE"
);
},
{
closed = 1;
nodes = (
"72 700 LINE",
"64 653 LINE",
"110 644 LINE",
"121 619 OFFCURVE",
"113 487 OFFCURVE",
"108 427 CURVE SMOOTH",
"96 292 OFFCURVE",
"69 104 OFFCURVE",
"72 88 CURVE SMOOTH",
"73 79 OFFCURVE",
"81 62 OFFCURVE",
"119 50 CURVE",
"12 50 LINE",
"8 0 LINE",
"293 0 LINE",
"300 47 LINE",
"244 55 LINE",
"209 114 OFFCURVE",
"228 286 OFFCURVE",
"239 408 CURVE SMOOTH",
"249 521 OFFCURVE",
"258 598 OFFCURVE",
"270 620 CURVE SMOOTH",
"282 640 OFFCURVE",
"299 648 OFFCURVE",
"322 650 CURVE",
"326 699 LINE"
);
},
{
closed = 1;
nodes = (
"445 584 OFFCURVE",
"299 400 OFFCURVE",
"220 312 CURVE",
"218 203 LINE",
"366 372 LINE",
"445 465 OFFCURVE",
"547 586 OFFCURVE",
"575 615 CURVE SMOOTH",
"599 639 OFFCURVE",
"623 650 OFFCURVE",
"650 650 CURVE",
"654 700 LINE",
"432 700 LINE",
"424 651 LINE",
"474 642 LINE"
);
}
);
};
layerId = "71FD7A9F-05F5-4D76-8D4F-547475A05E4C";
name = "Bold Italic";
paths = (
{
closed = 1;
nodes = (
"138 566 LINE",
"177 528 OFFCURVE",
"247 404 OFFCURVE",
"275 351 CURVE SMOOTH",
"308 289 OFFCURVE",
"461 3 OFFCURVE",
"464 -1 CURVE",
"562 120 LINE",
"525 172 OFFCURVE",
"448 293 OFFCURVE",
"416 351 CURVE SMOOTH",
"385 408 OFFCURVE",
"293 584 OFFCURVE",
"239 700 CURVE",
"235 695 LINE",
"237 700 LINE",
"133 594 LINE"
);
},
{
closed = 1;
nodes = (
"181 88 OFFCURVE",
"187 186 OFFCURVE",
"191 236 CURVE SMOOTH",
"202 383 OFFCURVE",
"229 642 OFFCURVE",
"239 700 CURVE",
"74 700 LINE",
"65 653 LINE",
"117 642 LINE",
"125 508 OFFCURVE",
"97 163 OFFCURVE",
"83 120 CURVE SMOOTH",
"64 61 OFFCURVE",
"30 50 OFFCURVE",
"4 50 CURVE",
"-1 0 LINE",
"247 0 LINE",
"256 49 LINE",
"195 58 LINE"
);
},
{
closed = 1;
nodes = (
"509 612 OFFCURVE",
"502 514 OFFCURVE",
"498 464 CURVE SMOOTH",
"471 113 OFFCURVE",
"468 107 OFFCURVE",
"466 -1 CURVE",
"560 -8 LINE",
"570 278 OFFCURVE",
"590 523 OFFCURVE",
"609 580 CURVE SMOOTH",
"628 639 OFFCURVE",
"669 650 OFFCURVE",
"695 650 CURVE",
"700 700 LINE",
"450 700 LINE",
"441 651 LINE",
"495 642 LINE"
);
}
);
width = 662;
}
);
leftKerningGroup = I;
leftMetricsKey = I;
rightKerningGroup = I;
rightMetricsKey = I;
unicode = 004E;
},
{
glyphname = O;
lastChange = "2015-11-23 19:58:00 +0000";
layers = (
{
anchors = (
{
name = bottom;
position = "{312, 0}";
},
{
name = center;
position = "{349, 350}";
},
{
name = ogonek;
position = "{582, 10}";
},
{
name = top;
position = "{364, 649}";
},
{
name = topleft;
position = "{68, 700}";
},
{
name = topright;
position = "{702, 700}";
}
);
background = {
paths = (
{
closed = 1;
nodes = (
"553 675 OFFCURVE",
"481 725 OFFCURVE",
"329 709 CURVE",
"52 650 OFFCURVE",
"-41 261 OFFCURVE",
"108 75 CURVE SMOOTH",
"174 -7 OFFCURVE",
"277 -34 OFFCURVE",
"398 -3 CURVE",
"678 94 OFFCURVE",
"723 460 OFFCURVE",
"598 617 CURVE SMOOTH"
);
},
{
closed = 1;
nodes = (
"305 101 OFFCURVE",
"270 140 OFFCURVE",
"239 210 CURVE SMOOTH",
"183 337 OFFCURVE",
"227 535 OFFCURVE",
"342 598 CURVE",
"384 598 OFFCURVE",
"424 563 OFFCURVE",
"458 497 CURVE SMOOTH",
"515 379 OFFCURVE",
"483 178 OFFCURVE",
"362 101 CURVE"
);
}
);
};
layerId = "71FD7A9F-05F5-4D76-8D4F-547475A05E4C";
name = "Bold Italic";
paths = (
{
closed = 1;
nodes = (
"543 683 OFFCURVE",
"456 727 OFFCURVE",
"322 709 CURVE",
"33 647 OFFCURVE",
"-26 244 OFFCURVE",
"108 81 CURVE SMOOTH",
"179 -7 OFFCURVE",
"288 -28 OFFCURVE",
"405 0 CURVE",
"660 77 OFFCURVE",
"731 439 OFFCURVE",
"594 616 CURVE SMOOTH"
);
},
{
closed = 1;
nodes = (
"319 74 OFFCURVE",
"266 99 OFFCURVE",
"231 176 CURVE SMOOTH",
"157 333 OFFCURVE",
"185 545 OFFCURVE",
"325 626 CURVE",
"384 626 OFFCURVE",
"434 608 OFFCURVE",
"474 519 CURVE SMOOTH",
"542 371 OFFCURVE",
"517 162 OFFCURVE",
"379 75 CURVE"
);
}
);
width = 674;
}
);
leftKerningGroup = O;
rightKerningGroup = O;
unicode = 004F;
},
{
glyphname = OE;
lastChange = "2015-11-23 20:38:10 +0000";
layers = (
{
anchors = (
{
name = bottom;
position = "{450, 0}";
},
{
name = top;
position = "{523, 700}";
}
);
components = (
{
name = E;
transform = "{1, 0, 0, 1, 391, 0}";
}
);
layerId = "71FD7A9F-05F5-4D76-8D4F-547475A05E4C";
name = "Bold Italic";
paths = (
{
closed = 1;
nodes = (
"543 683 OFFCURVE",
"456 727 OFFCURVE",
"322 709 CURVE",
"33 647 OFFCURVE",
"-26 244 OFFCURVE",
"108 81 CURVE SMOOTH",
"179 -7 OFFCURVE",
"288 -28 OFFCURVE",
"405 0 CURVE",
"506 31 OFFCURVE",
"537 5 OFFCURVE",
"585 96 CURVE",
"623 511 LINE",
"612 550 OFFCURVE",
"627 586 OFFCURVE",
"601 616 CURVE SMOOTH"
);
},
{
closed = 1;
nodes = (
"323 74 OFFCURVE",
"269 104 OFFCURVE",
"233 181 CURVE SMOOTH",
"159 338 OFFCURVE",
"185 545 OFFCURVE",
"325 626 CURVE",
"384 626 OFFCURVE",
"476 594 OFFCURVE",
"516 500 CURVE",
"505 348 OFFCURVE",
"509 75 OFFCURVE",
"383 75 CURVE"
);
}
);
width = 949;
}
);
leftMetricsKey = O;
rightMetricsKey = E;
unicode = 0152;
},
{
glyphname = P;
lastChange = "2015-11-23 16:21:52 +0000";
layers = (
{
background = {
paths = (
{
closed = 1;
nodes = (
"409 304 LINE",
"496 334 OFFCURVE",
"576 430 OFFCURVE",
"557 545 CURVE SMOOTH",
"522 752 OFFCURVE",
"196 703 OFFCURVE",
"72 699 CURVE",
"65 653 LINE",
"112 644 LINE",
"124 604 OFFCURVE",
"117 466 OFFCURVE",
"102 326 CURVE SMOOTH",
"84 158 OFFCURVE",
"71 96 OFFCURVE",
"76 85 CURVE SMOOTH",
"79 76 OFFCURVE",
"111 50 OFFCURVE",
"135 50 CURVE",
"17 51 LINE",
"12 0 LINE",
"292 0 LINE",
"299 47 LINE",
"245 55 LINE",
"224 108 OFFCURVE",
"218 157 OFFCURVE",
"229 285 CURVE",
"248 283 OFFCURVE",
"306 283 OFFCURVE",
"329 284 CURVE"
);
},
{
closed = 1;
nodes = (
"267 626 CURVE",
"437 635 OFFCURVE",
"461 404 OFFCURVE",
"356 363 CURVE",
"336 363 OFFCURVE",
"284 367 OFFCURVE",
"234 385 CURVE",
"242 480 OFFCURVE",
"250 550 OFFCURVE"
);
},
{
closed = 1;
nodes = (
"335 291 LINE",
"340 273 OFFCURVE",
"353 60 OFFCURVE",
"391 32 CURVE SMOOTH",
"400 25 OFFCURVE",
"472 -1 OFFCURVE",
"525 -1 CURVE",
"558 7 OFFCURVE",
"585 25 OFFCURVE",
"590 28 CURVE",
"585 74 LINE",
"565 66 OFFCURVE",
"551 65 OFFCURVE",
"540 63 CURVE",
"487 119 OFFCURVE",
"456 229 OFFCURVE",
"430 327 CURVE"
);
}
);
};
guideLines = (
{
angle = 84;
position = "{603, 311}";
}
);
layerId = "71FD7A9F-05F5-4D76-8D4F-547475A05E4C";
name = "Bold Italic";
paths = (
{
closed = 1;
nodes = (
"364 714 OFFCURVE",
"254 709 OFFCURVE",
"72 700 CURVE",
"65 650 LINE",
"111 641 LINE",
"121 619 OFFCURVE",
"113 481 OFFCURVE",
"108 421 CURVE SMOOTH",
"99 309 OFFCURVE",
"67 101 OFFCURVE",
"71 88 CURVE",
"73 76 OFFCURVE",
"96 62 OFFCURVE",
"130 50 CURVE",
"14 50 LINE",
"10 0 LINE",
"289 0 LINE",
"297 47 LINE",
"241 55 LINE",
"219 89 OFFCURVE",
"219 154 OFFCURVE",
"224 268 CURVE",
"256 261 OFFCURVE",
"295 260 OFFCURVE",
"326 264 CURVE",
"572 312 OFFCURVE",
"625 589 OFFCURVE",
"455 670 CURVE SMOOTH"
);
},
{
closed = 1;
nodes = (
"308 348 OFFCURVE",
"268 353 OFFCURVE",
"232 370 CURVE",
"239 455 OFFCURVE",
"249 547 OFFCURVE",
"267 626 CURVE",
"427 633 OFFCURVE",
"465 413 OFFCURVE",
"345 350 CURVE"
);
}
);
width = 552;
}
);
leftKerningGroup = I;
leftMetricsKey = I;
rightKerningGroup = T;
rightMetricsKey = O;
unicode = 0050;
},
{
glyphname = Q;
lastChange = "2015-11-23 16:22:35 +0000";
layers = (
{
background = {
paths = (
{
closed = 1;
nodes = (
"544 674 OFFCURVE",
"468 738 OFFCURVE",
"299 701 CURVE SMOOTH",
"42 645 OFFCURVE",
"-9 229 OFFCURVE",
"117 81 CURVE SMOOTH",
"190 -4 OFFCURVE",
"274 -34 OFFCURVE",
"416 -2 CURVE SMOOTH",
"654 51 OFFCURVE",
"725 458 OFFCURVE",
"592 617 CURVE SMOOTH"
);
},
{
closed = 1;
nodes = (
"318 68 OFFCURVE",
"269 98 OFFCURVE",
"235 175 CURVE SMOOTH",
"164 332 OFFCURVE",
"185 544 OFFCURVE",
"322 629 CURVE",
"381 629 OFFCURVE",
"438 608 OFFCURVE",
"477 519 CURVE SMOOTH",
"542 371 OFFCURVE",
"528 155 OFFCURVE",
"388 68 CURVE"
);
}
);
};
layerId = "71FD7A9F-05F5-4D76-8D4F-547475A05E4C";
name = "Bold Italic";
paths = (
{
closed = 1;
nodes = (
"339 -45 OFFCURVE",
"542 -202 OFFCURVE",
"650 -191 CURVE",
"703 -169 OFFCURVE",
"757 -119 OFFCURVE",
"777 -91 CURVE",
"748 -55 LINE",
"732 -70 OFFCURVE",
"711 -83 OFFCURVE",
"696 -88 CURVE",
"632 -73 OFFCURVE",
"286 61 OFFCURVE",
"250 138 CURVE",
"199 109 LINE"
);
},
{
closed = 1;
nodes = (
"543 683 OFFCURVE",
"456 727 OFFCURVE",
"322 709 CURVE",
"33 647 OFFCURVE",
"-26 244 OFFCURVE",
"108 81 CURVE SMOOTH",
"179 -7 OFFCURVE",
"288 -28 OFFCURVE",
"405 0 CURVE",
"660 77 OFFCURVE",
"731 439 OFFCURVE",
"594 616 CURVE SMOOTH"
);
},
{
closed = 1;
nodes = (
"319 58 OFFCURVE",
"266 99 OFFCURVE",
"231 176 CURVE SMOOTH",
"157 333 OFFCURVE",
"185 545 OFFCURVE",
"325 626 CURVE",
"384 626 OFFCURVE",
"434 608 OFFCURVE",
"474 519 CURVE SMOOTH",
"542 371 OFFCURVE",
"517 146 OFFCURVE",
"379 59 CURVE"
);
}
);
width = 672;
}
);
leftKerningGroup = O;
leftMetricsKey = O;
rightKerningGroup = O;
unicode = 0051;
},
{
glyphname = R;
lastChange = "2015-11-23 16:21:52 +0000";
layers = (
{
background = {
paths = (
{
closed = 1;
nodes = (
"363 714 OFFCURVE",
"250 709 OFFCURVE",
"68 700 CURVE",
"61 653 LINE",
"107 644 LINE",
"117 622 OFFCURVE",
"109 481 OFFCURVE",
"104 421 CURVE SMOOTH",
"95 309 OFFCURVE",
"63 101 OFFCURVE",
"67 88 CURVE",
"69 76 OFFCURVE",
"92 62 OFFCURVE",
"126 50 CURVE",
"10 50 LINE",
"6 0 LINE",
"285 0 LINE",
"293 47 LINE",
"237 55 LINE",
"215 89 OFFCURVE",
"215 154 OFFCURVE",
"220 268 CURVE",
"252 261 OFFCURVE",
"291 260 OFFCURVE",
"322 264 CURVE",
"571 312 OFFCURVE",
"624 589 OFFCURVE",
"454 670 CURVE SMOOTH"
);
},
{
closed = 1;
nodes = (
"304 348 OFFCURVE",
"264 353 OFFCURVE",
"228 370 CURVE",
"235 455 OFFCURVE",
"245 547 OFFCURVE",
"263 626 CURVE",
"426 633 OFFCURVE",
"464 413 OFFCURVE",
"341 350 CURVE"
);
}
);
};
guideLines = (
{
position = "{489, 480}";
}
);
layerId = "71FD7A9F-05F5-4D76-8D4F-547475A05E4C";
name = "Bold Italic";
paths = (
{
closed = 1;
nodes = (
"396 296 LINE",
"492 326 OFFCURVE",
"579 434 OFFCURVE",
"559 549 CURVE SMOOTH",
"523 752 OFFCURVE",
"196 703 OFFCURVE",
"72 699 CURVE",
"65 650 LINE",
"112 641 LINE",
"123 601 OFFCURVE",
"117 466 OFFCURVE",
"102 326 CURVE SMOOTH",
"84 158 OFFCURVE",
"71 96 OFFCURVE",
"76 85 CURVE SMOOTH",
"79 76 OFFCURVE",
"111 50 OFFCURVE",
"135 50 CURVE",
"17 51 LINE",
"12 0 LINE",
"283 0 LINE",
"290 47 LINE",
"241 55 LINE",
"220 108 OFFCURVE",
"214 157 OFFCURVE",
"225 285 CURVE",
"244 283 OFFCURVE",
"302 283 OFFCURVE",
"325 284 CURVE"
);
},
{
closed = 1;
nodes = (
"238 480 OFFCURVE",
"245 546 OFFCURVE",
"262 622 CURVE",
"441 635 OFFCURVE",
"466 404 OFFCURVE",
"352 363 CURVE",
"332 363 OFFCURVE",
"280 367 OFFCURVE",
"230 385 CURVE"
);
},
{
closed = 1;
nodes = (
"318 288 LINE",
"323 270 OFFCURVE",
"349 60 OFFCURVE",
"387 32 CURVE SMOOTH",
"396 25 OFFCURVE",
"466 -1 OFFCURVE",
"519 -1 CURVE",
"552 7 OFFCURVE",
"579 25 OFFCURVE",
"584 28 CURVE",
"579 74 LINE",
"559 66 OFFCURVE",
"545 65 OFFCURVE",
"534 63 CURVE",
"481 119 OFFCURVE",
"448 226 OFFCURVE",
"424 324 CURVE"
);
}
);
width = 611;
}
);
leftKerningGroup = I;
leftMetricsKey = I;
rightKerningGroup = B;
unicode = 0052;
},
{
glyphname = S;
lastChange = "2015-11-28 16:26:09 +0000";
layers = (
{
background = {
paths = (
{
closed = 1;
nodes = (
"127 660 OFFCURVE",
"63 588 OFFCURVE",
"55 495 CURVE SMOOTH",
"47 382 OFFCURVE",
"163 324 OFFCURVE",
"229 292 CURVE SMOOTH",
"330 243 OFFCURVE",
"370 209 OFFCURVE",
"370 187 CURVE",
"358 139 OFFCURVE",
"322 83 OFFCURVE",
"287 75 CURVE",
"216 86 OFFCURVE",
"152 103 OFFCURVE",
"121 214 CURVE",
"78 204 LINE",
"71 175 OFFCURVE",
"56 88 OFFCURVE",
"49 60 CURVE",
"98 13 OFFCURVE",
"177 -21 OFFCURVE",
"276 -14 CURVE SMOOTH",
"394 -6 OFFCURVE",
"491 70 OFFCURVE",
"501 199 CURVE SMOOTH",
"509 313 OFFCURVE",
"407 372 OFFCURVE",
"332 407 CURVE SMOOTH",
"234 452 OFFCURVE",
"168 484 OFFCURVE",
"166 510 CURVE",
"179 564 OFFCURVE",
"225 608 OFFCURVE",
"264 627 CURVE",
"360 621 OFFCURVE",
"441 577 OFFCURVE",
"466 478 CURVE",
"480 484 OFFCURVE",
"496 490 OFFCURVE",
"509 497 CURVE",
"518 531 OFFCURVE",
"535 618 OFFCURVE",
"539 630 CURVE",
"468 710 OFFCURVE",
"310 734 OFFCURVE",
"184 683 CURVE SMOOTH"
);
}
);
};
layerId = "71FD7A9F-05F5-4D76-8D4F-547475A05E4C";
name = "Bold Italic";
paths = (
{
closed = 1;
nodes = (
"431 35 OFFCURVE",
"495 107 OFFCURVE",
"503 200 CURVE SMOOTH",
"511 313 OFFCURVE",
"389 372 OFFCURVE",
"323 404 CURVE SMOOTH",
"222 453 OFFCURVE",
"187 485 OFFCURVE",
"187 507 CURVE",
"199 555 OFFCURVE",
"236 612 OFFCURVE",
"271 620 CURVE",
"342 609 OFFCURVE",
"405 593 OFFCURVE",
"436 482 CURVE",
"479 492 LINE",
"486 521 OFFCURVE",
"498 608 OFFCURVE",
"505 636 CURVE",
"456 683 OFFCURVE",
"381 716 OFFCURVE",
"282 709 CURVE SMOOTH",
"164 701 OFFCURVE",
"67 625 OFFCURVE",
"57 496 CURVE SMOOTH",
"49 382 OFFCURVE",
"153 329 OFFCURVE",
"228 293 CURVE SMOOTH",
"326 246 OFFCURVE",
"372 209 OFFCURVE",
"373 188 CURVE",
"366 148 OFFCURVE",
"327 90 OFFCURVE",
"291 75 CURVE",
"195 82 OFFCURVE",
"116 114 OFFCURVE",
"91 210 CURVE",
"77 205 OFFCURVE",
"62 202 OFFCURVE",
"49 198 CURVE",
"40 164 OFFCURVE",
"26 77 OFFCURVE",
"22 65 CURVE",
"93 -15 OFFCURVE",
"248 -39 OFFCURVE",
"374 12 CURVE SMOOTH"
);
}
);
width = 522;
}
);
leftKerningGroup = I;
rightKerningGroup = I;
unicode = 0053;
},
{
glyphname = T;
lastChange = "2015-11-23 16:11:26 +0000";
layers = (
{
background = {
paths = (
{
closed = 1;
nodes = (
"172 700 LINE",
"164 653 LINE",
"210 644 LINE",
"223 605 OFFCURVE",
"216 484 OFFCURVE",
"212 426 CURVE SMOOTH",
"202 263 OFFCURVE",
"176 104 OFFCURVE",
"181 89 CURVE SMOOTH",
"184 74 OFFCURVE",
"218 58 OFFCURVE",
"241 50 CURVE",
"123 50 LINE",
"119 0 LINE",
"409 0 LINE",
"417 47 LINE",
"347 57 LINE",
"321 106 OFFCURVE",
"325 196 OFFCURVE",
"329 323 CURVE",
"440 317 LINE",
"452 271 LINE",
"494 275 LINE",
"497 296 OFFCURVE",
"502 403 OFFCURVE",
"493 403 CURVE SMOOTH",
"487 403 OFFCURVE",
"330 396 OFFCURVE",
"334 396 CURVE",
"344 533 OFFCURVE",
"353 566 OFFCURVE",
"364 616 CURVE",
"419 616 OFFCURVE",
"493 614 OFFCURVE",
"557 606 CURVE",
"587 537 LINE",
"637 547 LINE",
"617 699 LINE"
);
}
);
};
guideLines = (
{
position = "{410, 637}";
},
{
position = "{589, 535}";
}
);
layerId = "71FD7A9F-05F5-4D76-8D4F-547475A05E4C";
name = "Bold Italic";
paths = (
{
closed = 1;
nodes = (
"435 698 OFFCURVE",
"263 698 OFFCURVE",
"92 701 CURVE",
"63 538 LINE",
"112 527 LINE",
"130 599 OFFCURVE",
"166 609 OFFCURVE",
"262 609 CURVE",
"270 570 OFFCURVE",
"262 480 OFFCURVE",
"258 427 CURVE SMOOTH",
"250 319 OFFCURVE",
"218 103 OFFCURVE",
"221 88 CURVE",
"223 77 OFFCURVE",
"245 64 OFFCURVE",
"280 50 CURVE",
"162 50 LINE",
"158 0 LINE",
"451 0 LINE",
"454 47 LINE",
"398 55 LINE",
"365 111 OFFCURVE",
"376 296 OFFCURVE",
"392 443 CURVE SMOOTH",
"400 517 OFFCURVE",
"406 586 OFFCURVE",
"433 608 CURVE",
"466 608 OFFCURVE",
"515 603 OFFCURVE",
"549 597 CURVE",
"578 528 LINE",
"626 538 LINE",
"606 701 LINE"
);
}
);
width = 615;
}
);
leftKerningGroup = T;
rightKerningGroup = T;
unicode = 0054;
},
{
glyphname = U;
lastChange = "2015-11-23 19:50:53 +0000";
layers = (
{
anchors = (
{
name = bottom;
position = "{314, 0}";
},
{
name = ogonek;
position = "{584, 10}";
},
{
name = top;
position = "{358, 647}";
},
{
name = topright;
position = "{705, 700}";
}
);
background = {
paths = (
{
closed = 1;
nodes = (
"387 87 LINE",
"374 169 OFFCURVE",
"276 610 OFFCURVE",
"272 617 CURVE SMOOTH",
"265 628 OFFCURVE",
"248 642 OFFCURVE",
"225 650 CURVE",
"318 650 LINE",
"324 700 LINE",
"63 700 LINE",
"53 653 LINE",
"107 645 LINE",
"131 613 OFFCURVE",
"173 448 OFFCURVE",
"204 327 CURVE SMOOTH",
"231 220 OFFCURVE",
"268 44 OFFCURVE",
"280 0 CURVE"
);
}
);
};
guideLines = (
{
angle = 84;
position = "{74, 327}";
},
{
angle = 84;
position = "{341, 321}";
},
{
angle = 84;
position = "{613, 295}";
}
);
layerId = "71FD7A9F-05F5-4D76-8D4F-547475A05E4C";
name = "Bold Italic";
paths = (
{
closed = 1;
nodes = (
"439 652 LINE",
"496 643 LINE",
"505 571 OFFCURVE",
"492 433 OFFCURVE",
"473 255 CURVE SMOOTH",
"466 183 OFFCURVE",
"424 116 OFFCURVE",
"388 95 CURVE",
"283 84 OFFCURVE",
"249 134 OFFCURVE",
"230 209 CURVE SMOOTH",
"214 273 OFFCURVE",
"248 548 OFFCURVE",
"253 618 CURVE",
"248 628 OFFCURVE",
"219 648 OFFCURVE",
"205 650 CURVE",
"244 650 OFFCURVE",
"300 650 OFFCURVE",
"313 650 CURVE",
"318 699 LINE",
"62 700 LINE",
"53 653 LINE",
"106 641 LINE",
"94 485 OFFCURVE",
"84 380 OFFCURVE",
"79 271 CURVE SMOOTH",
"75 189 OFFCURVE",
"86 124 OFFCURVE",
"118 79 CURVE SMOOTH",
"179 -7 OFFCURVE",
"307 -37 OFFCURVE",
"415 11 CURVE SMOOTH",
"503 50 OFFCURVE",
"562 130 OFFCURVE",
"579 280 CURVE SMOOTH",
"593 404 OFFCURVE",
"597 505 OFFCURVE",
"608 572 CURVE SMOOTH",
"614 610 OFFCURVE",
"649 648 OFFCURVE",
"690 650 CURVE",
"695 700 LINE",
"448 701 LINE"
);
}
);
width = 677;
}
);
leftKerningGroup = I;
rightKerningGroup = U;
unicode = 0055;
},
{
glyphname = V;
lastChange = "2015-11-23 15:51:48 +0000";
layers = (
{
background = {
paths = (
{
closed = 1;
nodes = (
"699 193 LINE",
"669 344 OFFCURVE",
"614 594 OFFCURVE",
"612 605 CURVE SMOOTH",
"608 634 OFFCURVE",
"621 650 OFFCURVE",
"654 650 CURVE",
"659 700 LINE",
"416 700 LINE",
"407 653 LINE",
"454 643 LINE",
"495 519 OFFCURVE",
"553 278 OFFCURVE",
"619 0 CURVE",
"621 0 LINE",
"720 58 LINE"
);
},
{
closed = 1;
nodes = (
"463 424 OFFCURVE",
"420 304 OFFCURVE",
"377 193 CURVE",
"353 349 OFFCURVE",
"297 613 OFFCURVE",
"294 618 CURVE SMOOTH",
"288 629 OFFCURVE",
"278 641 OFFCURVE",
"256 651 CURVE",
"337 651 LINE",
"342 700 LINE",
"99 700 LINE",
"90 653 LINE",
"141 647 LINE",
"174 569 OFFCURVE",
"274 110 OFFCURVE",
"293 0 CURVE",
"398 0 LINE",
"568 511 LINE",
"501 538 LINE"
);
},
{
closed = 1;
nodes = (
"830 614 OFFCURVE",
"800 518 OFFCURVE",
"784 468 CURVE SMOOTH",
"666 87 OFFCURVE",
"665 75 OFFCURVE",
"619 0 CURVE",
"723 0 LINE",
"813 276 OFFCURVE",
"900 534 OFFCURVE",
"919 580 CURVE SMOOTH",
"944 640 OFFCURVE",
"983 650 OFFCURVE",
"1009 650 CURVE",
"1014 700 LINE",
"768 700 LINE",
"759 653 LINE",
"822 644 LINE"
);
}
);
};
layerId = "71FD7A9F-05F5-4D76-8D4F-547475A05E4C";
name = "Bold Italic";
paths = (
{
closed = 1;
nodes = (
"397 90 LINE",
"382 172 OFFCURVE",
"275 610 OFFCURVE",
"271 617 CURVE SMOOTH",
"263 628 OFFCURVE",
"246 642 OFFCURVE",
"223 650 CURVE",
"317 650 LINE",
"322 700 LINE",
"58 700 LINE",
"48 653 LINE",
"103 645 LINE",
"128 613 OFFCURVE",
"173 448 OFFCURVE",
"207 327 CURVE SMOOTH",
"236 220 OFFCURVE",
"277 44 OFFCURVE",
"290 0 CURVE"
);
},
{
closed = 1;
nodes = (
"523 608 OFFCURVE",
"476 463 OFFCURVE",
"457 412 CURVE SMOOTH",
"356 144 OFFCURVE",
"313 44 OFFCURVE",
"292 0 CURVE",
"404 0 LINE",
"493 270 OFFCURVE",
"598 545 OFFCURVE",
"617 592 CURVE SMOOTH",
"637 638 OFFCURVE",
"673 650 OFFCURVE",
"703 650 CURVE",
"708 700 LINE",
"454 700 LINE",
"445 653 LINE",
"513 640 LINE"
);
}
);
width = 675;
}
);
leftKerningGroup = V;
rightKerningGroup = V;
unicode = 0056;
},
{
glyphname = W;
lastChange = "2015-11-28 18:05:34 +0000";
layers = (
{
anchors = (
{
name = bottom;
position = "{450, 0}";
},
{
name = top;
position = "{496, 646}";
}
);
background = {
paths = (
{
closed = 1;
nodes = (
"373 87 LINE",
"356 169 OFFCURVE",
"247 610 OFFCURVE",
"243 617 CURVE SMOOTH",
"236 628 OFFCURVE",
"219 642 OFFCURVE",
"196 650 CURVE",
"288 650 LINE",
"293 700 LINE",
"37 700 LINE",
"29 653 LINE",
"83 645 LINE",
"107 613 OFFCURVE",
"155 448 OFFCURVE",
"190 327 CURVE SMOOTH",
"221 220 OFFCURVE",
"264 44 OFFCURVE",
"278 0 CURVE"
);
},
{
closed = 1;
nodes = (
"484 608 OFFCURVE",
"441 463 OFFCURVE",
"425 412 CURVE SMOOTH",
"343 144 OFFCURVE",
"300 44 OFFCURVE",
"280 0 CURVE",
"378 0 LINE",
"460 270 OFFCURVE",
"557 536 OFFCURVE",
"575 583 CURVE",
"445 678 LINE",
"446 665 LINE",
"407 653 LINE",
"474 640 LINE"
);
},
{
closed = 1;
nodes = (
"804 608 OFFCURVE",
"760 463 OFFCURVE",
"745 412 CURVE SMOOTH",
"666 144 OFFCURVE",
"624 44 OFFCURVE",
"604 0 CURVE",
"702 0 LINE",
"784 270 OFFCURVE",
"880 545 OFFCURVE",
"898 592 CURVE SMOOTH",
"916 638 OFFCURVE",
"951 650 OFFCURVE",
"981 650 CURVE",
"986 700 LINE",
"735 700 LINE",
"727 653 LINE",
"794 640 LINE"
);
},
{
closed = 1;
nodes = (
"671 394 LINE",
"630 478 OFFCURVE",
"595 521 OFFCURVE",
"585 574 CURVE SMOOTH",
"578 610 OFFCURVE",
"562 651 OFFCURVE",
"621 651 CURVE",
"626 700 LINE",
"373 700 LINE",
"364 653 LINE",
"411 643 LINE",
"484 505 OFFCURVE",
"539 388 OFFCURVE",
"570 321 CURVE"
);
}
);
};
guideLines = (
{
position = "{729, 211}";
}
);
layerId = "71FD7A9F-05F5-4D76-8D4F-547475A05E4C";
name = "Bold Italic";
paths = (
{
closed = 1;
nodes = (
"662 193 LINE",
"632 344 OFFCURVE",
"587 594 OFFCURVE",
"585 605 CURVE SMOOTH",
"581 634 OFFCURVE",
"594 650 OFFCURVE",
"627 650 CURVE",
"632 700 LINE",
"389 700 LINE",
"380 653 LINE",
"427 643 LINE",
"468 519 OFFCURVE",
"513 278 OFFCURVE",
"579 0 CURVE",
"581 0 LINE",
"683 58 LINE"
);
},
{
closed = 1;
nodes = (
"436 424 OFFCURVE",
"397 307 OFFCURVE",
"354 196 CURVE",
"325 352 OFFCURVE",
"262 613 OFFCURVE",
"259 618 CURVE SMOOTH",
"253 629 OFFCURVE",
"243 641 OFFCURVE",
"221 651 CURVE",
"302 651 LINE",
"307 700 LINE",
"57 700 LINE",
"48 653 LINE",
"99 647 LINE",
"132 569 OFFCURVE",
"243 110 OFFCURVE",
"262 0 CURVE",
"372 0 LINE",
"415 149 OFFCURVE",
"502 406 OFFCURVE",
"549 494 CURVE",
"467 538 LINE"
);
},
{
closed = 1;
nodes = (
"799 614 OFFCURVE",
"769 518 OFFCURVE",
"753 468 CURVE SMOOTH",
"629 87 OFFCURVE",
"625 75 OFFCURVE",
"579 0 CURVE",
"686 0 LINE",
"776 276 OFFCURVE",
"869 534 OFFCURVE",
"888 580 CURVE SMOOTH",
"913 640 OFFCURVE",
"952 650 OFFCURVE",
"978 650 CURVE",
"983 700 LINE",
"737 700 LINE",
"728 653 LINE",
"791 644 LINE"
);
}
);
width = 950;
}
);
leftKerningGroup = V;
leftMetricsKey = V;
rightKerningGroup = V;
rightMetricsKey = V;
unicode = 0057;
},
{
glyphname = X;
lastChange = "2015-11-23 14:21:24 +0000";
layers = (
{
background = {
paths = (
{
closed = 1;
nodes = (
"339 352 LINE",
"347 272 OFFCURVE",
"427 52 OFFCURVE",
"454 32 CURVE SMOOTH",
"463 25 OFFCURVE",
"535 -1 OFFCURVE",
"588 -1 CURVE",
"623 7 OFFCURVE",
"650 25 OFFCURVE",
"655 28 CURVE",
"650 74 LINE",
"630 66 OFFCURVE",
"616 65 OFFCURVE",
"605 63 CURVE",
"552 119 OFFCURVE",
"449 326 OFFCURVE",
"425 425 CURVE"
);
},
{
closed = 1;
nodes = (
"107 700 LINE",
"99 653 LINE",
"145 644 LINE",
"156 619 OFFCURVE",
"148 487 OFFCURVE",
"143 427 CURVE SMOOTH",
"131 292 OFFCURVE",
"104 104 OFFCURVE",
"107 88 CURVE SMOOTH",
"108 79 OFFCURVE",
"116 62 OFFCURVE",
"154 50 CURVE",
"47 50 LINE",
"43 0 LINE",
"324 0 LINE",
"331 47 LINE",
"275 55 LINE",
"240 114 OFFCURVE",
"259 286 OFFCURVE",
"270 408 CURVE SMOOTH",
"280 521 OFFCURVE",
"289 598 OFFCURVE",
"301 620 CURVE SMOOTH",
"313 640 OFFCURVE",
"330 648 OFFCURVE",
"353 650 CURVE",
"357 699 LINE"
);
},
{
closed = 1;
nodes = (
"476 584 OFFCURVE",
"330 400 OFFCURVE",
"251 312 CURVE",
"249 203 LINE",
"397 372 LINE",
"476 465 OFFCURVE",
"578 586 OFFCURVE",
"606 615 CURVE SMOOTH",
"630 639 OFFCURVE",
"654 650 OFFCURVE",
"681 650 CURVE",
"685 700 LINE",
"463 700 LINE",
"455 651 LINE",
"505 642 LINE"
);
}
);
};
guideLines = (
{
angle = -96;
position = "{653, 306}";
}
);
layerId = "71FD7A9F-05F5-4D76-8D4F-547475A05E4C";
name = "Bold Italic";
paths = (
{
closed = 1;
nodes = (
"288 346 LINE",
"328 252 OFFCURVE",
"386 130 OFFCURVE",
"408 82 CURVE SMOOTH",
"413 71 OFFCURVE",
"425 59 OFFCURVE",
"449 49 CURVE",
"367 49 LINE",
"363 0 LINE",
"633 0 LINE",
"641 47 LINE",
"590 55 LINE",
"519 158 OFFCURVE",
"431 326 OFFCURVE",
"388 411 CURVE"
);
},
{
closed = 1;
nodes = (
"468 562 OFFCURVE",
"391 460 OFFCURVE",
"349 410 CURVE",
"389 321 LINE",
"456 414 OFFCURVE",
"574 586 OFFCURVE",
"602 615 CURVE SMOOTH",
"627 639 OFFCURVE",
"651 650 OFFCURVE",
"679 650 CURVE",
"683 700 LINE",
"449 700 LINE",
"441 653 LINE",
"496 645 LINE"
);
},
{
closed = 1;
nodes = (
"220 113 OFFCURVE",
"308 241 OFFCURVE",
"339 291 CURVE",
"293 363 LINE",
"235 270 OFFCURVE",
"118 112 OFFCURVE",
"88 85 CURVE SMOOTH",
"59 61 OFFCURVE",
"35 50 OFFCURVE",
"8 50 CURVE",
"3 0 LINE",
"228 0 LINE",
"236 47 LINE",
"186 55 LINE"
);
},
{
closed = 1;
nodes = (
"381 402 LINE",
"338 486 OFFCURVE",
"318 521 OFFCURVE",
"297 574 CURVE SMOOTH",
"283 610 OFFCURVE",
"269 651 OFFCURVE",
"329 651 CURVE",
"333 700 LINE",
"76 700 LINE",
"68 653 LINE",
"115 643 LINE",
"192 505 OFFCURVE",
"249 396 OFFCURVE",
"282 329 CURVE"
);
}
);
width = 661;
}
);
leftKerningGroup = X;
rightKerningGroup = X;
unicode = 0058;
},
{
glyphname = Y;
lastChange = "2015-11-23 20:09:05 +0000";
layers = (
{
anchors = (
{
name = bottom;
position = "{289, 0}";
},
{
name = top;
position = "{352, 646}";
},
{
name = topleft;
position = "{68, 700}";
}
);
background = {
paths = (
{
closed = 1;
nodes = (
"268 341 LINE",
"305 247 OFFCURVE",
"351 130 OFFCURVE",
"373 82 CURVE SMOOTH",
"378 71 OFFCURVE",
"390 59 OFFCURVE",
"413 49 CURVE",
"333 49 LINE",
"328 0 LINE",
"594 0 LINE",
"599 47 LINE",
"552 55 LINE",
"484 158 OFFCURVE",
"409 318 OFFCURVE",
"367 403 CURVE"
);
},
{
closed = 1;
nodes = (
"446 562 OFFCURVE",
"363 446 OFFCURVE",
"321 396 CURVE",
"356 320 LINE",
"424 413 OFFCURVE",
"550 586 OFFCURVE",
"579 615 CURVE SMOOTH",
"603 639 OFFCURVE",
"627 650 OFFCURVE",
"654 650 CURVE",
"659 700 LINE",
"425 700 LINE",
"420 653 LINE",
"474 645 LINE"
);
},
{
closed = 1;
nodes = (
"203 113 OFFCURVE",
"292 257 OFFCURVE",
"323 307 CURVE",
"274 361 LINE",
"216 268 OFFCURVE",
"103 112 OFFCURVE",
"72 85 CURVE SMOOTH",
"44 61 OFFCURVE",
"20 50 OFFCURVE",
"-7 50 CURVE",
"-12 0 LINE",
"211 0 LINE",
"216 47 LINE",
"169 55 LINE"
);
},
{
closed = 1;
nodes = (
"360 394 LINE",
"319 478 OFFCURVE",
"297 521 OFFCURVE",
"278 574 CURVE SMOOTH",
"265 610 OFFCURVE",
"251 651 OFFCURVE",
"310 651 CURVE",
"315 700 LINE",
"58 700 LINE",
"53 653 LINE",
"100 643 LINE",
"173 505 OFFCURVE",
"228 388 OFFCURVE",
"259 321 CURVE"
);
}
);
};
layerId = "71FD7A9F-05F5-4D76-8D4F-547475A05E4C";
name = "Bold Italic";
paths = (
{
closed = 1;
nodes = (
"273 267 LINE",
"262 158 OFFCURVE",
"246 104 OFFCURVE",
"249 88 CURVE SMOOTH",
"250 79 OFFCURVE",
"258 62 OFFCURVE",
"296 50 CURVE",
"191 50 LINE",
"187 0 LINE",
"453 0 LINE",
"461 47 LINE",
"405 55 LINE",
"393 114 OFFCURVE",
"388 205 OFFCURVE",
"400 283 CURVE"
);
},
{
closed = 1;
nodes = (
"463 587 OFFCURVE",
"379 374 OFFCURVE",
"292 257 CURVE",
"369 209 LINE",
"416 302 OFFCURVE",
"553 586 OFFCURVE",
"581 615 CURVE SMOOTH",
"605 639 OFFCURVE",
"629 650 OFFCURVE",
"656 650 CURVE",
"661 700 LINE",
"448 700 LINE",
"439 653 LINE",
"489 645 LINE"
);
},
{
closed = 1;
nodes = (
"383 319 LINE",
"336 412 OFFCURVE",
"270 583 OFFCURVE",
"265 606 CURVE SMOOTH",
"260 628 OFFCURVE",
"265 651 OFFCURVE",
"306 651 CURVE",
"311 700 LINE",
"62 700 LINE",
"53 653 LINE",
"98 645 LINE",
"207 428 OFFCURVE",
"244 333 OFFCURVE",
"285 216 CURVE"
);
}
);
width = 628;
}
);
leftKerningGroup = V;
rightKerningGroup = V;
unicode = 0059;
},
{
glyphname = Z;
lastChange = "2015-11-23 13:51:34 +0000";
layers = (
{
background = {
paths = (
{
closed = 1;
nodes = (
"507 0 LINE",
"536 155 LINE",
"487 166 LINE",
"469 94 OFFCURVE",
"433 82 OFFCURVE",
"319 82 CURVE",
"311 121 OFFCURVE",
"319 220 OFFCURVE",
"323 273 CURVE SMOOTH",
"331 381 OFFCURVE",
"363 597 OFFCURVE",
"360 612 CURVE",
"358 623 OFFCURVE",
"336 636 OFFCURVE",
"301 650 CURVE",
"419 650 LINE",
"423 700 LINE",
"130 700 LINE",
"127 653 LINE",
"183 645 LINE",
"216 589 OFFCURVE",
"202 404 OFFCURVE",
"189 257 CURVE SMOOTH",
"181 174 OFFCURVE",
"175 105 OFFCURVE",
"148 83 CURVE",
"107 83 OFFCURVE",
"64 87 OFFCURVE",
"23 94 CURVE",
"-7 163 LINE",
"-54 153 LINE",
"-34 0 LINE"
);
}
);
};
layerId = "71FD7A9F-05F5-4D76-8D4F-547475A05E4C";
name = "Bold Italic";
paths = (
{
closed = 1;
nodes = (
"385 695 OFFCURVE",
"257 700 OFFCURVE",
"90 700 CURVE",
"55 522 LINE",
"100 512 LINE",
"114 557 OFFCURVE",
"153 572 OFFCURVE",
"251 579 CURVE SMOOTH",
"294 582 OFFCURVE",
"331 584 OFFCURVE",
"375 586 CURVE",
"349 528 OFFCURVE",
"327 487 OFFCURVE",
"253 353 CURVE",
"146 175 OFFCURVE",
"95 112 OFFCURVE",
"58 80 CURVE SMOOTH",
"41 65 OFFCURVE",
"28 55 OFFCURVE",
"17 50 CURVE",
"30 0 LINE",
"185 7 OFFCURVE",
"362 0 OFFCURVE",
"506 0 CURVE",
"540 181 LINE",
"493 189 LINE",
"459 121 LINE",
"391 115 OFFCURVE",
"273 111 OFFCURVE",
"206 111 CURVE",
"243 175 OFFCURVE",
"265 213 OFFCURVE",
"347 351 CURVE SMOOTH",
"429 489 OFFCURVE",
"488 600 OFFCURVE",
"517 624 CURVE SMOOTH",
"530 635 OFFCURVE",
"546 647 OFFCURVE",
"556 653 CURVE",
"540 700 LINE"
);
}
);
width = 571;
}
);
leftKerningGroup = X;
rightKerningGroup = X;
unicode = 005A;
},
{
glyphname = a;
lastChange = "2015-11-23 16:45:43 +0000";
layers = (
{
anchors = (
{
name = bottom;
position = "{227, 0}";
},
{
name = ogonek;
position = "{429, 10}";
},
{
name = top;
position = "{269, 480}";
}
);
background = {
paths = (
{
closed = 1;
nodes = (
"98 4 OFFCURVE",
"137 -5 OFFCURVE",
"172 -2 CURVE",
"219 39 OFFCURVE",
"244 70 OFFCURVE",
"288 131 CURVE",
"285 113 OFFCURVE",
"278 39 OFFCURVE",
"286 31 CURVE SMOOTH",
"298 19 OFFCURVE",
"430 -6 OFFCURVE",
"441 -1 CURVE",
"452 43 LINE",
"437 50 OFFCURVE",
"411 73 OFFCURVE",
"412 124 CURVE SMOOTH",
"413 182 OFFCURVE",
"426 333 OFFCURVE",
"439 423 CURVE SMOOTH",
"457 545 OFFCURVE",
"483 673 OFFCURVE",
"476 681 CURVE SMOOTH",
"464 691 OFFCURVE",
"328 740 OFFCURVE",
"315 730 CURVE",
"303 679 LINE",
"321 670 OFFCURVE",
"342 612 OFFCURVE",
"343 564 CURVE SMOOTH",
"344 523 OFFCURVE",
"342 499 OFFCURVE",
"338 450 CURVE",
"293 474 OFFCURVE",
"245 484 OFFCURVE",
"195 482 CURVE",
"23 432 OFFCURVE",
"-36 174 OFFCURVE",
"72 37 CURVE SMOOTH"
);
},
{
closed = 1;
nodes = (
"250 411 OFFCURVE",
"295 379 OFFCURVE",
"322 340 CURVE",
"306 251 LINE",
"279 194 OFFCURVE",
"201 114 OFFCURVE",
"196 109 CURVE",
"185 114 OFFCURVE",
"174 124 OFFCURVE",
"165 146 CURVE SMOOTH",
"132 228 OFFCURVE",
"136 365 OFFCURVE",
"214 415 CURVE"
);
}
);
};
guideLines = (
{
angle = -20;
position = "{399, 503}";
}
);
layerId = "71FD7A9F-05F5-4D76-8D4F-547475A05E4C";
name = "Bold Italic";
paths = (
{
closed = 1;
nodes = (
"261 77 OFFCURVE",
"295 147 OFFCURVE",
"303 153 CURVE",
"303 153 OFFCURVE",
"347 282 OFFCURVE",
"328 289 CURVE",
"312 254 OFFCURVE",
"248 157 OFFCURVE",
"196 110 CURVE",
"189 110 OFFCURVE",
"176 121 OFFCURVE",
"166 144 CURVE SMOOTH",
"127 239 OFFCURVE",
"143 371 OFFCURVE",
"213 414 CURVE",
"263 414 OFFCURVE",
"324 349 OFFCURVE",
"335 316 CURVE",
"335 316 OFFCURVE",
"382 357 OFFCURVE",
"382 413 CURVE",
"340 462 OFFCURVE",
"265 483 OFFCURVE",
"197 483 CURVE",
"23 433 OFFCURVE",
"-32 171 OFFCURVE",
"69 41 CURVE SMOOTH",
"100 1 OFFCURVE",
"133 -3 OFFCURVE",
"171 -3 CURVE"
);
},
{
closed = 1;
nodes = (
"430 5 OFFCURVE",
"456 17 OFFCURVE",
"472 28 CURVE",
"468 74 LINE",
"455 69 OFFCURVE",
"429 62 OFFCURVE",
"414 62 CURVE",
"386 91 OFFCURVE",
"430 322 OFFCURVE",
"438 352 CURVE SMOOTH",
"446 383 OFFCURVE",
"455 424 OFFCURVE",
"466 456 CURVE",
"454 467 OFFCURVE",
"433 475 OFFCURVE",
"420 479 CURVE SMOOTH",
"402 484 OFFCURVE",
"330 399 OFFCURVE",
"325 371 CURVE",
"320 364 OFFCURVE",
"319 362 OFFCURVE",
"317 347 CURVE SMOOTH",
"303 244 OFFCURVE",
"268 68 OFFCURVE",
"284 42 CURVE SMOOTH",
"294 26 OFFCURVE",
"351 -2 OFFCURVE",
"401 -1 CURVE"
);
}
);
width = 504;
}
);
leftKerningGroup = o;
leftMetricsKey = o;
rightKerningGroup = i;
rightMetricsKey = i;
unicode = 0061;
},
{
glyphname = ae;
lastChange = "2015-11-23 20:23:13 +0000";
layers = (
{
anchors = (
{
name = bottom;
position = "{453.775, 0}";
},
{
name = ogonek;
position = "{618.775, 10}";
},
{
name = top;
position = "{504.225, 480}";
}
);
layerId = "71FD7A9F-05F5-4D76-8D4F-547475A05E4C";
name = "Bold Italic";
paths = (
{
closed = 1;
nodes = (
"470 83 OFFCURVE",
"435 125 OFFCURVE",
"426 173 CURVE",
"589 156 OFFCURVE",
"703 260 OFFCURVE",
"669 393 CURVE SMOOTH",
"657 441 OFFCURVE",
"619 486 OFFCURVE",
"509 486 CURVE",
"452 475 OFFCURVE",
"408 451 OFFCURVE",
"376 418 CURVE",
"334 463 OFFCURVE",
"263 483 OFFCURVE",
"197 483 CURVE",
"23 433 OFFCURVE",
"-32 171 OFFCURVE",
"69 41 CURVE SMOOTH",
"100 1 OFFCURVE",
"133 -3 OFFCURVE",
"171 -3 CURVE",
"261 77 OFFCURVE",
"295 147 OFFCURVE",
"303 153 CURVE",
"306 164 LINE",
"325 22 OFFCURVE",
"428 -33 OFFCURVE",
"561 8 CURVE SMOOTH",
"607 22 OFFCURVE",
"629 43 OFFCURVE",
"638 53 CURVE",
"631 100 LINE",
"616 87 OFFCURVE",
"557 68 OFFCURVE",
"515 75 CURVE SMOOTH"
);
},
{
closed = 1;
nodes = (
"541 394 OFFCURVE",
"559 347 OFFCURVE",
"566 304 CURVE",
"563 287 OFFCURVE",
"497 221 OFFCURVE",
"419 229 CURVE",
"422 275 OFFCURVE",
"424 296 OFFCURVE",
"432 324 CURVE SMOOTH",
"443 363 OFFCURVE",
"465 395 OFFCURVE",
"497 416 CURVE"
);
},
{
closed = 1;
nodes = (
"189 110 OFFCURVE",
"176 121 OFFCURVE",
"166 144 CURVE SMOOTH",
"127 239 OFFCURVE",
"143 371 OFFCURVE",
"213 414 CURVE",
"252 414 OFFCURVE",
"296 373 OFFCURVE",
"319 340 CURVE",
"319 339 OFFCURVE",
"305 250 OFFCURVE",
"305 250 CURVE",
"277 200 OFFCURVE",
"234 145 OFFCURVE",
"196 110 CURVE"
);
}
);
width = 916;
}
);
unicode = 00E6;
},
{
glyphname = b;
lastChange = "2015-11-23 19:40:41 +0000";
layers = (
{
anchors = (
{
name = bottom;
position = "{215, 0}";
},
{
name = top;
position = "{265, 480}";
}
);
background = {
paths = (
{
closed = 1;
nodes = (
"357 483 LINE",
"277 437 OFFCURVE",
"206 307 OFFCURVE",
"185 276 CURVE",
"208 457 OFFCURVE",
"251 689 OFFCURVE",
"230 708 CURVE SMOOTH",
"218 719 OFFCURVE",
"88 747 OFFCURVE",
"68 740 CURVE",
"58 698 LINE",
"100 668 LINE",
"103 619 OFFCURVE",
"96 479 OFFCURVE",
"81 353 CURVE SMOOTH",
"65 217 OFFCURVE",
"40 43 OFFCURVE",
"38 32 CURVE",
"38 20 OFFCURVE",
"115 -5 OFFCURVE",
"163 -5 CURVE SMOOTH",
"178 -5 OFFCURVE",
"180 41 OFFCURVE",
"173 132 CURVE",
"215 236 OFFCURVE",
"295 334 OFFCURVE",
"323 360 CURVE",
"295 255 OFFCURVE",
"275 75 OFFCURVE",
"294 44 CURVE SMOOTH",
"304 28 OFFCURVE",
"356 -2 OFFCURVE",
"410 -2 CURVE",
"442 7 OFFCURVE",
"461 17 OFFCURVE",
"473 25 CURVE",
"469 70 LINE",
"455 65 OFFCURVE",
"434 59 OFFCURVE",
"419 59 CURVE",
"399 124 OFFCURVE",
"440 371 OFFCURVE",
"460 444 CURVE"
);
}
);
};
guideLines = (
{
angle = -12;
position = "{186, 724}";
},
{
angle = -20;
position = "{24, -2}";
}
);
layerId = "71FD7A9F-05F5-4D76-8D4F-547475A05E4C";
name = "Bold Italic";
paths = (
{
closed = 1;
nodes = (
"372 480 OFFCURVE",
"348 482 OFFCURVE",
"309 480 CURVE",
"276 455 OFFCURVE",
"218 381 OFFCURVE",
"194 347 CURVE",
"223 543 OFFCURVE",
"244 685 OFFCURVE",
"231 706 CURVE SMOOTH",
"223 719 OFFCURVE",
"81 747 OFFCURVE",
"68 740 CURVE",
"58 698 LINE",
"65 694 OFFCURVE",
"87 679 OFFCURVE",
"101 667 CURVE",
"103 648 OFFCURVE",
"102 606 OFFCURVE",
"100 569 CURVE SMOOTH",
"91 420 OFFCURVE",
"59 157 OFFCURVE",
"35 18 CURVE",
"42 11 OFFCURVE",
"62 4 OFFCURVE",
"83 -1 CURVE SMOOTH",
"95 -4 OFFCURVE",
"102 6 OFFCURVE",
"119 42 CURVE",
"154 17 OFFCURVE",
"223 -11 OFFCURVE",
"287 -4 CURVE",
"463 45 OFFCURVE",
"512 312 OFFCURVE",
"404 442 CURVE SMOOTH"
);
},
{
closed = 1;
nodes = (
"267 63 LINE SMOOTH",
"267 63 OFFCURVE",
"214 68 OFFCURVE",
"161 137 CURVE",
"178 232 LINE",
"211 290 OFFCURVE",
"268 351 OFFCURVE",
"286 368 CURVE",
"293 368 OFFCURVE",
"309 354 OFFCURVE",
"318 329 CURVE SMOOTH",
"348 247 OFFCURVE",
"346 106 OFFCURVE",
"267 63 CURVE"
);
}
);
width = 480;
}
);
leftKerningGroup = l;
leftMetricsKey = l;
rightKerningGroup = o;
rightMetricsKey = o;
unicode = 0062;
},
{
glyphname = c;
lastChange = "2015-11-23 19:44:40 +0000";
layers = (
{
anchors = (
{
name = bottom;
position = "{192, 0}";
},
{
name = top;
position = "{222, 480}";
}
);
background = {
paths = (
{
closed = 1;
nodes = (
"372 459 OFFCURVE",
"323 503 OFFCURVE",
"214 481 CURVE SMOOTH",
"28 443 OFFCURVE",
"-36 183 OFFCURVE",
"66 58 CURVE SMOOTH",
"113 0 OFFCURVE",
"186 -22 OFFCURVE",
"270 6 CURVE SMOOTH",
"458 69 OFFCURVE",
"486 316 OFFCURVE",
"402 421 CURVE SMOOTH"
);
},
{
closed = 1;
nodes = (
"202 74 OFFCURVE",
"175 91 OFFCURVE",
"154 142 CURVE SMOOTH",
"117 233 OFFCURVE",
"146 365 OFFCURVE",
"222 407 CURVE",
"258 407 OFFCURVE",
"287 396 OFFCURVE",
"309 345 CURVE SMOOTH",
"346 260 OFFCURVE",
"327 125 OFFCURVE",
"243 74 CURVE"
);
}
);
};
layerId = "71FD7A9F-05F5-4D76-8D4F-547475A05E4C";
name = "Bold Italic";
paths = (
{
closed = 1;
nodes = (
"292 357 OFFCURVE",
"235 384 OFFCURVE",
"207 396 CURVE",
"136 343 OFFCURVE",
"127 215 OFFCURVE",
"159 145 CURVE SMOOTH",
"175 110 OFFCURVE",
"207 79 OFFCURVE",
"244 76 CURVE SMOOTH",
"300 72 OFFCURVE",
"339 91 OFFCURVE",
"357 100 CURVE",
"363 50 LINE",
"335 30 OFFCURVE",
"300 5 OFFCURVE",
"221 -2 CURVE",
"155 -6 OFFCURVE",
"109 13 OFFCURVE",
"69 57 CURVE",
"-33 169 OFFCURVE",
"23 459 OFFCURVE",
"221 483 CURVE",
"289 488 OFFCURVE",
"359 471 OFFCURVE",
"393 430 CURVE",
"382 394 OFFCURVE",
"355 344 OFFCURVE",
"336 321 CURVE"
);
}
);
width = 393;
}
);
leftKerningGroup = o;
leftMetricsKey = o;
rightKerningGroup = z;
unicode = 0063;
},
{
glyphname = d;
lastChange = "2015-11-23 19:40:41 +0000";
layers = (
{
anchors = (
{
name = bottom;
position = "{227, 0}";
},
{
name = center;
position = "{252, 240}";
},
{
name = top;
position = "{277, 480}";
},
{
name = topright;
position = "{508, 480}";
}
);
background = {
paths = (
{
closed = 1;
nodes = (
"597 483 LINE",
"517 437 OFFCURVE",
"446 307 OFFCURVE",
"425 276 CURVE",
"448 457 OFFCURVE",
"491 689 OFFCURVE",
"470 708 CURVE SMOOTH",
"458 719 OFFCURVE",
"333 747 OFFCURVE",
"313 740 CURVE",
"303 698 LINE",
"345 668 LINE",
"348 619 OFFCURVE",
"338 479 OFFCURVE",
"323 353 CURVE SMOOTH",
"307 217 OFFCURVE",
"280 45 OFFCURVE",
"278 34 CURVE",
"278 22 OFFCURVE",
"354 -3 OFFCURVE",
"402 -3 CURVE SMOOTH",
"417 -3 OFFCURVE",
"419 43 OFFCURVE",
"412 132 CURVE",
"454 236 OFFCURVE",
"535 334 OFFCURVE",
"563 360 CURVE",
"535 255 OFFCURVE",
"515 75 OFFCURVE",
"534 44 CURVE SMOOTH",
"544 28 OFFCURVE",
"596 -2 OFFCURVE",
"650 -2 CURVE",
"682 7 OFFCURVE",
"701 17 OFFCURVE",
"713 25 CURVE",
"709 70 LINE",
"695 65 OFFCURVE",
"674 59 OFFCURVE",
"659 59 CURVE",
"639 124 OFFCURVE",
"680 371 OFFCURVE",
"700 444 CURVE"
);
}
);
};
guideLines = (
{
position = "{311, 410}";
},
{
angle = -18;
position = "{510, 111}";
},
{
position = "{1178, 374}";
}
);
layerId = "71FD7A9F-05F5-4D76-8D4F-547475A05E4C";
name = "Bold Italic";
paths = (
{
closed = 1;
nodes = (
"249 63 OFFCURVE",
"305 159 OFFCURVE",
"312 167 CURVE",
"312 167 OFFCURVE",
"330 254 OFFCURVE",
"311 261 CURVE",
"293 216 OFFCURVE",
"216 128 OFFCURVE",
"197 111 CURVE",
"190 111 OFFCURVE",
"171 130 OFFCURVE",
"161 160 CURVE SMOOTH",
"134 240 OFFCURVE",
"141 374 OFFCURVE",
"216 417 CURVE",
"263 410 OFFCURVE",
"315 364 OFFCURVE",
"330 328 CURVE",
"330 328 OFFCURVE",
"385 359 OFFCURVE",
"385 415 CURVE",
"354 456 OFFCURVE",
"273 488 OFFCURVE",
"196 484 CURVE",
"22 434 OFFCURVE",
"-34 171 OFFCURVE",
"72 41 CURVE SMOOTH",
"104 2 OFFCURVE",
"134 0 OFFCURVE",
"172 0 CURVE"
);
},
{
closed = 1;
nodes = (
"433 5 OFFCURVE",
"453 15 OFFCURVE",
"471 28 CURVE",
"467 74 LINE",
"452 69 OFFCURVE",
"427 62 OFFCURVE",
"416 62 CURVE",
"393 88 OFFCURVE",
"421 265 OFFCURVE",
"445 432 CURVE SMOOTH",
"458 521 OFFCURVE",
"486 684 OFFCURVE",
"471 707 CURVE SMOOTH",
"464 717 OFFCURVE",
"330 748 OFFCURVE",
"315 740 CURVE",
"305 698 LINE",
"321 688 OFFCURVE",
"331 680 OFFCURVE",
"347 668 CURVE",
"350 607 OFFCURVE",
"336 442 OFFCURVE",
"320 326 CURVE SMOOTH",
"307 235 OFFCURVE",
"271 58 OFFCURVE",
"294 40 CURVE SMOOTH",
"302 34 OFFCURVE",
"353 -2 OFFCURVE",
"408 -2 CURVE"
);
}
);
width = 503;
}
);
leftKerningGroup = o;
leftMetricsKey = o;
rightKerningGroup = i;
rightMetricsKey = i;
unicode = 0064;
},
{
glyphname = e;
lastChange = "2015-11-23 20:38:50 +0000";
layers = (
{
anchors = (
{
name = bottom;
position = "{181, 0}";
},
{
name = ogonek;
position = "{346, 10}";
},
{
name = top;
position = "{231, 480}";
}
);
background = {
paths = (
{
closed = 1;
nodes = (
"292 357 OFFCURVE",
"253 381 OFFCURVE",
"225 393 CURVE",
"144 346 OFFCURVE",
"129 216 OFFCURVE",
"161 146 CURVE SMOOTH",
"177 111 OFFCURVE",
"207 79 OFFCURVE",
"244 76 CURVE SMOOTH",
"300 72 OFFCURVE",
"339 91 OFFCURVE",
"357 100 CURVE",
"363 50 LINE",
"335 30 OFFCURVE",
"300 5 OFFCURVE",
"221 -2 CURVE",
"155 -6 OFFCURVE",
"109 13 OFFCURVE",
"69 57 CURVE",
"-33 169 OFFCURVE",
"23 459 OFFCURVE",
"221 483 CURVE",
"289 488 OFFCURVE",
"359 471 OFFCURVE",
"393 430 CURVE",
"382 394 OFFCURVE",
"355 344 OFFCURVE",
"336 321 CURVE"
);
}
);
};
layerId = "71FD7A9F-05F5-4D76-8D4F-547475A05E4C";
name = "Bold Italic";
paths = (
{
closed = 1;
nodes = (
"290 287 OFFCURVE",
"222 219 OFFCURVE",
"143 229 CURVE",
"96 206 OFFCURVE",
"80 206 OFFCURVE",
"140 174 CURVE",
"310 151 OFFCURVE",
"431 257 OFFCURVE",
"396 393 CURVE SMOOTH",
"384 441 OFFCURVE",
"346 486 OFFCURVE",
"236 486 CURVE",
"12 445 OFFCURVE",
"-33 167 OFFCURVE",
"75 51 CURVE SMOOTH",
"136 -15 OFFCURVE",
"230 -10 OFFCURVE",
"288 8 CURVE SMOOTH",
"334 22 OFFCURVE",
"356 43 OFFCURVE",
"365 53 CURVE",
"358 100 LINE",
"343 87 OFFCURVE",
"284 68 OFFCURVE",
"242 75 CURVE SMOOTH",
"207 81 OFFCURVE",
"179 105 OFFCURVE",
"162 144 CURVE SMOOTH",
"131 216 OFFCURVE",
"140 362 OFFCURVE",
"224 416 CURVE",
"268 394 OFFCURVE",
"286 347 OFFCURVE",
"293 304 CURVE"
);
}
);
width = 412;
}
);
leftKerningGroup = o;
leftMetricsKey = o;
rightKerningGroup = o;
rightMetricsKey = o;
unicode = 0065;
},
{
glyphname = f;
lastChange = "2015-11-23 19:40:41 +0000";
layers = (
{
anchors = (
{
name = bottom;
position = "{116, 0}";
},
{
name = top;
position = "{166, 480}";
}
);
background = {
paths = (
{
closed = 1;
nodes = (
"109 -217 OFFCURVE",
"137 -133 OFFCURVE",
"153 13 CURVE SMOOTH",
"161 87 OFFCURVE",
"189 343 OFFCURVE",
"193 390 CURVE",
"224 594 OFFCURVE",
"247 638 OFFCURVE",
"278 679 CURVE",
"290 679 OFFCURVE",
"318 671 OFFCURVE",
"342 657 CURVE",
"359 701 LINE",
"335 721 OFFCURVE",
"297 737 OFFCURVE",
"263 743 CURVE",
"156 717 OFFCURVE",
"107 654 OFFCURVE",
"93 494 CURVE SMOOTH",
"57 90 LINE",
"31 -114 OFFCURVE",
"11 -165 OFFCURVE",
"-4 -185 CURVE",
"-18 -183 OFFCURVE",
"-69 -136 OFFCURVE",
"-106 -106 CURVE",
"-128 -136 OFFCURVE",
"-142 -173 OFFCURVE",
"-150 -202 CURVE",
"-118 -232 OFFCURVE",
"-61 -248 OFFCURVE",
"0 -247 CURVE"
);
}
);
};
layerId = "71FD7A9F-05F5-4D76-8D4F-547475A05E4C";
name = "Bold Italic";
paths = (
{
closed = 1;
nodes = (
"172 400 LINE",
"220 399 OFFCURVE",
"273 398 OFFCURVE",
"295 398 CURVE SMOOTH",
"306 398 OFFCURVE",
"307 414 OFFCURVE",
"315 478 CURVE",
"266 475 OFFCURVE",
"218 474 OFFCURVE",
"201 473 CURVE",
"109 572 LINE",
"91 491 LINE",
"88 470 OFFCURVE",
"79 468 OFFCURVE",
"49 466 CURVE SMOOTH",
"34 465 LINE",
"27 401 LINE",
"31 401 OFFCURVE",
"75 401 OFFCURVE",
"90 401 CURVE"
);
},
{
closed = 1;
nodes = (
"142 710 OFFCURVE",
"106 626 OFFCURVE",
"90 480 CURVE SMOOTH",
"82 406 OFFCURVE",
"66 261 OFFCURVE",
"51 103 CURVE",
"32 -65 OFFCURVE",
"20 -142 OFFCURVE",
"-11 -183 CURVE",
"-39 -169 OFFCURVE",
"-85 -127 OFFCURVE",
"-111 -103 CURVE",
"-129 -135 OFFCURVE",
"-145 -164 OFFCURVE",
"-156 -202 CURVE",
"-136 -232 OFFCURVE",
"-59 -252 OFFCURVE",
"-12 -250 CURVE",
"82 -228 OFFCURVE",
"136 -161 OFFCURVE",
"152 -1 CURVE SMOOTH",
"193 403 LINE",
"217 601 OFFCURVE",
"234 642 OFFCURVE",
"254 672 CURVE",
"268 670 OFFCURVE",
"319 623 OFFCURVE",
"356 593 CURVE",
"374 624 OFFCURVE",
"390 661 OFFCURVE",
"400 695 CURVE",
"368 725 OFFCURVE",
"312 741 OFFCURVE",
"251 740 CURVE"
);
}
);
width = 282;
}
);
leftKerningGroup = f;
rightKerningGroup = f;
unicode = 0066;
},
{
glyphname = g;
lastChange = "2015-11-23 19:40:41 +0000";
layers = (
{
anchors = (
{
name = bottom;
position = "{210, 0}";
},
{
name = top;
position = "{260, 480}";
}
);
background = {
paths = (
{
closed = 1;
nodes = (
"266 77 OFFCURVE",
"300 147 OFFCURVE",
"308 153 CURVE",
"308 153 OFFCURVE",
"352 282 OFFCURVE",
"333 289 CURVE",
"317 254 OFFCURVE",
"253 157 OFFCURVE",
"201 110 CURVE",
"194 110 OFFCURVE",
"181 121 OFFCURVE",
"171 144 CURVE SMOOTH",
"132 239 OFFCURVE",
"148 371 OFFCURVE",
"218 414 CURVE",
"268 414 OFFCURVE",
"329 349 OFFCURVE",
"340 316 CURVE",
"340 316 OFFCURVE",
"387 357 OFFCURVE",
"387 413 CURVE",
"345 462 OFFCURVE",
"270 483 OFFCURVE",
"202 483 CURVE",
"28 433 OFFCURVE",
"-27 171 OFFCURVE",
"74 41 CURVE SMOOTH",
"105 1 OFFCURVE",
"138 -3 OFFCURVE",
"176 -3 CURVE"
);
},
{
closed = 1;
nodes = (
"430 5 OFFCURVE",
"456 17 OFFCURVE",
"472 28 CURVE",
"468 74 LINE",
"455 69 OFFCURVE",
"429 62 OFFCURVE",
"414 62 CURVE",
"386 91 OFFCURVE",
"430 322 OFFCURVE",
"438 352 CURVE SMOOTH",
"446 383 OFFCURVE",
"455 424 OFFCURVE",
"466 456 CURVE",
"454 467 OFFCURVE",
"433 475 OFFCURVE",
"420 479 CURVE SMOOTH",
"402 484 OFFCURVE",
"335 399 OFFCURVE",
"330 371 CURVE",
"325 364 OFFCURVE",
"323 362 OFFCURVE",
"322 347 CURVE SMOOTH",
"315 243 OFFCURVE",
"274 68 OFFCURVE",
"290 42 CURVE SMOOTH",
"300 26 OFFCURVE",
"351 -2 OFFCURVE",
"401 -1 CURVE"
);
},
{
closed = 1;
nodes = (
"381 710 OFFCURVE",
"345 626 OFFCURVE",
"329 480 CURVE SMOOTH",
"321 406 OFFCURVE",
"305 261 OFFCURVE",
"290 103 CURVE",
"271 -65 OFFCURVE",
"259 -142 OFFCURVE",
"228 -183 CURVE",
"200 -169 OFFCURVE",
"154 -127 OFFCURVE",
"128 -103 CURVE",
"110 -135 OFFCURVE",
"94 -164 OFFCURVE",
"83 -202 CURVE",
"103 -232 OFFCURVE",
"180 -252 OFFCURVE",
"227 -250 CURVE",
"321 -228 OFFCURVE",
"375 -161 OFFCURVE",
"391 -1 CURVE SMOOTH",
"432 403 LINE",
"456 601 OFFCURVE",
"473 642 OFFCURVE",
"493 672 CURVE",
"507 670 OFFCURVE",
"558 623 OFFCURVE",
"595 593 CURVE",
"613 624 OFFCURVE",
"629 661 OFFCURVE",
"639 695 CURVE",
"607 725 OFFCURVE",
"551 741 OFFCURVE",
"490 740 CURVE"
);
}
);
};
layerId = "71FD7A9F-05F5-4D76-8D4F-547475A05E4C";
name = "Bold Italic";
paths = (
{
closed = 1;
nodes = (
"408 482 OFFCURVE",
"386 459 OFFCURVE",
"367 433 CURVE",
"324 468 OFFCURVE",
"261 483 OFFCURVE",
"203 483 CURVE",
"29 433 OFFCURVE",
"-30 170 OFFCURVE",
"71 40 CURVE SMOOTH",
"83 24 OFFCURVE",
"106 13 OFFCURVE",
"119 13 CURVE",
"103 -1 OFFCURVE",
"67 -34 OFFCURVE",
"43 -54 CURVE SMOOTH",
"22 -71 OFFCURVE",
"-19 -95 OFFCURVE",
"-40 -108 CURVE",
"-38 -156 LINE",
"-30 -166 OFFCURVE",
"-20 -175 OFFCURVE",
"-14 -180 CURVE SMOOTH",
"10 -200 OFFCURVE",
"88 -253 OFFCURVE",
"231 -253 CURVE",
"340 -222 OFFCURVE",
"392 -140 OFFCURVE",
"398 70 CURVE SMOOTH",
"400 134 OFFCURVE",
"412 240 OFFCURVE",
"437 352 CURVE SMOOTH",
"444 383 OFFCURVE",
"453 424 OFFCURVE",
"463 456 CURVE",
"451 467 OFFCURVE",
"430 475 OFFCURVE",
"417 479 CURVE SMOOTH"
);
},
{
closed = 1;
nodes = (
"129 238 OFFCURVE",
"149 371 OFFCURVE",
"219 414 CURVE",
"255 414 OFFCURVE",
"297 380 OFFCURVE",
"321 349 CURVE",
"321 347 LINE",
"320 324 OFFCURVE",
"315 282 OFFCURVE",
"311 238 CURVE",
"293 210 OFFCURVE",
"221 122 OFFCURVE",
"203 106 CURVE",
"194 106 OFFCURVE",
"178 120 OFFCURVE",
"168 143 CURVE SMOOTH"
);
},
{
closed = 1;
nodes = (
"120 -58 OFFCURVE",
"174 -3 OFFCURVE",
"289 113 CURVE",
"278 -117 OFFCURVE",
"248 -163 OFFCURVE",
"232 -186 CURVE",
"206 -177 OFFCURVE",
"117 -137 OFFCURVE",
"84 -102 CURVE"
);
}
);
width = 470;
}
);
leftKerningGroup = o;
rightKerningGroup = g;
unicode = 0067;
},
{
glyphname = h;
lastChange = "2015-11-23 19:40:41 +0000";
layers = (
{
anchors = (
{
name = bottom;
position = "{230, 0}";
},
{
name = center;
position = "{255, 240}";
},
{
name = top;
position = "{280, 480}";
}
);
background = {
paths = (
{
closed = 1;
nodes = (
"206 -2 OFFCURVE",
"233 37 OFFCURVE",
"249 85 CURVE",
"252 97 OFFCURVE",
"238 99 OFFCURVE",
"222 105 CURVE SMOOTH",
"216 107 OFFCURVE",
"213 104 OFFCURVE",
"210 97 CURVE SMOOTH",
"200 74 OFFCURVE",
"192 64 OFFCURVE",
"184 64 CURVE SMOOTH",
"176 64 OFFCURVE",
"161 81 OFFCURVE",
"160 127 CURVE SMOOTH",
"159 183 OFFCURVE",
"175 300 OFFCURVE",
"192 432 CURVE SMOOTH",
"203 521 OFFCURVE",
"235 675 OFFCURVE",
"222 698 CURVE SMOOTH",
"213 711 OFFCURVE",
"69 746 OFFCURVE",
"57 739 CURVE",
"57 739 OFFCURVE",
"34 702 OFFCURVE",
"52 695 CURVE SMOOTH",
"79 685 OFFCURVE",
"90 637 OFFCURVE",
"88 559 CURVE SMOOTH",
"86 493 OFFCURVE",
"80 442 OFFCURVE",
"65 326 CURVE SMOOTH",
"53 234 OFFCURVE",
"21 54 OFFCURVE",
"45 36 CURVE SMOOTH",
"53 30 OFFCURVE",
"110 -7 OFFCURVE",
"167 -4 CURVE SMOOTH"
);
}
);
};
layerId = "71FD7A9F-05F5-4D76-8D4F-547475A05E4C";
name = "Bold Italic";
paths = (
{
closed = 1;
nodes = (
"361 483 LINE",
"281 437 OFFCURVE",
"206 307 OFFCURVE",
"185 276 CURVE",
"208 457 OFFCURVE",
"251 689 OFFCURVE",
"230 708 CURVE SMOOTH",
"218 719 OFFCURVE",
"88 747 OFFCURVE",
"68 740 CURVE",
"58 698 LINE",
"100 668 LINE",
"103 619 OFFCURVE",
"96 479 OFFCURVE",
"81 353 CURVE SMOOTH",
"65 217 OFFCURVE",
"40 43 OFFCURVE",
"38 32 CURVE",
"38 20 OFFCURVE",
"115 -5 OFFCURVE",
"163 -5 CURVE SMOOTH",
"178 -5 OFFCURVE",
"180 41 OFFCURVE",
"173 132 CURVE",
"215 236 OFFCURVE",
"299 334 OFFCURVE",
"327 360 CURVE",
"299 255 OFFCURVE",
"279 75 OFFCURVE",
"298 44 CURVE SMOOTH",
"308 28 OFFCURVE",
"360 -2 OFFCURVE",
"414 -2 CURVE",
"446 7 OFFCURVE",
"465 17 OFFCURVE",
"477 25 CURVE",
"473 70 LINE",
"459 65 OFFCURVE",
"438 59 OFFCURVE",
"423 59 CURVE",
"403 124 OFFCURVE",
"444 371 OFFCURVE",
"464 444 CURVE"
);
}
);
width = 510;
}
);
leftKerningGroup = l;
leftMetricsKey = l;
rightKerningGroup = i;
rightMetricsKey = i;
unicode = 0068;
},
{
glyphname = i;
lastChange = "2015-11-28 17:56:24 +0000";
layers = (
{
anchors = (
{
name = bottom;
position = "{104, 0}";
}
);
background = {
paths = (
{
closed = 1;
nodes = (
"199 461 OFFCURVE",
"133 479 OFFCURVE",
"85 479 CURVE",
"64 471 OFFCURVE",
"78 317 OFFCURVE",
"80 309 CURVE",
"70 270 OFFCURVE",
"49 159 OFFCURVE",
"46 112 CURVE SMOOTH",
"40 27 OFFCURVE",
"84 0 OFFCURVE",
"156 0 CURVE",
"195 8 OFFCURVE",
"216 21 OFFCURVE",
"228 30 CURVE",
"224 83 LINE",
"210 76 OFFCURVE",
"184 68 OFFCURVE",
"168 68 CURVE",
"153 122 OFFCURVE",
"196 379 OFFCURVE",
"213 444 CURVE"
);
}
);
};
components = (
{
name = idotless;
}
);
guideLines = (
{
angle = -20;
position = "{81, 30}";
}
);
layerId = "71FD7A9F-05F5-4D76-8D4F-547475A05E4C";
name = "Bold Italic";
paths = (
{
closed = 1;
nodes = (
"202 573 OFFCURVE",
"230 602 OFFCURVE",
"233 644 CURVE SMOOTH",
"236 687 OFFCURVE",
"212 714 OFFCURVE",
"170 716 CURVE SMOOTH",
"127 718 OFFCURVE",
"99 691 OFFCURVE",
"96 648 CURVE SMOOTH",
"94 606 OFFCURVE",
"117 579 OFFCURVE",
"160 576 CURVE SMOOTH"
);
}
);
width = 258;
}
);
leftKerningGroup = i;
rightKerningGroup = i;
unicode = 0069;
},
{
glyphname = idotless;
lastChange = "2015-11-28 17:39:03 +0000";
layers = (
{
anchors = (
{
name = bottom;
position = "{104, 0}";
},
{
name = ogonek;
position = "{207, 10}";
},
{
name = top;
position = "{135, 480}";
}
);
layerId = "71FD7A9F-05F5-4D76-8D4F-547475A05E4C";
name = "Bold Italic";
paths = (
{
closed = 1;
nodes = (
"75 485 OFFCURVE",
"193 467 OFFCURVE",
"211 454 CURVE",
"209 437 OFFCURVE",
"150 122 OFFCURVE",
"169 60 CURVE",
"184 60 OFFCURVE",
"206 67 OFFCURVE",
"222 72 CURVE",
"226 26 LINE",
"210 14 OFFCURVE",
"178 -1 OFFCURVE",
"160 -4 CURVE",
"110 -5 OFFCURVE",
"73 11 OFFCURVE",
"51 27 CURVE SMOOTH",
"24 47 OFFCURVE",
"70 315 OFFCURVE",
"84 410 CURVE",
"42 437 LINE",
"55 480 LINE"
);
}
);
width = 258;
}
);
unicode = 0131;
},
{
glyphname = j;
lastChange = "2015-11-28 17:56:15 +0000";
layers = (
{
background = {
paths = (
{
closed = 1;
nodes = (
"65 481 OFFCURVE",
"177 463 OFFCURVE",
"195 450 CURVE",
"193 433 OFFCURVE",
"135 122 OFFCURVE",
"154 60 CURVE",
"169 60 OFFCURVE",
"192 67 OFFCURVE",
"208 72 CURVE",
"212 26 LINE",
"196 14 OFFCURVE",
"163 -1 OFFCURVE",
"145 -4 CURVE",
"99 -5 OFFCURVE",
"64 11 OFFCURVE",
"42 27 CURVE SMOOTH",
"15 47 OFFCURVE",
"56 311 OFFCURVE",
"74 406 CURVE",
"32 433 LINE",
"45 476 LINE"
);
}
);
};
components = (
{
name = jdotless;
}
);
guideLines = (
{
alignment = center;
angle = -12;
position = "{223, 497}";
},
{
angle = -103;
position = "{12, 345}";
}
);
layerId = "71FD7A9F-05F5-4D76-8D4F-547475A05E4C";
name = "Bold Italic";
paths = (
{
closed = 1;
nodes = (
"191 573 OFFCURVE",
"219 602 OFFCURVE",
"222 644 CURVE SMOOTH",
"225 687 OFFCURVE",
"201 714 OFFCURVE",
"159 716 CURVE SMOOTH",
"116 718 OFFCURVE",
"88 691 OFFCURVE",
"85 648 CURVE SMOOTH",
"83 606 OFFCURVE",
"106 579 OFFCURVE",
"149 576 CURVE SMOOTH"
);
}
);
width = 237;
}
);
leftKerningGroup = j;
rightKerningGroup = g;
rightMetricsKey = "=g+25";
unicode = 006A;
},
{
glyphname = jdotless;
lastChange = "2015-11-23 20:41:39 +0000";
layers = (
{
layerId = "71FD7A9F-05F5-4D76-8D4F-547475A05E4C";
name = "Bold Italic";
paths = (
{
closed = 1;
nodes = (
"163 472 OFFCURVE",
"75 483 OFFCURVE",
"44 480 CURVE",
"34 437 LINE",
"74 412 LINE",
"77 400 OFFCURVE",
"73 359 OFFCURVE",
"72 336 CURVE SMOOTH",
"70 300 OFFCURVE",
"65 191 OFFCURVE",
"61 144 CURVE",
"32 -58 OFFCURVE",
"17 -101 OFFCURVE",
"-4 -129 CURVE",
"-16 -129 OFFCURVE",
"-30 -123 OFFCURVE",
"-54 -109 CURVE",
"-71 -153 LINE",
"-47 -173 OFFCURVE",
"-19 -187 OFFCURVE",
"0 -193 CURVE",
"112 -167 OFFCURVE",
"142 -113 OFFCURVE",
"166 113 CURVE",
"179 247 OFFCURVE",
"205 431 OFFCURVE",
"203 455 CURVE"
);
}
);
width = 237;
}
);
unicode = 0237;
},
{
glyphname = k;
lastChange = "2015-11-23 19:40:41 +0000";
layers = (
{
anchors = (
{
name = bottom;
position = "{221, 0}";
},
{
name = top;
position = "{271, 480}";
}
);
background = {
paths = (
{
closed = 1;
nodes = (
"361 483 LINE",
"281 437 OFFCURVE",
"206 307 OFFCURVE",
"185 276 CURVE",
"208 457 OFFCURVE",
"251 689 OFFCURVE",
"230 708 CURVE SMOOTH",
"218 719 OFFCURVE",
"88 747 OFFCURVE",
"68 740 CURVE",
"58 698 LINE",
"100 668 LINE",
"103 619 OFFCURVE",
"96 479 OFFCURVE",
"81 353 CURVE SMOOTH",
"65 217 OFFCURVE",
"40 43 OFFCURVE",
"38 32 CURVE",
"38 20 OFFCURVE",
"115 -5 OFFCURVE",
"163 -5 CURVE SMOOTH",
"178 -5 OFFCURVE",
"180 41 OFFCURVE",
"173 132 CURVE",
"215 236 OFFCURVE",
"299 334 OFFCURVE",
"327 360 CURVE",
"299 255 OFFCURVE",
"279 75 OFFCURVE",
"298 44 CURVE SMOOTH",
"308 28 OFFCURVE",
"360 -2 OFFCURVE",
"414 -2 CURVE",
"446 7 OFFCURVE",
"465 17 OFFCURVE",
"477 25 CURVE",
"473 70 LINE",
"459 65 OFFCURVE",
"438 59 OFFCURVE",
"423 59 CURVE",
"403 124 OFFCURVE",
"444 371 OFFCURVE",
"464 444 CURVE"
);
}
);
};
layerId = "71FD7A9F-05F5-4D76-8D4F-547475A05E4C";
name = "Bold Italic";
paths = (
{
closed = 1;
nodes = (
"455 70 LINE",
"441 65 OFFCURVE",
"425 61 OFFCURVE",
"410 59 CURVE",
"393 74 OFFCURVE",
"370 134 OFFCURVE",
"368 189 CURVE",
"458 229 OFFCURVE",
"449 437 OFFCURVE",
"433 459 CURVE",
"342 485 LINE",
"289 434 OFFCURVE",
"212 338 OFFCURVE",
"186 284 CURVE",
"209 465 OFFCURVE",
"249 691 OFFCURVE",
"231 707 CURVE SMOOTH",
"216 720 OFFCURVE",
"88 747 OFFCURVE",
"68 740 CURVE",
"58 697 LINE",
"100 668 LINE",
"103 618 OFFCURVE",
"96 491 OFFCURVE",
"81 353 CURVE SMOOTH",
"66 217 OFFCURVE",
"40 44 OFFCURVE",
"38 33 CURVE",
"38 21 OFFCURVE",
"117 -2 OFFCURVE",
"160 -2 CURVE SMOOTH",
"175 -2 OFFCURVE",
"180 69 OFFCURVE",
"174 158 CURVE",
"231 275 OFFCURVE",
"295 338 OFFCURVE",
"313 360 CURVE",
"320 348 OFFCURVE",
"314 221 OFFCURVE",
"282 196 CURVE",
"251 201 LINE",
"250 153 OFFCURVE",
"275 38 OFFCURVE",
"288 27 CURVE",
"308 15 OFFCURVE",
"343 -5 OFFCURVE",
"392 -5 CURVE",
"427 3 OFFCURVE",
"443 14 OFFCURVE",
"459 24 CURVE"
);
}
);
width = 492;
}
);
leftKerningGroup = l;
leftMetricsKey = l;
rightKerningGroup = i;
rightMetricsKey = i;
unicode = 006B;
},
{
glyphname = l;
lastChange = "2015-11-23 19:40:41 +0000";
layers = (
{
anchors = (
{
name = bottom;
position = "{108, 0}";
},
{
name = center;
position = "{133, 240}";
},
{
name = top;
position = "{158, 480}";
},
{
name = topright;
position = "{270, 480}";
}
);
background = {
paths = (
{
closed = 1;
nodes = (
"356 483 LINE",
"276 437 OFFCURVE",
"205 307 OFFCURVE",
"184 276 CURVE",
"207 457 OFFCURVE",
"250 689 OFFCURVE",
"229 708 CURVE SMOOTH",
"217 719 OFFCURVE",
"87 747 OFFCURVE",
"67 740 CURVE",
"57 698 LINE",
"99 668 LINE",
"102 619 OFFCURVE",
"97 479 OFFCURVE",
"82 353 CURVE SMOOTH",
"66 217 OFFCURVE",
"39 43 OFFCURVE",
"37 32 CURVE",
"37 20 OFFCURVE",
"114 -5 OFFCURVE",
"162 -5 CURVE SMOOTH",
"177 -5 OFFCURVE",
"179 41 OFFCURVE",
"172 132 CURVE",
"214 236 OFFCURVE",
"294 334 OFFCURVE",
"322 360 CURVE",
"294 255 OFFCURVE",
"274 75 OFFCURVE",
"293 44 CURVE SMOOTH",
"303 28 OFFCURVE",
"355 -2 OFFCURVE",
"409 -2 CURVE",
"441 7 OFFCURVE",
"460 17 OFFCURVE",
"472 25 CURVE",
"468 70 LINE",
"454 65 OFFCURVE",
"433 59 OFFCURVE",
"418 59 CURVE",
"398 124 OFFCURVE",
"439 371 OFFCURVE",
"459 444 CURVE"
);
}
);
};
guideLines = (
{
angle = -18;
position = "{104, 0}";
},
{
angle = -103;
position = "{41, 624}";
}
);
layerId = "71FD7A9F-05F5-4D76-8D4F-547475A05E4C";
name = "Bold Italic";
paths = (
{
closed = 1;
nodes = (
"181 2 OFFCURVE",
"207 11 OFFCURVE",
"233 29 CURVE",
"229 75 LINE",
"211 69 OFFCURVE",
"185 63 OFFCURVE",
"173 63 CURVE",
"167 156 OFFCURVE",
"191 299 OFFCURVE",
"207 431 CURVE SMOOTH",
"218 520 OFFCURVE",
"244 683 OFFCURVE",
"231 706 CURVE SMOOTH",
"222 719 OFFCURVE",
"81 747 OFFCURVE",
"69 740 CURVE",
"58 696 LINE",
"101 665 LINE",
"103 595 OFFCURVE",
"92 442 OFFCURVE",
"77 326 CURVE SMOOTH",
"65 234 OFFCURVE",
"30 47 OFFCURVE",
"54 29 CURVE SMOOTH",
"62 23 OFFCURVE",
"123 -4 OFFCURVE",
"164 -1 CURVE"
);
}
);
width = 265;
}
);
leftKerningGroup = l;
rightKerningGroup = i;
rightMetricsKey = i;
unicode = 006C;
},
{
glyphname = m;
lastChange = "2015-11-23 19:40:41 +0000";
layers = (
{
anchors = (
{
name = bottom;
position = "{331, 0}";
},
{
name = top;
position = "{381, 480}";
}
);
background = {
paths = (
{
closed = 1;
nodes = (
"479 70 LINE",
"465 65 OFFCURVE",
"445 59 OFFCURVE",
"428 59 CURVE",
"404 113 OFFCURVE",
"448 368 OFFCURVE",
"469 444 CURVE",
"369 482 LINE",
"335 482 OFFCURVE",
"238 349 OFFCURVE",
"195 274 CURVE",
"196 283 OFFCURVE",
"214 441 OFFCURVE",
"209 452 CURVE SMOOTH",
"205 461 OFFCURVE",
"72 484 OFFCURVE",
"58 477 CURVE",
"45 434 LINE",
"91 407 LINE",
"82 272 OFFCURVE",
"46 45 OFFCURVE",
"48 34 CURVE SMOOTH",
"50 22 OFFCURVE",
"125 -3 OFFCURVE",
"168 -3 CURVE SMOOTH",
"183 -3 OFFCURVE",
"186 44 OFFCURVE",
"179 133 CURVE",
"242 271 OFFCURVE",
"299 323 OFFCURVE",
"331 359 CURVE",
"314 305 OFFCURVE",
"283 85 OFFCURVE",
"304 42 CURVE SMOOTH",
"309 33 OFFCURVE",
"355 -2 OFFCURVE",
"420 -2 CURVE",
"452 7 OFFCURVE",
"469 16 OFFCURVE",
"483 25 CURVE"
);
}
);
};
guideLines = (
{
angle = -18;
position = "{-96, 0}";
},
{
position = "{1089, 369}";
}
);
layerId = "71FD7A9F-05F5-4D76-8D4F-547475A05E4C";
name = "Bold Italic";
paths = (
{
closed = 1;
nodes = (
"676 74 LINE",
"663 69 OFFCURVE",
"639 62 OFFCURVE",
"625 62 CURVE",
"602 114 OFFCURVE",
"648 372 OFFCURVE",
"666 449 CURVE",
"564 482 LINE",
"522 459 OFFCURVE",
"439 343 OFFCURVE",
"418 307 CURVE",
"427 370 OFFCURVE",
"432 412 OFFCURVE",
"440 452 CURVE",
"349 483 LINE",
"290 431 OFFCURVE",
"206 306 OFFCURVE",
"196 288 CURVE",
"197 297 OFFCURVE",
"216 441 OFFCURVE",
"208 452 CURVE SMOOTH",
"200 463 OFFCURVE",
"70 484 OFFCURVE",
"58 477 CURVE",
"45 434 LINE",
"91 407 LINE",
"81 273 OFFCURVE",
"48 46 OFFCURVE",
"47 34 CURVE SMOOTH",
"46 23 OFFCURVE",
"127 -2 OFFCURVE",
"173 -2 CURVE SMOOTH",
"188 -2 OFFCURVE",
"188 69 OFFCURVE",
"181 159 CURVE",
"231 243 OFFCURVE",
"284 320 OFFCURVE",
"313 350 CURVE",
"314 340 OFFCURVE",
"303 261 OFFCURVE",
"300 239 CURVE",
"275 106 OFFCURVE",
"271 43 OFFCURVE",
"270 31 CURVE SMOOTH",
"270 20 OFFCURVE",
"345 -3 OFFCURVE",
"390 -3 CURVE SMOOTH",
"406 -3 OFFCURVE",
"409 90 OFFCURVE",
"401 180 CURVE",
"454 282 OFFCURVE",
"511 337 OFFCURVE",
"535 359 CURVE",
"521 306 OFFCURVE",
"486 95 OFFCURVE",
"502 53 CURVE SMOOTH",
"514 27 OFFCURVE",
"559 -2 OFFCURVE",
"617 -2 CURVE",
"640 4 OFFCURVE",
"663 16 OFFCURVE",
"680 28 CURVE"
);
}
);
width = 712;
}
);
leftKerningGroup = i;
leftMetricsKey = i;
rightKerningGroup = i;
rightMetricsKey = i;
unicode = 006D;
},
{
glyphname = n;
lastChange = "2015-11-28 17:46:44 +0000";
layers = (
{
anchors = (
{
name = bottom;
position = "{233, 0}";
},
{
name = top;
position = "{283, 480}";
}
);
background = {
paths = (
{
closed = 1;
nodes = (
"187 166 OFFCURVE",
"224 416 OFFCURVE",
"204 452 CURVE",
"194 463 OFFCURVE",
"88 478 OFFCURVE",
"57 478 CURVE",
"44 434 LINE",
"91 410 LINE",
"82 216 OFFCURVE",
"34 36 OFFCURVE",
"54 26 CURVE",
"147 -5 LINE",
"207 20 OFFCURVE",
"354 248 OFFCURVE",
"386 363 CURVE",
"355 426 LINE",
"321 269 OFFCURVE",
"197 143 OFFCURVE",
"174 114 CURVE"
);
}
);
};
guideLines = (
{
angle = -12;
position = "{353, 29}";
},
{
position = "{878, 369}";
}
);
layerId = "71FD7A9F-05F5-4D76-8D4F-547475A05E4C";
name = "Bold Italic";
paths = (
{
closed = 1;
nodes = (
"488 70 LINE",
"474 65 OFFCURVE",
"454 59 OFFCURVE",
"437 59 CURVE",
"413 113 OFFCURVE",
"457 368 OFFCURVE",
"478 444 CURVE",
"378 482 LINE",
"344 482 OFFCURVE",
"238 349 OFFCURVE",
"195 274 CURVE",
"196 283 OFFCURVE",
"214 441 OFFCURVE",
"209 452 CURVE SMOOTH",
"205 461 OFFCURVE",
"72 484 OFFCURVE",
"58 477 CURVE",
"45 434 LINE",
"91 407 LINE",
"82 272 OFFCURVE",
"46 45 OFFCURVE",
"48 34 CURVE SMOOTH",
"50 22 OFFCURVE",
"125 -3 OFFCURVE",
"168 -3 CURVE SMOOTH",
"183 -3 OFFCURVE",
"186 44 OFFCURVE",
"179 133 CURVE",
"242 271 OFFCURVE",
"308 323 OFFCURVE",
"340 359 CURVE",
"323 305 OFFCURVE",
"292 85 OFFCURVE",
"313 42 CURVE SMOOTH",
"318 33 OFFCURVE",
"364 -2 OFFCURVE",
"429 -2 CURVE",
"461 7 OFFCURVE",
"478 16 OFFCURVE",
"492 25 CURVE"
);
}
);
width = 525;
}
);
leftKerningGroup = i;
leftMetricsKey = i;
rightKerningGroup = i;
rightMetricsKey = i;
unicode = 006E;
},
{
glyphname = o;
lastChange = "2015-11-28 17:47:59 +0000";
layers = (
{
anchors = (
{
name = bottom;
position = "{214, 0}";
},
{
name = center;
position = "{239, 240}";
},
{
name = ogonek;
position = "{396, 10}";
},
{
name = top;
position = "{264, 480}";
},
{
name = topright;
position = "{472, 480}";
}
);
layerId = "71FD7A9F-05F5-4D76-8D4F-547475A05E4C";
name = "Bold Italic";
paths = (
{
closed = 1;
nodes = (
"374 458 OFFCURVE",
"326 492 OFFCURVE",
"224 481 CURVE",
"38 442 OFFCURVE",
"-24 181 OFFCURVE",
"76 56 CURVE SMOOTH",
"120 1 OFFCURVE",
"189 -17 OFFCURVE",
"270 4 CURVE",
"458 69 OFFCURVE",
"488 315 OFFCURVE",
"404 420 CURVE SMOOTH"
);
},
{
closed = 1;
nodes = (
"208 74 OFFCURVE",
"184 100 OFFCURVE",
"163 147 CURVE SMOOTH",
"126 232 OFFCURVE",
"156 365 OFFCURVE",
"232 407 CURVE",
"261 407 OFFCURVE",
"288 384 OFFCURVE",
"310 339 CURVE SMOOTH",
"349 260 OFFCURVE",
"327 125 OFFCURVE",
"246 74 CURVE"
);
}
);
width = 477;
}
);
leftKerningGroup = o;
rightKerningGroup = o;
unicode = 006F;
},
{
glyphname = p;
lastChange = "2015-11-28 17:48:03 +0000";
layers = (
{
anchors = (
{
name = bottom;
position = "{222, 0}";
},
{
name = top;
position = "{272, 480}";
}
);
background = {
paths = (
{
closed = 1;
nodes = (
"158 469 OFFCURVE",
"75 480 OFFCURVE",
"44 477 CURVE",
"34 434 LINE",
"74 409 LINE",
"77 397 OFFCURVE",
"75 359 OFFCURVE",
"74 336 CURVE SMOOTH",
"72 300 OFFCURVE",
"67 191 OFFCURVE",
"63 144 CURVE",
"34 -58 OFFCURVE",
"19 -101 OFFCURVE",
"-2 -129 CURVE",
"-14 -129 OFFCURVE",
"-28 -123 OFFCURVE",
"-52 -109 CURVE",
"-69 -153 LINE",
"-45 -173 OFFCURVE",
"-17 -187 OFFCURVE",
"2 -193 CURVE",
"109 -167 OFFCURVE",
"139 -113 OFFCURVE",
"163 113 CURVE",
"176 247 OFFCURVE",
"200 428 OFFCURVE",
"198 452 CURVE"
);
}
);
};
guideLines = (
{
angle = -18;
position = "{755, -224}";
},
{
angle = 78;
position = "{28, 445}";
}
);
layerId = "71FD7A9F-05F5-4D76-8D4F-547475A05E4C";
name = "Bold Italic";
paths = (
{
closed = 1;
nodes = (
"389 474 OFFCURVE",
"350 483 OFFCURVE",
"315 480 CURVE",
"260 431 OFFCURVE",
"220 378 OFFCURVE",
"189 330 CURVE",
"192 348 OFFCURVE",
"203 447 OFFCURVE",
"198 455 CURVE SMOOTH",
"190 468 OFFCURVE",
"57 485 OFFCURVE",
"46 480 CURVE",
"36 438 LINE",
"76 413 LINE",
"75 355 OFFCURVE",
"58 145 OFFCURVE",
"47 55 CURVE SMOOTH",
"32 -67 OFFCURVE",
"4 -195 OFFCURVE",
"11 -203 CURVE SMOOTH",
"23 -213 OFFCURVE",
"159 -262 OFFCURVE",
"172 -252 CURVE",
"184 -201 LINE",
"166 -192 OFFCURVE",
"145 -134 OFFCURVE",
"144 -86 CURVE SMOOTH",
"143 -45 OFFCURVE",
"145 -21 OFFCURVE",
"149 28 CURVE",
"194 4 OFFCURVE",
"242 -6 OFFCURVE",
"292 -4 CURVE",
"464 46 OFFCURVE",
"523 304 OFFCURVE",
"415 441 CURVE SMOOTH"
);
},
{
closed = 1;
nodes = (
"237 67 OFFCURVE",
"192 99 OFFCURVE",
"165 138 CURVE",
"181 227 LINE",
"208 284 OFFCURVE",
"286 364 OFFCURVE",
"291 369 CURVE",
"302 364 OFFCURVE",
"313 354 OFFCURVE",
"322 332 CURVE SMOOTH",
"355 250 OFFCURVE",
"351 113 OFFCURVE",
"273 63 CURVE"
);
}
);
width = 498;
}
);
leftKerningGroup = i;
rightKerningGroup = o;
rightMetricsKey = o;
unicode = 0070;
},
{
glyphname = q;
lastChange = "2015-11-23 19:40:41 +0000";
layers = (
{
anchors = (
{
name = bottom;
position = "{207, 0}";
},
{
name = top;
position = "{257, 480}";
}
);
background = {
paths = (
{
closed = 1;
nodes = (
"365 -219 OFFCURVE",
"376 -44 OFFCURVE",
"391 72 CURVE SMOOTH",
"403 164 OFFCURVE",
"411 293 OFFCURVE",
"461 459 CURVE",
"461 465 OFFCURVE",
"432 474 OFFCURVE",
"421 476 CURVE SMOOTH",
"398 484 OFFCURVE",
"394 467 OFFCURVE",
"380 432 CURVE",
"324 470 OFFCURVE",
"266 488 OFFCURVE",
"199 485 CURVE",
"19 436 OFFCURVE",
"-34 170 OFFCURVE",
"78 37 CURVE SMOOTH",
"105 5 OFFCURVE",
"138 -2 OFFCURVE",
"174 -1 CURVE",
"212 30 OFFCURVE",
"253 81 OFFCURVE",
"288 135 CURVE",
"266 -18 OFFCURVE",
"232 -204 OFFCURVE",
"245 -217 CURVE SMOOTH",
"258 -230 OFFCURVE",
"352 -254 OFFCURVE",
"364 -248 CURVE"
);
},
{
closed = 1;
nodes = (
"191 115 OFFCURVE",
"174 132 OFFCURVE",
"166 153 CURVE SMOOTH",
"137 232 OFFCURVE",
"140 370 OFFCURVE",
"216 417 CURVE",
"257 413 OFFCURVE",
"301 379 OFFCURVE",
"324 345 CURVE",
"309 259 LINE",
"278 199 OFFCURVE",
"211 127 OFFCURVE",
"199 115 CURVE"
);
}
);
};
layerId = "71FD7A9F-05F5-4D76-8D4F-547475A05E4C";
name = "Bold Italic";
paths = (
{
closed = 1;
nodes = (
"281 -241 OFFCURVE",
"340 -254 OFFCURVE",
"364 -252 CURVE",
"375 -9 OFFCURVE",
"404 292 OFFCURVE",
"461 458 CURVE",
"461 464 OFFCURVE",
"431 477 OFFCURVE",
"420 481 CURVE SMOOTH",
"408 485 OFFCURVE",
"391 471 OFFCURVE",
"363 436 CURVE",
"310 473 OFFCURVE",
"261 485 OFFCURVE",
"198 484 CURVE",
"24 435 OFFCURVE",
"-37 169 OFFCURVE",
"75 36 CURVE SMOOTH",
"102 4 OFFCURVE",
"137 -3 OFFCURVE",
"173 -2 CURVE",
"211 29 OFFCURVE",
"252 78 OFFCURVE",
"287 132 CURVE",
"269 -21 OFFCURVE",
"230 -209 OFFCURVE",
"243 -222 CURVE"
);
},
{
closed = 1;
nodes = (
"186 112 OFFCURVE",
"172 133 OFFCURVE",
"164 154 CURVE SMOOTH",
"134 233 OFFCURVE",
"139 370 OFFCURVE",
"215 417 CURVE",
"256 413 OFFCURVE",
"299 378 OFFCURVE",
"322 344 CURVE",
"308 255 LINE",
"277 195 OFFCURVE",
"210 124 OFFCURVE",
"198 112 CURVE"
);
}
);
width = 463;
}
);
leftKerningGroup = o;
leftMetricsKey = o;
rightKerningGroup = g;
rightMetricsKey = "=g-5";
unicode = 0071;
},
{
glyphname = r;
lastChange = "2015-11-23 15:43:58 +0000";
layers = (
{
anchors = (
{
name = bottom;
position = "{184, 0}";
},
{
name = top;
position = "{234, 480}";
}
);
background = {
paths = (
{
closed = 1;
nodes = (
"480 70 LINE",
"466 65 OFFCURVE",
"446 59 OFFCURVE",
"429 59 CURVE",
"405 113 OFFCURVE",
"449 368 OFFCURVE",
"470 444 CURVE",
"370 482 LINE",
"336 482 OFFCURVE",
"239 349 OFFCURVE",
"196 274 CURVE",
"197 283 OFFCURVE",
"215 441 OFFCURVE",
"210 452 CURVE SMOOTH",
"206 461 OFFCURVE",
"73 484 OFFCURVE",
"59 477 CURVE",
"46 434 LINE",
"92 407 LINE",
"83 272 OFFCURVE",
"47 45 OFFCURVE",
"49 34 CURVE SMOOTH",
"51 22 OFFCURVE",
"126 -3 OFFCURVE",
"169 -3 CURVE SMOOTH",
"184 -3 OFFCURVE",
"187 44 OFFCURVE",
"180 133 CURVE",
"243 271 OFFCURVE",
"300 323 OFFCURVE",
"332 359 CURVE",
"315 305 OFFCURVE",
"284 85 OFFCURVE",
"305 42 CURVE SMOOTH",
"310 33 OFFCURVE",
"356 -2 OFFCURVE",
"421 -2 CURVE",
"453 7 OFFCURVE",
"470 16 OFFCURVE",
"484 25 CURVE"
);
}
);
};
guideLines = (
{
position = "{-1208, 367}";
},
{
angle = -30;
position = "{263, 371}";
}
);
layerId = "71FD7A9F-05F5-4D76-8D4F-547475A05E4C";
name = "Bold Italic";
paths = (
{
closed = 1;
nodes = (
"59 480 LINE",
"82 480 OFFCURVE",
"198 464 OFFCURVE",
"209 453 CURVE",
"216 437 OFFCURVE",
"200 327 OFFCURVE",
"195 271 CURVE",
"214 316 OFFCURVE",
"242 372 OFFCURVE",
"296 452 CURVE",
"305 463 OFFCURVE",
"344 482 OFFCURVE",
"369 482 CURVE",
"442 455 LINE",
"441 443 OFFCURVE",
"400 336 OFFCURVE",
"378 308 CURVE",
"353 324 OFFCURVE",
"337 334 OFFCURVE",
"312 344 CURVE",
"286 318 OFFCURVE",
"231 254 OFFCURVE",
"182 134 CURVE",
"187 62 OFFCURVE",
"186 -4 OFFCURVE",
"170 -5 CURVE SMOOTH",
"132 -7 OFFCURVE",
"60 10 OFFCURVE",
"48 30 CURVE",
"54 72 OFFCURVE",
"89 340 OFFCURVE",
"92 407 CURVE",
"45 433 LINE"
);
}
);
width = 419;
}
);
leftKerningGroup = i;
leftMetricsKey = i;
rightKerningGroup = r;
unicode = 0072;
},
{
glyphname = s;
lastChange = "2015-11-28 17:37:43 +0000";
layers = (
{
anchors = (
{
name = bottom;
position = "{177, 0}";
},
{
name = top;
position = "{227, 480}";
}
);
background = {
paths = (
{
closed = 1;
nodes = (
"306 23 OFFCURVE",
"367 76 OFFCURVE",
"372 138 CURVE SMOOTH",
"380 239 OFFCURVE",
"289 266 OFFCURVE",
"243 285 CURVE SMOOTH",
"169 315 OFFCURVE",
"140 337 OFFCURVE",
"140 352 CURVE",
"153 375 OFFCURVE",
"188 401 OFFCURVE",
"207 403 CURVE",
"252 385 OFFCURVE",
"286 361 OFFCURVE",
"328 323 CURVE",
"349 354 OFFCURVE",
"365 389 OFFCURVE",
"377 420 CURVE SMOOTH",
"385 440 OFFCURVE",
"385 432 OFFCURVE",
"365 448 CURVE SMOOTH",
"329 473 OFFCURVE",
"277 490 OFFCURVE",
"220 488 CURVE SMOOTH",
"136 485 OFFCURVE",
"51 429 OFFCURVE",
"41 346 CURVE SMOOTH",
"29 245 OFFCURVE",
"103 208 OFFCURVE",
"156 188 CURVE SMOOTH",
"223 163 OFFCURVE",
"271 144 OFFCURVE",
"271 125 CURVE",
"256 96 OFFCURVE",
"213 72 OFFCURVE",
"196 72 CURVE",
"149 87 OFFCURVE",
"92 122 OFFCURVE",
"59 152 CURVE",
"38 119 OFFCURVE",
"5 62 OFFCURVE",
"5 48 CURVE",
"59 -5 OFFCURVE",
"175 -25 OFFCURVE",
"263 7 CURVE SMOOTH"
);
},
{
closed = 1;
nodes = (
"306 23 OFFCURVE",
"367 76 OFFCURVE",
"372 138 CURVE SMOOTH",
"380 239 OFFCURVE",
"289 266 OFFCURVE",
"243 285 CURVE SMOOTH",
"169 315 OFFCURVE",
"140 337 OFFCURVE",
"140 352 CURVE",
"153 375 OFFCURVE",
"188 401 OFFCURVE",
"207 403 CURVE",
"252 385 OFFCURVE",
"286 361 OFFCURVE",
"328 323 CURVE",
"349 354 OFFCURVE",
"365 389 OFFCURVE",
"377 420 CURVE SMOOTH",
"385 440 OFFCURVE",
"385 432 OFFCURVE",
"365 448 CURVE SMOOTH",
"329 473 OFFCURVE",
"277 490 OFFCURVE",
"220 488 CURVE SMOOTH",
"136 485 OFFCURVE",
"51 429 OFFCURVE",
"41 346 CURVE SMOOTH",
"29 245 OFFCURVE",
"103 208 OFFCURVE",
"156 188 CURVE SMOOTH",
"223 163 OFFCURVE",
"271 144 OFFCURVE",
"271 125 CURVE",
"256 96 OFFCURVE",
"213 72 OFFCURVE",
"196 72 CURVE",
"149 87 OFFCURVE",
"92 122 OFFCURVE",
"59 152 CURVE",
"38 119 OFFCURVE",
"5 62 OFFCURVE",
"5 48 CURVE",
"59 -5 OFFCURVE",
"175 -25 OFFCURVE",
"263 7 CURVE SMOOTH"
);
}
);
};
guideLines = (
{
angle = -96;
position = "{39, 308}";
},
{
angle = -96;
position = "{362, 292}";
}
);
layerId = "71FD7A9F-05F5-4D76-8D4F-547475A05E4C";
name = "Bold Italic";
paths = (
{
closed = 1;
nodes = (
"306 23 OFFCURVE",
"367 65 OFFCURVE",
"372 127 CURVE SMOOTH",
"380 219 OFFCURVE",
"288 256 OFFCURVE",
"234 279 CURVE SMOOTH",
"127 324 OFFCURVE",
"146 380 OFFCURVE",
"192 397 CURVE",
"237 387 OFFCURVE",
"275 368 OFFCURVE",
"328 322 CURVE",
"345 347 OFFCURVE",
"374 410 OFFCURVE",
"382 435 CURVE",
"332 473 OFFCURVE",
"282 490 OFFCURVE",
"220 488 CURVE SMOOTH",
"136 485 OFFCURVE",
"53 436 OFFCURVE",
"43 353 CURVE SMOOTH",
"31 252 OFFCURVE",
"104 219 OFFCURVE",
"156 197 CURVE SMOOTH",
"282 143 OFFCURVE",
"280 102 OFFCURVE",
"214 77 CURVE",
"149 87 OFFCURVE",
"92 122 OFFCURVE",
"59 152 CURVE",
"38 119 OFFCURVE",
"5 62 OFFCURVE",
"5 48 CURVE",
"59 -5 OFFCURVE",
"175 -25 OFFCURVE",
"263 7 CURVE SMOOTH"
);
}
);
width = 403;
}
);
leftKerningGroup = o;
rightKerningGroup = o;
unicode = 0073;
},
{
glyphname = germandbls;
lastChange = "2015-11-23 19:40:41 +0000";
layers = (
{
anchors = (
{
name = bottom;
position = "{226, 0}";
},
{
name = top;
position = "{276, 480}";
}
);
layerId = "71FD7A9F-05F5-4D76-8D4F-547475A05E4C";
name = "Bold Italic";
paths = (
{
closed = 1;
nodes = (
"172 400 LINE",
"201 473 LINE",
"109 572 LINE",
"91 491 LINE",
"88 470 OFFCURVE",
"79 468 OFFCURVE",
"49 466 CURVE SMOOTH",
"34 465 LINE",
"27 401 LINE",
"31 401 OFFCURVE",
"75 401 OFFCURVE",
"90 401 CURVE"
);
},
{
closed = 1;
nodes = (
"465 523 OFFCURVE",
"488 600 OFFCURVE",
"463 672 CURVE",
"410 722 OFFCURVE",
"328 741 OFFCURVE",
"251 740 CURVE",
"142 710 OFFCURVE",
"106 626 OFFCURVE",
"90 480 CURVE SMOOTH",
"82 406 OFFCURVE",
"66 261 OFFCURVE",
"51 103 CURVE SMOOTH",
"32 -65 OFFCURVE",
"20 -142 OFFCURVE",
"-11 -183 CURVE",
"-39 -169 OFFCURVE",
"-85 -127 OFFCURVE",
"-111 -103 CURVE",
"-129 -135 OFFCURVE",
"-145 -164 OFFCURVE",
"-156 -202 CURVE",
"-136 -232 OFFCURVE",
"-59 -252 OFFCURVE",
"-12 -250 CURVE",
"82 -228 OFFCURVE",
"136 -161 OFFCURVE",
"152 -1 CURVE SMOOTH",
"193 403 LINE SMOOTH",
"217 601 OFFCURVE",
"234 642 OFFCURVE",
"254 672 CURVE",
"292 667 OFFCURVE",
"342 633 OFFCURVE",
"362 588 CURVE",
"333 542 OFFCURVE",
"268 431 OFFCURVE",
"234 379 CURVE",
"242 337 OFFCURVE",
"284 276 OFFCURVE",
"360 153 CURVE",
"362 115 OFFCURVE",
"350 90 OFFCURVE",
"329 74 CURVE",
"301 76 OFFCURVE",
"263 113 OFFCURVE",
"232 144 CURVE",
"212 111 OFFCURVE",
"192 55 OFFCURVE",
"192 41 CURVE",
"231 6 OFFCURVE",
"282 -6 OFFCURVE",
"340 -5 CURVE",
"382 7 OFFCURVE",
"470 32 OFFCURVE",
"478 153 CURVE",
"466 204 OFFCURVE",
"426 272 OFFCURVE",
"355 388 CURVE"
);
}
);
width = 502;
}
);
leftKerningGroup = f;
leftMetricsKey = f;
rightKerningGroup = z;
unicode = 00DF;
},
{
glyphname = t;
lastChange = "2015-11-28 17:51:46 +0000";
layers = (
{
anchors = (
{
name = bottom;
position = "{126, 0}";
},
{
name = center;
position = "{151, 240}";
},
{
name = top;
position = "{176, 480}";
},
{
name = topright;
position = "{307, 480}";
}
);
background = {
paths = (
{
closed = 1;
nodes = (
"240 461 OFFCURVE",
"174 479 OFFCURVE",
"126 479 CURVE",
"105 471 OFFCURVE",
"119 317 OFFCURVE",
"121 309 CURVE",
"111 270 OFFCURVE",
"90 159 OFFCURVE",
"87 112 CURVE SMOOTH",
"81 27 OFFCURVE",
"118 4 OFFCURVE",
"156 -2 CURVE SMOOTH",
"195 -8 OFFCURVE",
"254 16 OFFCURVE",
"269 30 CURVE",
"271 42 OFFCURVE",
"268 66 OFFCURVE",
"266 80 CURVE SMOOTH",
"266 85 OFFCURVE",
"261 87 OFFCURVE",
"257 84 CURVE SMOOTH",
"239 72 OFFCURVE",
"214 64 OFFCURVE",
"208 79 CURVE",
"182 154 OFFCURVE",
"237 379 OFFCURVE",
"254 444 CURVE"
);
}
);
};
guideLines = (
{
angle = -103;
position = "{37, 345}";
}
);
layerId = "71FD7A9F-05F5-4D76-8D4F-547475A05E4C";
name = "Bold Italic";
paths = (
{
closed = 1;
nodes = (
"273 475 OFFCURVE",
"227 474 OFFCURVE",
"210 473 CURVE",
"214 500 OFFCURVE",
"220 534 OFFCURVE",
"224 565 CURVE",
"119 572 LINE",
"106 494 LINE",
"103 473 OFFCURVE",
"94 468 OFFCURVE",
"64 466 CURVE SMOOTH",
"49 465 LINE",
"42 401 LINE",
"45 401 OFFCURVE",
"70 401 OFFCURVE",
"89 401 CURVE",
"78 344 OFFCURVE",
"48 149 OFFCURVE",
"54 76 CURVE SMOOTH",
"57 36 OFFCURVE",
"96 2 OFFCURVE",
"169 -3 CURVE",
"209 4 OFFCURVE",
"232 10 OFFCURVE",
"280 32 CURVE",
"274 86 LINE",
"245 74 OFFCURVE",
"216 67 OFFCURVE",
"187 68 CURVE",
"161 104 OFFCURVE",
"189 288 OFFCURVE",
"203 400 CURVE",
"244 398 OFFCURVE",
"283 396 OFFCURVE",
"302 396 CURVE SMOOTH",
"313 396 OFFCURVE",
"314 414 OFFCURVE",
"322 478 CURVE"
);
}
);
width = 302;
}
);
leftKerningGroup = i;
leftMetricsKey = i;
rightKerningGroup = t;
rightMetricsKey = "=i-10";
unicode = 0074;
},
{
glyphname = u;
lastChange = "2015-11-28 18:05:12 +0000";
layers = (
{
anchors = (
{
name = bottom;
position = "{231, 0}";
},
{
name = ogonek;
position = "{444, 10}";
},
{
name = top;
position = "{258, 480}";
},
{
name = topright;
position = "{482, 480}";
}
);
background = {
paths = (
{
closed = 1;
nodes = (
"109 7 OFFCURVE",
"148 -2 OFFCURVE",
"183 1 CURVE",
"238 50 OFFCURVE",
"278 103 OFFCURVE",
"309 151 CURVE",
"306 133 OFFCURVE",
"295 34 OFFCURVE",
"300 26 CURVE SMOOTH",
"308 13 OFFCURVE",
"441 -4 OFFCURVE",
"452 1 CURVE",
"462 43 LINE",
"422 68 LINE",
"423 126 OFFCURVE",
"440 336 OFFCURVE",
"451 426 CURVE SMOOTH",
"466 548 OFFCURVE",
"494 676 OFFCURVE",
"487 684 CURVE SMOOTH",
"475 694 OFFCURVE",
"339 743 OFFCURVE",
"326 733 CURVE",
"314 682 LINE",
"332 673 OFFCURVE",
"353 615 OFFCURVE",
"354 567 CURVE SMOOTH",
"355 526 OFFCURVE",
"353 502 OFFCURVE",
"349 453 CURVE",
"304 477 OFFCURVE",
"256 487 OFFCURVE",
"206 485 CURVE",
"34 435 OFFCURVE",
"-25 177 OFFCURVE",
"83 40 CURVE SMOOTH"
);
},
{
closed = 1;
nodes = (
"261 414 OFFCURVE",
"306 382 OFFCURVE",
"333 343 CURVE",
"317 254 LINE",
"290 197 OFFCURVE",
"212 117 OFFCURVE",
"207 112 CURVE",
"196 117 OFFCURVE",
"185 127 OFFCURVE",
"176 149 CURVE SMOOTH",
"143 231 OFFCURVE",
"147 368 OFFCURVE",
"225 418 CURVE"
);
}
);
};
layerId = "71FD7A9F-05F5-4D76-8D4F-547475A05E4C";
name = "Bold Italic";
paths = (
{
closed = 1;
nodes = (
"178 164 OFFCURVE",
"212 426 OFFCURVE",
"197 452 CURVE",
"187 463 OFFCURVE",
"81 478 OFFCURVE",
"50 478 CURVE",
"37 434 LINE",
"84 410 LINE",
"73 177 OFFCURVE",
"35 35 OFFCURVE",
"53 26 CURVE",
"146 -5 LINE",
"206 20 OFFCURVE",
"354 219 OFFCURVE",
"386 334 CURVE",
"355 397 LINE",
"321 240 OFFCURVE",
"192 141 OFFCURVE",
"169 112 CURVE"
);
},
{
closed = 1;
nodes = (
"450 7 OFFCURVE",
"469 20 OFFCURVE",
"481 28 CURVE",
"477 74 LINE",
"463 69 OFFCURVE",
"441 62 OFFCURVE",
"426 62 CURVE",
"410 104 OFFCURVE",
"453 379 OFFCURVE",
"470 444 CURVE",
"456 461 OFFCURVE",
"390 479 OFFCURVE",
"342 479 CURVE",
"327 471 OFFCURVE",
"328 288 OFFCURVE",
"330 280 CURVE",
"309 210 OFFCURVE",
"282 68 OFFCURVE",
"302 36 CURVE SMOOTH",
"312 20 OFFCURVE",
"364 -2 OFFCURVE",
"418 -2 CURVE"
);
}
);
width = 513;
}
);
leftKerningGroup = i;
leftMetricsKey = "=i-8";
rightKerningGroup = i;
rightMetricsKey = i;
unicode = 0075;
},
{
glyphname = u.001;
layers = (
{
anchors = (
{
name = bottom;
position = "{220, 0}";
},
{
name = ogonek;
position = "{433, 10}";
},
{
name = top;
position = "{256, 480}";
},
{
name = topright;
position = "{471, 480}";
}
);
background = {
paths = (
{
closed = 1;
nodes = (
"98 7 OFFCURVE",
"137 -2 OFFCURVE",
"172 1 CURVE",
"227 50 OFFCURVE",
"267 103 OFFCURVE",
"298 151 CURVE",
"295 133 OFFCURVE",
"284 34 OFFCURVE",
"289 26 CURVE SMOOTH",
"297 13 OFFCURVE",
"430 -4 OFFCURVE",
"441 1 CURVE",
"451 43 LINE",
"411 68 LINE",
"412 126 OFFCURVE",
"429 336 OFFCURVE",
"440 426 CURVE SMOOTH",
"455 548 OFFCURVE",
"483 676 OFFCURVE",
"476 684 CURVE SMOOTH",
"464 694 OFFCURVE",
"328 743 OFFCURVE",
"315 733 CURVE",
"303 682 LINE",
"321 673 OFFCURVE",
"342 615 OFFCURVE",
"343 567 CURVE SMOOTH",
"344 526 OFFCURVE",
"342 502 OFFCURVE",
"338 453 CURVE",
"293 477 OFFCURVE",
"245 487 OFFCURVE",
"195 485 CURVE",
"23 435 OFFCURVE",
"-36 177 OFFCURVE",
"72 40 CURVE SMOOTH"
);
},
{
closed = 1;
nodes = (
"250 414 OFFCURVE",
"295 382 OFFCURVE",
"322 343 CURVE",
"306 254 LINE",
"279 197 OFFCURVE",
"201 117 OFFCURVE",
"196 112 CURVE",
"185 117 OFFCURVE",
"174 127 OFFCURVE",
"165 149 CURVE SMOOTH",
"132 231 OFFCURVE",
"136 368 OFFCURVE",
"214 418 CURVE"
);
}
);
};
layerId = "71FD7A9F-05F5-4D76-8D4F-547475A05E4C";
name = "Bold Italic";
paths = (
{
closed = 1;
nodes = (
"183 166 OFFCURVE",
"220 416 OFFCURVE",
"200 452 CURVE",
"190 463 OFFCURVE",
"84 478 OFFCURVE",
"53 478 CURVE",
"40 434 LINE",
"87 410 LINE",
"78 216 OFFCURVE",
"30 36 OFFCURVE",
"50 26 CURVE",
"143 -5 LINE",
"203 20 OFFCURVE",
"350 248 OFFCURVE",
"382 363 CURVE",
"351 426 LINE",
"317 269 OFFCURVE",
"193 143 OFFCURVE",
"170 114 CURVE"
);
},
{
closed = 1;
nodes = (
"446 7 OFFCURVE",
"465 20 OFFCURVE",
"477 28 CURVE",
"473 74 LINE",
"459 69 OFFCURVE",
"437 62 OFFCURVE",
"422 62 CURVE",
"406 104 OFFCURVE",
"449 379 OFFCURVE",
"466 444 CURVE",
"452 461 OFFCURVE",
"386 479 OFFCURVE",
"338 479 CURVE",
"323 471 OFFCURVE",
"324 288 OFFCURVE",
"326 280 CURVE",
"305 210 OFFCURVE",
"278 68 OFFCURVE",
"298 36 CURVE SMOOTH",
"308 20 OFFCURVE",
"360 -2 OFFCURVE",
"414 -2 CURVE"
);
}
);
width = 509;
}
);
leftKerningGroup = i;
rightKerningGroup = i;
rightMetricsKey = i;
},
{
glyphname = v;
lastChange = "2015-11-28 17:52:08 +0000";
layers = (
{
anchors = (
{
name = bottom;
position = "{202, 0}";
},
{
name = top;
position = "{252, 480}";
}
);
background = {
paths = (
{
closed = 1;
nodes = (
"361 474 OFFCURVE",
"322 483 OFFCURVE",
"287 480 CURVE",
"232 431 OFFCURVE",
"192 378 OFFCURVE",
"161 330 CURVE",
"164 348 OFFCURVE",
"175 447 OFFCURVE",
"170 455 CURVE SMOOTH",
"162 468 OFFCURVE",
"29 485 OFFCURVE",
"18 480 CURVE",
"8 438 LINE",
"48 413 LINE",
"47 355 OFFCURVE",
"33 145 OFFCURVE",
"20 55 CURVE SMOOTH",
"2 -67 OFFCURVE",
"-24 -195 OFFCURVE",
"-17 -203 CURVE SMOOTH",
"-5 -213 OFFCURVE",
"131 -262 OFFCURVE",
"144 -252 CURVE",
"156 -201 LINE",
"138 -192 OFFCURVE",
"117 -134 OFFCURVE",
"116 -86 CURVE SMOOTH",
"115 -45 OFFCURVE",
"117 -21 OFFCURVE",
"121 28 CURVE",
"166 4 OFFCURVE",
"214 -6 OFFCURVE",
"264 -4 CURVE",
"436 46 OFFCURVE",
"495 304 OFFCURVE",
"387 441 CURVE SMOOTH"
);
}
);
};
layerId = "71FD7A9F-05F5-4D76-8D4F-547475A05E4C";
name = "Bold Italic";
paths = (
{
closed = 1;
nodes = (
"292 484 OFFCURVE",
"252 475 OFFCURVE",
"240 457 CURVE",
"253 418 OFFCURVE",
"264 395 OFFCURVE",
"286 344 CURVE",
"303 354 OFFCURVE",
"329 370 OFFCURVE",
"351 374 CURVE",
"348 309 OFFCURVE",
"302 157 OFFCURVE",
"233 69 CURVE",
"223 110 LINE SMOOTH",
"200 204 OFFCURVE",
"178 411 OFFCURVE",
"178 456 CURVE",
"166 467 OFFCURVE",
"47 482 OFFCURVE",
"34 477 CURVE",
"25 432 LINE",
"53 416 LINE",
"65 359 OFFCURVE",
"80 173 OFFCURVE",
"114 33 CURVE",
"126 14 OFFCURVE",
"185 -13 OFFCURVE",
"282 -5 CURVE",
"378 99 OFFCURVE",
"448 320 OFFCURVE",
"448 447 CURVE",
"411 467 OFFCURVE",
"368 477 OFFCURVE",
"326 484 CURVE"
);
}
);
width = 453;
}
);
leftKerningGroup = v;
rightKerningGroup = g;
unicode = 0076;
},
{
glyphname = w;
lastChange = "2015-11-23 20:09:52 +0000";
layers = (
{
anchors = (
{
name = bottom;
position = "{305, 0}";
},
{
name = top;
position = "{330, 480}";
}
);
background = {
paths = (
{
closed = 1;
nodes = (
"293 484 OFFCURVE",
"253 475 OFFCURVE",
"241 457 CURVE",
"254 418 OFFCURVE",
"265 395 OFFCURVE",
"287 344 CURVE",
"304 354 OFFCURVE",
"330 370 OFFCURVE",
"352 374 CURVE",
"349 309 OFFCURVE",
"303 157 OFFCURVE",
"234 69 CURVE",
"224 110 LINE SMOOTH",
"201 204 OFFCURVE",
"179 411 OFFCURVE",
"179 456 CURVE",
"167 467 OFFCURVE",
"39 484 OFFCURVE",
"26 479 CURVE",
"17 436 LINE",
"54 416 LINE",
"66 359 OFFCURVE",
"81 173 OFFCURVE",
"115 33 CURVE",
"127 14 OFFCURVE",
"186 -13 OFFCURVE",
"283 -5 CURVE",
"379 99 OFFCURVE",
"449 320 OFFCURVE",
"449 447 CURVE",
"412 467 OFFCURVE",
"369 477 OFFCURVE",
"327 484 CURVE"
);
}
);
};
guideLines = (
{
angle = -12;
position = "{717, 437}";
},
{
angle = -96;
position = "{367, 480}";
}
);
layerId = "71FD7A9F-05F5-4D76-8D4F-547475A05E4C";
name = "Bold Italic";
paths = (
{
closed = 1;
nodes = (
"314 355 LINE",
"310 267 OFFCURVE",
"275 141 OFFCURVE",
"225 84 CURVE",
"205 189 OFFCURVE",
"192 302 OFFCURVE",
"179 456 CURVE",
"168 467 OFFCURVE",
"48 486 OFFCURVE",
"35 479 CURVE",
"25 430 LINE",
"54 416 LINE",
"73 276 OFFCURVE",
"91 126 OFFCURVE",
"115 31 CURVE",
"126 12 OFFCURVE",
"176 -4 OFFCURVE",
"255 -4 CURVE",
"351 118 OFFCURVE",
"363 285 OFFCURVE",
"325 359 CURVE"
);
},
{
closed = 1;
nodes = (
"509 484 OFFCURVE",
"468 480 OFFCURVE",
"446 457 CURVE",
"460 414 OFFCURVE",
"466 395 OFFCURVE",
"487 344 CURVE",
"505 355 OFFCURVE",
"535 372 OFFCURVE",
"558 378 CURVE",
"549 299 OFFCURVE",
"515 183 OFFCURVE",
"454 85 CURVE",
"428 222 OFFCURVE",
"399 429 OFFCURVE",
"392 458 CURVE",
"382 469 OFFCURVE",
"263 486 OFFCURVE",
"251 479 CURVE",
"242 436 LINE",
"279 417 LINE",
"284 392 OFFCURVE",
"294 336 OFFCURVE",
"312 240 CURVE",
"328 194 OFFCURVE",
"324 145 OFFCURVE",
"348 33 CURVE",
"358 14 OFFCURVE",
"385 -5 OFFCURVE",
"488 -5 CURVE",
"578 98 OFFCURVE",
"661 331 OFFCURVE",
"653 447 CURVE",
"630 462 OFFCURVE",
"555 484 OFFCURVE",
"529 484 CURVE SMOOTH"
);
}
);
width = 660;
}
);
leftKerningGroup = v;
leftMetricsKey = v;
rightKerningGroup = g;
rightMetricsKey = v;
unicode = 0077;
},
{
glyphname = x;
lastChange = "2015-11-23 19:40:41 +0000";
layers = (
{
anchors = (
{
name = bottom;
position = "{212, 0}";
},
{
name = top;
position = "{262, 480}";
}
);
background = {
paths = (
{
closed = 1;
nodes = (
"387 474 OFFCURVE",
"348 483 OFFCURVE",
"313 480 CURVE",
"258 431 OFFCURVE",
"218 378 OFFCURVE",
"187 330 CURVE",
"190 348 OFFCURVE",
"201 447 OFFCURVE",
"196 455 CURVE SMOOTH",
"188 468 OFFCURVE",
"55 485 OFFCURVE",
"44 480 CURVE",
"34 438 LINE",
"74 413 LINE",
"73 355 OFFCURVE",
"59 145 OFFCURVE",
"46 55 CURVE SMOOTH",
"28 -67 OFFCURVE",
"2 -195 OFFCURVE",
"9 -203 CURVE SMOOTH",
"21 -213 OFFCURVE",
"157 -262 OFFCURVE",
"170 -252 CURVE",
"182 -201 LINE",
"164 -192 OFFCURVE",
"143 -134 OFFCURVE",
"142 -86 CURVE SMOOTH",
"141 -45 OFFCURVE",
"143 -21 OFFCURVE",
"147 28 CURVE",
"192 4 OFFCURVE",
"240 -6 OFFCURVE",
"290 -4 CURVE",
"462 46 OFFCURVE",
"521 304 OFFCURVE",
"413 441 CURVE SMOOTH"
);
}
);
};
layerId = "71FD7A9F-05F5-4D76-8D4F-547475A05E4C";
name = "Bold Italic";
paths = (
{
closed = 1;
nodes = (
"441 71 LINE",
"428 66 OFFCURVE",
"414 60 OFFCURVE",
"398 60 CURVE",
"381 60 OFFCURVE",
"340 157 OFFCURVE",
"286 269 CURVE",
"284 286 OFFCURVE",
"271 256 OFFCURVE",
"266 272 CURVE",
"252 331 OFFCURVE",
"229 413 OFFCURVE",
"219 453 CURVE",
"209 464 OFFCURVE",
"69 485 OFFCURVE",
"56 478 CURVE",
"45 434 LINE",
"83 414 LINE",
"115 366 OFFCURVE",
"166 252 OFFCURVE",
"186 192 CURVE",
"191 181 OFFCURVE",
"203 194 OFFCURVE",
"208 183 CURVE",
"221 131 OFFCURVE",
"234 74 OFFCURVE",
"257 32 CURVE SMOOTH",
"261 23 OFFCURVE",
"313 -2 OFFCURVE",
"380 -2 CURVE",
"409 7 OFFCURVE",
"433 16 OFFCURVE",
"446 25 CURVE"
);
},
{
closed = 1;
nodes = (
"202 256 LINE",
"182 201 OFFCURVE",
"148 141 OFFCURVE",
"128 123 CURVE",
"104 133 OFFCURVE",
"77 152 OFFCURVE",
"56 167 CURVE",
"36 131 OFFCURVE",
"5 51 OFFCURVE",
"4 39 CURVE",
"13 14 OFFCURVE",
"40 -3 OFFCURVE",
"69 -3 CURVE SMOOTH",
"86 -3 OFFCURVE",
"129 20 OFFCURVE",
"135 27 CURVE",
"180 67 OFFCURVE",
"246 200 OFFCURVE",
"246 249 CURVE"
);
},
{
closed = 1;
nodes = (
"270 208 LINE",
"273 235 OFFCURVE",
"323 326 OFFCURVE",
"350 354 CURVE",
"373 343 OFFCURVE",
"398 325 OFFCURVE",
"418 307 CURVE",
"438 335 OFFCURVE",
"471 426 OFFCURVE",
"472 438 CURVE",
"464 463 OFFCURVE",
"437 480 OFFCURVE",
"407 480 CURVE SMOOTH",
"391 480 OFFCURVE",
"347 456 OFFCURVE",
"342 450 CURVE",
"297 394 OFFCURVE",
"252 305 OFFCURVE",
"221 237 CURVE"
);
}
);
width = 474;
}
);
leftKerningGroup = z;
rightKerningGroup = z;
unicode = 0078;
},
{
glyphname = y;
lastChange = "2015-11-23 20:10:30 +0000";
layers = (
{
anchors = (
{
name = bottom;
position = "{199, 0}";
},
{
name = top;
position = "{237, 480}";
}
);
background = {
paths = (
{
closed = 1;
nodes = (
"287 484 OFFCURVE",
"247 475 OFFCURVE",
"235 457 CURVE",
"248 418 OFFCURVE",
"259 395 OFFCURVE",
"281 344 CURVE",
"298 354 OFFCURVE",
"324 370 OFFCURVE",
"346 374 CURVE",
"343 309 OFFCURVE",
"297 157 OFFCURVE",
"228 69 CURVE",
"218 110 LINE SMOOTH",
"195 204 OFFCURVE",
"173 411 OFFCURVE",
"173 456 CURVE",
"161 467 OFFCURVE",
"33 484 OFFCURVE",
"20 479 CURVE",
"11 436 LINE",
"48 416 LINE",
"60 359 OFFCURVE",
"75 173 OFFCURVE",
"109 33 CURVE",
"121 14 OFFCURVE",
"180 -13 OFFCURVE",
"277 -5 CURVE",
"373 99 OFFCURVE",
"443 320 OFFCURVE",
"443 447 CURVE",
"406 467 OFFCURVE",
"363 477 OFFCURVE",
"321 484 CURVE"
);
}
);
};
layerId = "71FD7A9F-05F5-4D76-8D4F-547475A05E4C";
name = "Bold Italic";
paths = (
{
closed = 1;
nodes = (
"221 118 OFFCURVE",
"181 376 OFFCURVE",
"185 457 CURVE",
"173 468 OFFCURVE",
"51 485 OFFCURVE",
"38 478 CURVE",
"28 431 LINE",
"60 414 LINE",
"66 347 OFFCURVE",
"94 132 OFFCURVE",
"121 30 CURVE",
"128 19 OFFCURVE",
"157 5 OFFCURVE",
"213 -6 CURVE",
"245 42 LINE"
);
},
{
closed = 1;
nodes = (
"405 467 OFFCURVE",
"376 474 OFFCURVE",
"321 484 CURVE",
"295 484 OFFCURVE",
"256 479 OFFCURVE",
"238 459 CURVE",
"252 416 OFFCURVE",
"261 391 OFFCURVE",
"282 344 CURVE",
"299 354 OFFCURVE",
"320 363 OFFCURVE",
"342 370 CURVE",
"345 278 OFFCURVE",
"289 139 OFFCURVE",
"235 44 CURVE SMOOTH",
"189 -38 OFFCURVE",
"93 -123 OFFCURVE",
"23 -147 CURVE",
"-5 -130 OFFCURVE",
"-40 -110 OFFCURVE",
"-66 -86 CURVE",
"-84 -118 OFFCURVE",
"-99 -159 OFFCURVE",
"-117 -210 CURVE",
"-97 -231 OFFCURVE",
"-27 -249 OFFCURVE",
"31 -250 CURVE",
"119 -230 OFFCURVE",
"204 -151 OFFCURVE",
"297 0 CURVE SMOOTH",
"406 177 OFFCURVE",
"445 382 OFFCURVE",
"443 447 CURVE"
);
}
);
width = 448;
}
);
leftKerningGroup = v;
rightKerningGroup = g;
rightMetricsKey = v;
unicode = 0079;
},
{
glyphname = y.001;
lastChange = "2015-11-23 19:40:41 +0000";
layers = (
{
anchors = (
{
name = bottom;
position = "{237, 0}";
},
{
name = top;
position = "{287, 480}";
}
);
background = {
paths = (
{
closed = 1;
nodes = (
"482 78 LINE",
"469 73 OFFCURVE",
"455 67 OFFCURVE",
"439 67 CURVE",
"422 67 OFFCURVE",
"378 153 OFFCURVE",
"324 265 CURVE",
"322 282 OFFCURVE",
"306 263 OFFCURVE",
"301 279 CURVE",
"287 338 OFFCURVE",
"268 416 OFFCURVE",
"258 456 CURVE",
"248 467 OFFCURVE",
"110 491 OFFCURVE",
"97 484 CURVE",
"86 440 LINE",
"124 420 LINE",
"156 372 OFFCURVE",
"203 268 OFFCURVE",
"223 208 CURVE",
"228 197 OFFCURVE",
"244 201 OFFCURVE",
"249 190 CURVE",
"262 138 OFFCURVE",
"275 81 OFFCURVE",
"298 39 CURVE SMOOTH",
"302 30 OFFCURVE",
"354 5 OFFCURVE",
"421 5 CURVE",
"450 14 OFFCURVE",
"474 23 OFFCURVE",
"487 32 CURVE"
);
}
);
};
layerId = "71FD7A9F-05F5-4D76-8D4F-547475A05E4C";
name = "Bold Italic";
paths = (
{
closed = 1;
nodes = (
"307 99 OFFCURVE",
"251 418 OFFCURVE",
"238 457 CURVE",
"226 468 OFFCURVE",
"110 486 OFFCURVE",
"97 479 CURVE",
"84 437 LINE",
"123 417 LINE",
"152 335 OFFCURVE",
"200 3 OFFCURVE",
"202 -95 CURVE",
"270 -90 LINE",
"307 -1 LINE"
);
},
{
closed = 1;
nodes = (
"480 467 OFFCURVE",
"451 474 OFFCURVE",
"396 484 CURVE",
"370 484 OFFCURVE",
"331 479 OFFCURVE",
"313 459 CURVE",
"327 416 OFFCURVE",
"336 391 OFFCURVE",
"357 344 CURVE",
"374 354 OFFCURVE",
"395 363 OFFCURVE",
"417 370 CURVE",
"423 271 OFFCURVE",
"366 150 OFFCURVE",
"312 55 CURVE SMOOTH",
"266 -27 OFFCURVE",
"168 -129 OFFCURVE",
"98 -153 CURVE",
"70 -136 OFFCURVE",
"35 -110 OFFCURVE",
"9 -86 CURVE",
"-9 -118 OFFCURVE",
"-24 -159 OFFCURVE",
"-42 -210 CURVE",
"-22 -231 OFFCURVE",
"48 -249 OFFCURVE",
"106 -250 CURVE",
"194 -230 OFFCURVE",
"278 -151 OFFCURVE",
"372 0 CURVE SMOOTH",
"482 177 OFFCURVE",
"520 382 OFFCURVE",
"518 447 CURVE"
);
}
);
width = 523;
}
);
leftKerningGroup = v;
leftMetricsKey = v;
rightKerningGroup = v;
rightMetricsKey = v;
},
{
glyphname = y.004;
lastChange = "2015-11-23 19:40:41 +0000";
layers = (
{
anchors = (
{
name = bottom;
position = "{202, 0}";
},
{
name = top;
position = "{252, 480}";
}
);
background = {
paths = (
{
closed = 1;
nodes = (
"284 484 OFFCURVE",
"244 475 OFFCURVE",
"232 457 CURVE",
"245 418 OFFCURVE",
"256 395 OFFCURVE",
"278 344 CURVE",
"295 354 OFFCURVE",
"321 370 OFFCURVE",
"343 374 CURVE",
"340 309 OFFCURVE",
"294 157 OFFCURVE",
"225 69 CURVE",
"214 143 LINE SMOOTH",
"200 239 OFFCURVE",
"176 416 OFFCURVE",
"161 456 CURVE",
"149 467 OFFCURVE",
"30 484 OFFCURVE",
"17 479 CURVE",
"8 436 LINE",
"45 416 LINE",
"57 359 OFFCURVE",
"88 173 OFFCURVE",
"106 33 CURVE",
"118 14 OFFCURVE",
"177 -13 OFFCURVE",
"274 -5 CURVE",
"370 99 OFFCURVE",
"440 320 OFFCURVE",
"440 447 CURVE",
"403 467 OFFCURVE",
"360 477 OFFCURVE",
"318 484 CURVE"
);
}
);
};
layerId = "71FD7A9F-05F5-4D76-8D4F-547475A05E4C";
name = "Bold Italic";
paths = (
{
closed = 1;
nodes = (
"258 48 OFFCURVE",
"252 94 OFFCURVE",
"247 127 CURVE SMOOTH",
"233 221 OFFCURVE",
"193 417 OFFCURVE",
"178 457 CURVE",
"166 468 OFFCURVE",
"34 486 OFFCURVE",
"21 479 CURVE",
"11 439 LINE",
"63 414 LINE",
"79 357 OFFCURVE",
"124 173 OFFCURVE",
"137 33 CURVE",
"144 22 OFFCURVE",
"200 10 OFFCURVE",
"256 -1 CURVE",
"258 15 LINE"
);
},
{
closed = 1;
nodes = (
"300 353 OFFCURVE",
"328 368 OFFCURVE",
"350 373 CURVE",
"356 266 OFFCURVE",
"273 42 OFFCURVE",
"237 4 CURVE",
"212 4 LINE",
"301 -13 LINE",
"415 151 OFFCURVE",
"449 382 OFFCURVE",
"447 447 CURVE",
"409 467 OFFCURVE",
"380 474 OFFCURVE",
"325 484 CURVE",
"299 484 OFFCURVE",
"257 478 OFFCURVE",
"239 458 CURVE",
"253 415 OFFCURVE",
"262 390 OFFCURVE",
"283 343 CURVE"
);
},
{
closed = 1;
nodes = (
"196 15 LINE",
"185 -69 OFFCURVE",
"125 -159 OFFCURVE",
"90 -185 CURVE",
"74 -185 OFFCURVE",
"45 -175 OFFCURVE",
"26 -166 CURVE",
"9 -209 LINE",
"36 -229 OFFCURVE",
"93 -245 OFFCURVE",
"150 -251 CURVE",
"257 -229 OFFCURVE",
"289 -154 OFFCURVE",
"302 -8 CURVE"
);
}
);
width = 453;
}
);
leftKerningGroup = v;
rightMetricsKey = v;
},
{
glyphname = z;
lastChange = "2015-11-23 19:40:41 +0000";
layers = (
{
anchors = (
{
name = bottom;
position = "{184, 0}";
},
{
name = top;
position = "{234, 480}";
}
);
background = {
paths = (
{
closed = 1;
nodes = (
"437 71 LINE",
"424 66 OFFCURVE",
"410 60 OFFCURVE",
"394 60 CURVE",
"377 60 OFFCURVE",
"332 134 OFFCURVE",
"278 246 CURVE",
"276 263 OFFCURVE",
"261 256 OFFCURVE",
"256 272 CURVE",
"242 331 OFFCURVE",
"225 406 OFFCURVE",
"215 446 CURVE",
"205 457 OFFCURVE",
"52 487 OFFCURVE",
"39 480 CURVE",
"30 429 LINE",
"99 409 OFFCURVE",
"145 299 OFFCURVE",
"178 201 CURVE",
"183 190 OFFCURVE",
"199 194 OFFCURVE",
"204 183 CURVE",
"217 131 OFFCURVE",
"230 74 OFFCURVE",
"253 32 CURVE SMOOTH",
"257 23 OFFCURVE",
"309 -2 OFFCURVE",
"376 -2 CURVE",
"405 7 OFFCURVE",
"429 16 OFFCURVE",
"442 25 CURVE"
);
},
{
closed = 1;
nodes = (
"200 256 LINE",
"182 201 OFFCURVE",
"130 141 OFFCURVE",
"110 123 CURVE",
"86 133 OFFCURVE",
"59 152 OFFCURVE",
"38 167 CURVE",
"18 131 OFFCURVE",
"-13 51 OFFCURVE",
"-14 39 CURVE",
"-5 14 OFFCURVE",
"22 -3 OFFCURVE",
"51 -3 CURVE SMOOTH",
"68 -3 OFFCURVE",
"111 20 OFFCURVE",
"117 27 CURVE",
"162 67 OFFCURVE",
"240 200 OFFCURVE",
"240 249 CURVE"
);
},
{
closed = 1;
nodes = (
"262 208 LINE",
"265 235 OFFCURVE",
"319 326 OFFCURVE",
"346 354 CURVE",
"369 343 OFFCURVE",
"394 325 OFFCURVE",
"414 307 CURVE",
"434 335 OFFCURVE",
"467 426 OFFCURVE",
"468 438 CURVE",
"460 463 OFFCURVE",
"433 480 OFFCURVE",
"403 480 CURVE SMOOTH",
"387 480 OFFCURVE",
"343 456 OFFCURVE",
"338 450 CURVE",
"293 394 OFFCURVE",
"248 305 OFFCURVE",
"217 237 CURVE"
);
}
);
};
layerId = "71FD7A9F-05F5-4D76-8D4F-547475A05E4C";
name = "Bold Italic";
paths = (
{
closed = 1;
nodes = (
"81 -3 OFFCURVE",
"124 21 OFFCURVE",
"130 27 CURVE",
"147 42 OFFCURVE",
"169 59 OFFCURVE",
"185 86 CURVE SMOOTH",
"194 101 OFFCURVE",
"181 72 OFFCURVE",
"201 120 CURVE",
"272 213 OFFCURVE",
"367 358 OFFCURVE",
"424 460 CURVE",
"410 472 OFFCURVE",
"396 477 OFFCURVE",
"381 480 CURVE SMOOTH",
"359 484 OFFCURVE",
"354 469 OFFCURVE",
"343 448 CURVE",
"330 424 OFFCURVE",
"309 403 OFFCURVE",
"292 374 CURVE",
"255 301 OFFCURVE",
"182 189 OFFCURVE",
"160 162 CURVE SMOOTH",
"146 144 OFFCURVE",
"129 129 OFFCURVE",
"122 127 CURVE",
"98 137 OFFCURVE",
"72 152 OFFCURVE",
"51 167 CURVE",
"31 131 OFFCURVE",
"0 51 OFFCURVE",
"-1 39 CURVE",
"8 14 OFFCURVE",
"35 -3 OFFCURVE",
"64 -3 CURVE SMOOTH"
);
},
{
closed = 1;
nodes = (
"387 62 OFFCURVE",
"414 112 OFFCURVE",
"423 146 CURVE",
"381 163 LINE",
"374 143 OFFCURVE",
"365 128 OFFCURVE",
"354 116 CURVE",
"309 110 OFFCURVE",
"256 103 OFFCURVE",
"189 150 CURVE",
"120 74 LINE",
"184 10 OFFCURVE",
"260 -34 OFFCURVE",
"351 17 CURVE"
);
},
{
closed = 1;
nodes = (
"90 332 OFFCURVE",
"257 347 OFFCURVE",
"302 344 CURVE",
"344 380 LINE",
"334 403 OFFCURVE",
"384 444 OFFCURVE",
"361 444 CURVE",
"279 435 OFFCURVE",
"149 472 OFFCURVE",
"72 478 CURVE",
"64 468 OFFCURVE",
"35 345 OFFCURVE",
"43 317 CURVE"
);
}
);
width = 418;
}
);
leftKerningGroup = z;
rightKerningGroup = z;
unicode = 007A;
},
{
glyphname = T_h.dlig;
lastChange = "2015-11-23 20:12:04 +0000";
layers = (
{
layerId = "71FD7A9F-05F5-4D76-8D4F-547475A05E4C";
name = "Bold Italic";
paths = (
{
closed = 1;
nodes = (
"970 65 OFFCURVE",
"949 59 OFFCURVE",
"934 59 CURVE",
"914 124 OFFCURVE",
"955 371 OFFCURVE",
"975 444 CURVE",
"872 483 LINE",
"792 437 OFFCURVE",
"717 307 OFFCURVE",
"696 276 CURVE",
"719 457 OFFCURVE",
"754 656 OFFCURVE",
"733 675 CURVE",
"619 708 LINE",
"618 708 LINE",
"618 709 LINE",
"448 699 OFFCURVE",
"263 698 OFFCURVE",
"92 701 CURVE",
"63 536 LINE",
"112 525 LINE",
"130 597 OFFCURVE",
"166 609 OFFCURVE",
"262 609 CURVE",
"270 570 OFFCURVE",
"262 480 OFFCURVE",
"258 427 CURVE SMOOTH",
"250 319 OFFCURVE",
"218 103 OFFCURVE",
"221 88 CURVE SMOOTH",
"223 77 OFFCURVE",
"245 64 OFFCURVE",
"280 50 CURVE",
"162 50 LINE",
"158 0 LINE",
"451 0 LINE",
"454 47 LINE",
"398 55 LINE",
"365 111 OFFCURVE",
"376 296 OFFCURVE",
"392 443 CURVE SMOOTH",
"400 517 OFFCURVE",
"406 586 OFFCURVE",
"433 608 CURVE",
"477 608 OFFCURVE",
"569 603 OFFCURVE",
"610 591 CURVE",
"608 526 OFFCURVE",
"602 433 OFFCURVE",
"592 353 CURVE SMOOTH",
"576 217 OFFCURVE",
"551 43 OFFCURVE",
"549 32 CURVE",
"549 20 OFFCURVE",
"626 -5 OFFCURVE",
"674 -5 CURVE SMOOTH",
"689 -5 OFFCURVE",
"691 41 OFFCURVE",
"684 132 CURVE",
"726 236 OFFCURVE",
"810 334 OFFCURVE",
"838 360 CURVE",
"810 255 OFFCURVE",
"790 75 OFFCURVE",
"809 44 CURVE SMOOTH",
"819 28 OFFCURVE",
"871 -2 OFFCURVE",
"925 -2 CURVE",
"957 7 OFFCURVE",
"976 17 OFFCURVE",
"988 25 CURVE",
"984 70 LINE"
);
}
);
width = 1021;
}
);
leftKerningGroup = T;
leftMetricsKey = T;
rightKerningGroup = i;
rightMetricsKey = h;
},
{
glyphname = c_t.dlig;
lastChange = "2015-11-23 16:17:55 +0000";
layers = (
{
background = {
paths = (
{
closed = 1;
nodes = (
"312 20 OFFCURVE",
"371 75 OFFCURVE",
"376 137 CURVE SMOOTH",
"384 240 OFFCURVE",
"296 268 OFFCURVE",
"251 287 CURVE SMOOTH",
"179 317 OFFCURVE",
"151 335 OFFCURVE",
"151 350 CURVE",
"164 373 OFFCURVE",
"198 395 OFFCURVE",
"217 397 CURVE",
"261 379 OFFCURVE",
"295 360 OFFCURVE",
"336 322 CURVE",
"356 353 OFFCURVE",
"378 402 OFFCURVE",
"390 433 CURVE",
"375 446 OFFCURVE",
"385 438 OFFCURVE",
"372 447 CURVE SMOOTH",
"338 471 OFFCURVE",
"286 489 OFFCURVE",
"230 487 CURVE SMOOTH",
"148 484 OFFCURVE",
"63 430 OFFCURVE",
"54 347 CURVE SMOOTH",
"42 246 OFFCURVE",
"116 205 OFFCURVE",
"168 185 CURVE SMOOTH",
"233 160 OFFCURVE",
"275 145 OFFCURVE",
"275 126 CURVE",
"261 97 OFFCURVE",
"206 76 OFFCURVE",
"189 76 CURVE",
"143 91 OFFCURVE",
"109 123 OFFCURVE",
"77 153 CURVE",
"57 120 OFFCURVE",
"25 61 OFFCURVE",
"25 47 CURVE",
"77 -4 OFFCURVE",
"184 -24 OFFCURVE",
"270 6 CURVE SMOOTH"
);
},
{
closed = 1;
nodes = (
"676 475 OFFCURVE",
"630 474 OFFCURVE",
"613 473 CURVE",
"615 500 OFFCURVE",
"626 571 OFFCURVE",
"630 602 CURVE",
"518 557 LINE",
"509 494 LINE",
"506 473 OFFCURVE",
"497 468 OFFCURVE",
"467 466 CURVE SMOOTH",
"452 465 LINE",
"445 401 LINE",
"448 401 OFFCURVE",
"473 401 OFFCURVE",
"492 401 CURVE",
"481 344 OFFCURVE",
"450 149 OFFCURVE",
"456 76 CURVE SMOOTH",
"459 36 OFFCURVE",
"499 -3 OFFCURVE",
"572 -3 CURVE",
"612 4 OFFCURVE",
"635 10 OFFCURVE",
"683 32 CURVE",
"677 86 LINE",
"648 74 OFFCURVE",
"619 67 OFFCURVE",
"590 68 CURVE",
"564 104 OFFCURVE",
"592 288 OFFCURVE",
"606 400 CURVE",
"647 400 OFFCURVE",
"686 402 OFFCURVE",
"705 402 CURVE SMOOTH",
"716 402 OFFCURVE",
"717 414 OFFCURVE",
"725 478 CURVE"
);
},
{
closed = 1;
nodes = (
"281 626 OFFCURVE",
"264 534 OFFCURVE",
"297 458 CURVE",
"390 433 LINE",
"359 512 OFFCURVE",
"374 558 OFFCURVE",
"394 588 CURVE",
"411 588 OFFCURVE",
"480 563 OFFCURVE",
"516 533 CURVE",
"534 564 OFFCURVE",
"620 568 OFFCURVE",
"630 602 CURVE",
"595 633 OFFCURVE",
"474 656 OFFCURVE",
"388 656 CURVE"
);
}
);
};
layerId = "71FD7A9F-05F5-4D76-8D4F-547475A05E4C";
name = "Bold Italic";
paths = (
{
closed = 1;
nodes = (
"300 5 OFFCURVE",
"335 30 OFFCURVE",
"363 50 CURVE",
"357 100 LINE",
"339 91 OFFCURVE",
"300 72 OFFCURVE",
"244 76 CURVE SMOOTH",
"207 79 OFFCURVE",
"175 110 OFFCURVE",
"159 145 CURVE SMOOTH",
"127 215 OFFCURVE",
"136 343 OFFCURVE",
"207 396 CURVE",
"235 384 OFFCURVE",
"292 357 OFFCURVE",
"336 321 CURVE",
"355 344 OFFCURVE",
"382 394 OFFCURVE",
"393 430 CURVE",
"359 471 OFFCURVE",
"289 488 OFFCURVE",
"221 483 CURVE",
"23 459 OFFCURVE",
"-33 169 OFFCURVE",
"69 57 CURVE",
"109 13 OFFCURVE",
"155 -6 OFFCURVE",
"221 -2 CURVE"
);
},
{
closed = 1;
nodes = (
"612 4 OFFCURVE",
"635 10 OFFCURVE",
"683 32 CURVE",
"677 86 LINE",
"648 74 OFFCURVE",
"619 67 OFFCURVE",
"590 68 CURVE",
"564 104 OFFCURVE",
"592 288 OFFCURVE",
"606 400 CURVE",
"647 400 OFFCURVE",
"686 402 OFFCURVE",
"705 402 CURVE SMOOTH",
"716 402 OFFCURVE",
"717 414 OFFCURVE",
"725 478 CURVE",
"676 475 OFFCURVE",
"630 474 OFFCURVE",
"613 473 CURVE",
"615 500 OFFCURVE",
"626 571 OFFCURVE",
"630 602 CURVE",
"518 557 LINE",
"509 494 LINE",
"506 473 OFFCURVE",
"497 468 OFFCURVE",
"467 466 CURVE SMOOTH",
"452 465 LINE",
"445 401 LINE",
"448 401 OFFCURVE",
"473 401 OFFCURVE",
"492 401 CURVE",
"481 344 OFFCURVE",
"450 149 OFFCURVE",
"456 76 CURVE SMOOTH",
"459 36 OFFCURVE",
"499 -3 OFFCURVE",
"572 -3 CURVE"
);
},
{
closed = 1;
nodes = (
"362 509 OFFCURVE",
"374 558 OFFCURVE",
"394 588 CURVE",
"411 588 OFFCURVE",
"480 563 OFFCURVE",
"516 533 CURVE",
"534 564 OFFCURVE",
"620 568 OFFCURVE",
"630 602 CURVE",
"595 633 OFFCURVE",
"474 656 OFFCURVE",
"388 656 CURVE",
"281 626 OFFCURVE",
"265 534 OFFCURVE",
"298 458 CURVE",
"393 430 LINE"
);
}
);
width = 705;
}
);
leftKerningGroup = c;
leftMetricsKey = c;
rightKerningGroup = t;
rightMetricsKey = t;
},
{
glyphname = f_b.liga;
lastChange = "2015-11-23 16:17:55 +0000";
layers = (
{
background = {
paths = (
{
closed = 1;
nodes = (
"172 400 LINE",
"220 399 OFFCURVE",
"273 398 OFFCURVE",
"295 398 CURVE SMOOTH",
"306 398 OFFCURVE",
"307 414 OFFCURVE",
"315 478 CURVE",
"266 475 OFFCURVE",
"215 474 OFFCURVE",
"198 473 CURVE",
"109 572 LINE",
"91 491 LINE",
"88 470 OFFCURVE",
"79 468 OFFCURVE",
"49 466 CURVE SMOOTH",
"34 465 LINE",
"27 401 LINE",
"31 401 OFFCURVE",
"75 401 OFFCURVE",
"90 401 CURVE"
);
},
{
closed = 1;
nodes = (
"142 710 OFFCURVE",
"106 626 OFFCURVE",
"90 480 CURVE SMOOTH",
"82 406 OFFCURVE",
"68 261 OFFCURVE",
"51 103 CURVE",
"32 -65 OFFCURVE",
"20 -142 OFFCURVE",
"-11 -183 CURVE",
"-39 -169 OFFCURVE",
"-85 -127 OFFCURVE",
"-111 -103 CURVE",
"-129 -135 OFFCURVE",
"-145 -164 OFFCURVE",
"-156 -202 CURVE",
"-136 -232 OFFCURVE",
"-59 -252 OFFCURVE",
"-12 -250 CURVE",
"82 -228 OFFCURVE",
"139 -161 OFFCURVE",
"156 -1 CURVE SMOOTH",
"199 402 LINE",
"223 600 OFFCURVE",
"234 642 OFFCURVE",
"254 672 CURVE",
"268 668 OFFCURVE",
"350 643 OFFCURVE",
"379 610 CURVE",
"397 641 OFFCURVE",
"492 658 OFFCURVE",
"502 692 CURVE",
"478 722 OFFCURVE",
"380 741 OFFCURVE",
"251 740 CURVE"
);
},
{
closed = 1;
nodes = (
"448 2 OFFCURVE",
"474 11 OFFCURVE",
"500 29 CURVE",
"496 75 LINE",
"478 69 OFFCURVE",
"452 63 OFFCURVE",
"440 63 CURVE",
"434 156 OFFCURVE",
"458 299 OFFCURVE",
"474 431 CURVE SMOOTH",
"485 520 OFFCURVE",
"505 662 OFFCURVE",
"502 692 CURVE",
"472 692 OFFCURVE",
"474 707 OFFCURVE",
"459 711 CURVE",
"366 674 LINE",
"378 665 LINE",
"380 595 OFFCURVE",
"359 442 OFFCURVE",
"344 326 CURVE SMOOTH",
"332 234 OFFCURVE",
"297 47 OFFCURVE",
"321 29 CURVE SMOOTH",
"329 23 OFFCURVE",
"390 -4 OFFCURVE",
"431 -1 CURVE"
);
}
);
};
layerId = "71FD7A9F-05F5-4D76-8D4F-547475A05E4C";
name = "Bold Italic";
paths = (
{
closed = 1;
nodes = (
"173 400 LINE",
"221 399 OFFCURVE",
"274 398 OFFCURVE",
"296 398 CURVE SMOOTH",
"307 398 OFFCURVE",
"308 414 OFFCURVE",
"316 478 CURVE",
"267 475 OFFCURVE",
"219 474 OFFCURVE",
"202 473 CURVE",
"110 572 LINE",
"92 491 LINE",
"89 470 OFFCURVE",
"80 468 OFFCURVE",
"50 466 CURVE SMOOTH",
"35 465 LINE",
"28 401 LINE",
"32 401 OFFCURVE",
"76 401 OFFCURVE",
"91 401 CURVE"
);
},
{
closed = 1;
nodes = (
"142 710 OFFCURVE",
"106 626 OFFCURVE",
"90 480 CURVE SMOOTH",
"82 406 OFFCURVE",
"66 261 OFFCURVE",
"51 103 CURVE",
"32 -65 OFFCURVE",
"20 -142 OFFCURVE",
"-11 -183 CURVE",
"-39 -169 OFFCURVE",
"-85 -127 OFFCURVE",
"-111 -103 CURVE",
"-129 -135 OFFCURVE",
"-145 -164 OFFCURVE",
"-156 -202 CURVE",
"-136 -232 OFFCURVE",
"-59 -252 OFFCURVE",
"-12 -250 CURVE",
"82 -228 OFFCURVE",
"138 -161 OFFCURVE",
"155 -1 CURVE SMOOTH",
"199 403 LINE",
"223 601 OFFCURVE",
"234 642 OFFCURVE",
"254 672 CURVE",
"268 670 OFFCURVE",
"344 644 OFFCURVE",
"379 608 CURVE",
"397 639 OFFCURVE",
"490 662 OFFCURVE",
"500 696 CURVE",
"481 715 OFFCURVE",
"396 743 OFFCURVE",
"251 740 CURVE"
);
},
{
closed = 1;
nodes = (
"642 480 OFFCURVE",
"618 484 OFFCURVE",
"579 482 CURVE",
"546 457 OFFCURVE",
"488 381 OFFCURVE",
"464 347 CURVE",
"490 543 OFFCURVE",
"506 674 OFFCURVE",
"500 695 CURVE SMOOTH",
"496 709 OFFCURVE",
"351 739 OFFCURVE",
"338 732 CURVE",
"328 698 LINE",
"335 694 OFFCURVE",
"357 679 OFFCURVE",
"371 667 CURVE",
"373 648 OFFCURVE",
"377 606 OFFCURVE",
"374 569 CURVE SMOOTH",
"361 420 OFFCURVE",
"329 157 OFFCURVE",
"305 18 CURVE",
"312 11 OFFCURVE",
"332 4 OFFCURVE",
"353 -1 CURVE SMOOTH",
"365 -4 OFFCURVE",
"372 6 OFFCURVE",
"389 42 CURVE",
"424 17 OFFCURVE",
"493 -11 OFFCURVE",
"557 -4 CURVE",
"733 45 OFFCURVE",
"782 312 OFFCURVE",
"674 442 CURVE SMOOTH"
);
},
{
closed = 1;
nodes = (
"537 63 LINE SMOOTH",
"537 63 OFFCURVE",
"484 68 OFFCURVE",
"431 137 CURVE",
"448 232 LINE",
"481 290 OFFCURVE",
"538 351 OFFCURVE",
"556 368 CURVE",
"563 368 OFFCURVE",
"579 354 OFFCURVE",
"588 329 CURVE SMOOTH",
"618 247 OFFCURVE",
"616 106 OFFCURVE",
"537 63 CURVE"
);
}
);
width = 750;
}
);
leftKerningGroup = f;
leftMetricsKey = f;
rightKerningGroup = o;
rightMetricsKey = b;
},
{
glyphname = f_f.liga;
lastChange = "2015-11-23 16:17:55 +0000";
layers = (
{
layerId = "71FD7A9F-05F5-4D76-8D4F-547475A05E4C";
name = "Bold Italic";
paths = (
{
closed = 1;
nodes = (
"172 400 LINE",
"220 399 OFFCURVE",
"341 398 OFFCURVE",
"363 398 CURVE SMOOTH",
"374 398 OFFCURVE",
"361 411 OFFCURVE",
"369 475 CURVE",
"320 472 OFFCURVE",
"215 472 OFFCURVE",
"198 471 CURVE",
"109 572 LINE",
"91 491 LINE",
"88 470 OFFCURVE",
"79 468 OFFCURVE",
"49 466 CURVE SMOOTH",
"34 465 LINE",
"27 401 LINE",
"31 401 OFFCURVE",
"75 401 OFFCURVE",
"90 401 CURVE"
);
},
{
closed = 1;
nodes = (
"143 702 OFFCURVE",
"106 626 OFFCURVE",
"90 480 CURVE SMOOTH",
"82 406 OFFCURVE",
"68 261 OFFCURVE",
"51 103 CURVE",
"32 -65 OFFCURVE",
"20 -142 OFFCURVE",
"-11 -183 CURVE",
"-39 -169 OFFCURVE",
"-85 -127 OFFCURVE",
"-111 -103 CURVE",
"-129 -135 OFFCURVE",
"-145 -164 OFFCURVE",
"-156 -202 CURVE",
"-136 -232 OFFCURVE",
"-59 -252 OFFCURVE",
"-12 -250 CURVE",
"82 -228 OFFCURVE",
"139 -161 OFFCURVE",
"156 -1 CURVE SMOOTH",
"199 400 LINE",
"223 598 OFFCURVE",
"237 635 OFFCURVE",
"258 664 CURVE",
"289 664 OFFCURVE",
"335 637 OFFCURVE",
"382 582 CURVE",
"400 613 OFFCURVE",
"421 648 OFFCURVE",
"431 682 CURVE",
"393 713 OFFCURVE",
"332 736 OFFCURVE",
"252 732 CURVE"
);
},
{
closed = 1;
nodes = (
"445 400 LINE",
"493 399 OFFCURVE",
"546 398 OFFCURVE",
"568 398 CURVE SMOOTH",
"579 398 OFFCURVE",
"580 414 OFFCURVE",
"588 478 CURVE",
"539 475 OFFCURVE",
"491 474 OFFCURVE",
"474 473 CURVE",
"382 572 LINE",
"364 491 LINE",
"361 470 OFFCURVE",
"352 468 OFFCURVE",
"322 466 CURVE SMOOTH",
"307 465 LINE",
"300 401 LINE",
"304 401 OFFCURVE",
"348 401 OFFCURVE",
"363 401 CURVE"
);
},
{
closed = 1;
nodes = (
"415 710 OFFCURVE",
"379 626 OFFCURVE",
"363 480 CURVE SMOOTH",
"355 406 OFFCURVE",
"343 282 OFFCURVE",
"328 124 CURVE",
"309 -44 OFFCURVE",
"297 -123 OFFCURVE",
"266 -164 CURVE",
"238 -150 OFFCURVE",
"208 -125 OFFCURVE",
"182 -101 CURVE",
"164 -133 OFFCURVE",
"154 -152 OFFCURVE",
"140 -190 CURVE",
"160 -220 OFFCURVE",
"218 -231 OFFCURVE",
"265 -229 CURVE",
"359 -207 OFFCURVE",
"414 -140 OFFCURVE",
"429 20 CURVE SMOOTH",
"466 403 LINE",
"490 601 OFFCURVE",
"507 642 OFFCURVE",
"527 672 CURVE",
"541 670 OFFCURVE",
"592 623 OFFCURVE",
"629 593 CURVE",
"647 624 OFFCURVE",
"663 661 OFFCURVE",
"673 695 CURVE",
"641 725 OFFCURVE",
"585 741 OFFCURVE",
"524 740 CURVE"
);
}
);
width = 555;
}
);
leftKerningGroup = f;
leftMetricsKey = f;
rightKerningGroup = f;
rightMetricsKey = f;
},
{
glyphname = f_f_b.liga;
lastChange = "2015-11-23 16:17:55 +0000";
layers = (
{
background = {
paths = (
{
closed = 1;
nodes = (
"446 400 LINE",
"494 399 OFFCURVE",
"547 398 OFFCURVE",
"569 398 CURVE SMOOTH",
"580 398 OFFCURVE",
"581 414 OFFCURVE",
"589 478 CURVE",
"540 475 OFFCURVE",
"492 474 OFFCURVE",
"475 473 CURVE",
"383 572 LINE",
"365 491 LINE",
"362 470 OFFCURVE",
"353 468 OFFCURVE",
"323 466 CURVE SMOOTH",
"308 465 LINE",
"301 401 LINE",
"305 401 OFFCURVE",
"349 401 OFFCURVE",
"364 401 CURVE"
);
},
{
closed = 1;
nodes = (
"415 710 OFFCURVE",
"379 626 OFFCURVE",
"363 480 CURVE SMOOTH",
"355 406 OFFCURVE",
"339 261 OFFCURVE",
"324 103 CURVE",
"305 -65 OFFCURVE",
"293 -142 OFFCURVE",
"262 -183 CURVE",
"234 -169 OFFCURVE",
"188 -127 OFFCURVE",
"162 -103 CURVE",
"144 -135 OFFCURVE",
"128 -164 OFFCURVE",
"117 -202 CURVE",
"137 -232 OFFCURVE",
"214 -252 OFFCURVE",
"261 -250 CURVE",
"355 -228 OFFCURVE",
"411 -161 OFFCURVE",
"428 -1 CURVE SMOOTH",
"472 403 LINE",
"496 601 OFFCURVE",
"507 642 OFFCURVE",
"527 672 CURVE",
"541 670 OFFCURVE",
"617 644 OFFCURVE",
"652 608 CURVE",
"670 639 OFFCURVE",
"763 662 OFFCURVE",
"773 696 CURVE",
"754 715 OFFCURVE",
"669 743 OFFCURVE",
"524 740 CURVE"
);
},
{
closed = 1;
nodes = (
"915 480 OFFCURVE",
"891 484 OFFCURVE",
"852 482 CURVE",
"819 457 OFFCURVE",
"761 381 OFFCURVE",
"737 347 CURVE",
"763 543 OFFCURVE",
"779 674 OFFCURVE",
"773 695 CURVE SMOOTH",
"769 709 OFFCURVE",
"624 739 OFFCURVE",
"611 732 CURVE",
"601 698 LINE",
"608 694 OFFCURVE",
"630 679 OFFCURVE",
"644 667 CURVE",
"646 648 OFFCURVE",
"650 606 OFFCURVE",
"647 569 CURVE SMOOTH",
"634 420 OFFCURVE",
"602 157 OFFCURVE",
"578 18 CURVE",
"585 11 OFFCURVE",
"605 4 OFFCURVE",
"626 -1 CURVE SMOOTH",
"638 -4 OFFCURVE",
"645 6 OFFCURVE",
"662 42 CURVE",
"697 17 OFFCURVE",
"766 -11 OFFCURVE",
"830 -4 CURVE",
"1006 45 OFFCURVE",
"1055 312 OFFCURVE",
"947 442 CURVE SMOOTH"
);
},
{
closed = 1;
nodes = (
"810 63 LINE SMOOTH",
"810 63 OFFCURVE",
"757 68 OFFCURVE",
"704 137 CURVE",
"721 232 LINE",
"754 290 OFFCURVE",
"811 351 OFFCURVE",
"829 368 CURVE",
"836 368 OFFCURVE",
"852 354 OFFCURVE",
"861 329 CURVE SMOOTH",
"891 247 OFFCURVE",
"889 106 OFFCURVE",
"810 63 CURVE"
);
}
);
};
layerId = "71FD7A9F-05F5-4D76-8D4F-547475A05E4C";
name = "Bold Italic";
paths = (
{
closed = 1;
nodes = (
"172 400 LINE",
"220 399 OFFCURVE",
"341 398 OFFCURVE",
"363 398 CURVE SMOOTH",
"374 398 OFFCURVE",
"361 411 OFFCURVE",
"369 475 CURVE",
"320 472 OFFCURVE",
"215 472 OFFCURVE",
"198 471 CURVE",
"109 572 LINE",
"91 491 LINE",
"88 470 OFFCURVE",
"79 468 OFFCURVE",
"49 466 CURVE SMOOTH",
"34 465 LINE",
"27 401 LINE",
"31 401 OFFCURVE",
"75 401 OFFCURVE",
"90 401 CURVE"
);
},
{
closed = 1;
nodes = (
"143 702 OFFCURVE",
"106 626 OFFCURVE",
"90 480 CURVE SMOOTH",
"82 406 OFFCURVE",
"68 261 OFFCURVE",
"51 103 CURVE",
"32 -65 OFFCURVE",
"20 -142 OFFCURVE",
"-11 -183 CURVE",
"-39 -169 OFFCURVE",
"-85 -127 OFFCURVE",
"-111 -103 CURVE",
"-129 -135 OFFCURVE",
"-145 -164 OFFCURVE",
"-156 -202 CURVE",
"-136 -232 OFFCURVE",
"-59 -252 OFFCURVE",
"-12 -250 CURVE",
"82 -228 OFFCURVE",
"139 -161 OFFCURVE",
"156 -1 CURVE SMOOTH",
"199 400 LINE",
"223 598 OFFCURVE",
"237 635 OFFCURVE",
"258 664 CURVE",
"289 664 OFFCURVE",
"335 637 OFFCURVE",
"382 582 CURVE",
"400 613 OFFCURVE",
"421 648 OFFCURVE",
"431 682 CURVE",
"393 713 OFFCURVE",
"332 736 OFFCURVE",
"252 732 CURVE"
);
},
{
closed = 1;
nodes = (
"415 710 OFFCURVE",
"379 626 OFFCURVE",
"363 480 CURVE SMOOTH",
"355 406 OFFCURVE",
"343 282 OFFCURVE",
"328 124 CURVE",
"309 -44 OFFCURVE",
"297 -123 OFFCURVE",
"266 -164 CURVE",
"238 -150 OFFCURVE",
"208 -125 OFFCURVE",
"182 -101 CURVE",
"164 -133 OFFCURVE",
"154 -152 OFFCURVE",
"140 -190 CURVE",
"160 -220 OFFCURVE",
"218 -231 OFFCURVE",
"265 -229 CURVE",
"359 -207 OFFCURVE",
"414 -140 OFFCURVE",
"429 20 CURVE SMOOTH",
"466 403 LINE",
"490 601 OFFCURVE",
"507 642 OFFCURVE",
"527 672 CURVE",
"541 670 OFFCURVE",
"618 642 OFFCURVE",
"652 608 CURVE",
"670 639 OFFCURVE",
"763 661 OFFCURVE",
"773 695 CURVE",
"741 729 OFFCURVE",
"612 742 OFFCURVE",
"524 740 CURVE"
);
},
{
closed = 1;
nodes = (
"446 400 LINE",
"494 399 OFFCURVE",
"547 398 OFFCURVE",
"569 398 CURVE SMOOTH",
"580 398 OFFCURVE",
"581 414 OFFCURVE",
"589 478 CURVE",
"540 475 OFFCURVE",
"492 474 OFFCURVE",
"475 473 CURVE",
"383 572 LINE",
"365 491 LINE",
"362 470 OFFCURVE",
"353 468 OFFCURVE",
"323 466 CURVE SMOOTH",
"308 465 LINE",
"301 401 LINE",
"305 401 OFFCURVE",
"349 401 OFFCURVE",
"364 401 CURVE"
);
},
{
closed = 1;
nodes = (
"915 480 OFFCURVE",
"891 484 OFFCURVE",
"852 482 CURVE",
"819 457 OFFCURVE",
"761 381 OFFCURVE",
"737 347 CURVE",
"763 543 OFFCURVE",
"779 674 OFFCURVE",
"773 695 CURVE SMOOTH",
"769 709 OFFCURVE",
"624 739 OFFCURVE",
"611 732 CURVE",
"601 698 LINE",
"608 694 OFFCURVE",
"630 679 OFFCURVE",
"644 667 CURVE",
"646 648 OFFCURVE",
"650 606 OFFCURVE",
"647 569 CURVE SMOOTH",
"634 420 OFFCURVE",
"602 157 OFFCURVE",
"578 18 CURVE",
"585 11 OFFCURVE",
"605 4 OFFCURVE",
"626 -1 CURVE SMOOTH",
"638 -4 OFFCURVE",
"645 6 OFFCURVE",
"662 42 CURVE",
"697 17 OFFCURVE",
"766 -11 OFFCURVE",
"830 -4 CURVE",
"1006 45 OFFCURVE",
"1055 312 OFFCURVE",
"947 442 CURVE SMOOTH"
);
},
{
closed = 1;
nodes = (
"810 63 LINE SMOOTH",
"810 63 OFFCURVE",
"757 68 OFFCURVE",
"704 137 CURVE",
"721 232 LINE",
"754 290 OFFCURVE",
"811 351 OFFCURVE",
"829 368 CURVE",
"836 368 OFFCURVE",
"852 354 OFFCURVE",
"861 329 CURVE SMOOTH",
"891 247 OFFCURVE",
"889 106 OFFCURVE",
"810 63 CURVE"
);
}
);
width = 1023;
}
);
leftKerningGroup = f;
leftMetricsKey = f;
rightKerningGroup = o;
rightMetricsKey = b;
},
{
glyphname = f_f_h.liga;
lastChange = "2015-11-23 16:17:55 +0000";
layers = (
{
background = {
paths = (
{
closed = 1;
nodes = (
"172 400 LINE",
"220 399 OFFCURVE",
"341 398 OFFCURVE",
"363 398 CURVE SMOOTH",
"374 398 OFFCURVE",
"361 411 OFFCURVE",
"369 475 CURVE",
"320 472 OFFCURVE",
"215 472 OFFCURVE",
"198 471 CURVE",
"109 572 LINE",
"91 491 LINE",
"88 470 OFFCURVE",
"79 468 OFFCURVE",
"49 466 CURVE SMOOTH",
"34 465 LINE",
"27 401 LINE",
"31 401 OFFCURVE",
"75 401 OFFCURVE",
"90 401 CURVE"
);
},
{
closed = 1;
nodes = (
"143 702 OFFCURVE",
"106 626 OFFCURVE",
"90 480 CURVE SMOOTH",
"82 406 OFFCURVE",
"68 261 OFFCURVE",
"51 103 CURVE",
"32 -65 OFFCURVE",
"20 -142 OFFCURVE",
"-11 -183 CURVE",
"-39 -169 OFFCURVE",
"-85 -127 OFFCURVE",
"-111 -103 CURVE",
"-129 -135 OFFCURVE",
"-145 -164 OFFCURVE",
"-156 -202 CURVE",
"-136 -232 OFFCURVE",
"-59 -252 OFFCURVE",
"-12 -250 CURVE",
"82 -228 OFFCURVE",
"139 -161 OFFCURVE",
"156 -1 CURVE SMOOTH",
"199 400 LINE",
"223 598 OFFCURVE",
"237 635 OFFCURVE",
"258 664 CURVE",
"289 664 OFFCURVE",
"335 637 OFFCURVE",
"382 582 CURVE",
"400 613 OFFCURVE",
"421 648 OFFCURVE",
"431 682 CURVE",
"393 713 OFFCURVE",
"332 736 OFFCURVE",
"252 732 CURVE"
);
},
{
closed = 1;
nodes = (
"415 710 OFFCURVE",
"379 626 OFFCURVE",
"363 480 CURVE SMOOTH",
"355 406 OFFCURVE",
"343 282 OFFCURVE",
"328 124 CURVE",
"309 -44 OFFCURVE",
"297 -123 OFFCURVE",
"266 -164 CURVE",
"238 -150 OFFCURVE",
"208 -125 OFFCURVE",
"182 -101 CURVE",
"164 -133 OFFCURVE",
"154 -152 OFFCURVE",
"140 -190 CURVE",
"160 -220 OFFCURVE",
"218 -231 OFFCURVE",
"265 -229 CURVE",
"359 -207 OFFCURVE",
"414 -140 OFFCURVE",
"429 20 CURVE SMOOTH",
"466 403 LINE",
"490 601 OFFCURVE",
"507 642 OFFCURVE",
"527 672 CURVE",
"541 670 OFFCURVE",
"618 642 OFFCURVE",
"652 608 CURVE",
"670 639 OFFCURVE",
"763 661 OFFCURVE",
"773 695 CURVE",
"741 729 OFFCURVE",
"612 742 OFFCURVE",
"524 740 CURVE"
);
},
{
closed = 1;
nodes = (
"446 400 LINE",
"494 399 OFFCURVE",
"547 398 OFFCURVE",
"569 398 CURVE SMOOTH",
"580 398 OFFCURVE",
"581 414 OFFCURVE",
"589 478 CURVE",
"540 475 OFFCURVE",
"492 474 OFFCURVE",
"475 473 CURVE",
"383 572 LINE",
"365 491 LINE",
"362 470 OFFCURVE",
"353 468 OFFCURVE",
"323 466 CURVE SMOOTH",
"308 465 LINE",
"301 401 LINE",
"305 401 OFFCURVE",
"349 401 OFFCURVE",
"364 401 CURVE"
);
},
{
closed = 1;
nodes = (
"915 480 OFFCURVE",
"891 484 OFFCURVE",
"852 482 CURVE",
"819 457 OFFCURVE",
"761 381 OFFCURVE",
"737 347 CURVE",
"763 543 OFFCURVE",
"779 674 OFFCURVE",
"773 695 CURVE SMOOTH",
"769 709 OFFCURVE",
"624 739 OFFCURVE",
"611 732 CURVE",
"601 698 LINE",
"608 694 OFFCURVE",
"630 679 OFFCURVE",
"644 667 CURVE",
"646 648 OFFCURVE",
"650 606 OFFCURVE",
"647 569 CURVE SMOOTH",
"634 420 OFFCURVE",
"602 157 OFFCURVE",
"578 18 CURVE",
"585 11 OFFCURVE",
"605 4 OFFCURVE",
"626 -1 CURVE SMOOTH",
"638 -4 OFFCURVE",
"645 6 OFFCURVE",
"662 42 CURVE",
"697 17 OFFCURVE",
"766 -11 OFFCURVE",
"830 -4 CURVE",
"1006 45 OFFCURVE",
"1055 312 OFFCURVE",
"947 442 CURVE SMOOTH"
);
}
);
};
layerId = "71FD7A9F-05F5-4D76-8D4F-547475A05E4C";
name = "Bold Italic";
paths = (
{
closed = 1;
nodes = (
"172 400 LINE",
"220 399 OFFCURVE",
"341 398 OFFCURVE",
"363 398 CURVE SMOOTH",
"374 398 OFFCURVE",
"361 411 OFFCURVE",
"369 475 CURVE",
"320 472 OFFCURVE",
"215 472 OFFCURVE",
"198 471 CURVE",
"109 572 LINE",
"91 491 LINE",
"88 470 OFFCURVE",
"79 468 OFFCURVE",
"49 466 CURVE SMOOTH",
"34 465 LINE",
"27 401 LINE",
"31 401 OFFCURVE",
"75 401 OFFCURVE",
"90 401 CURVE"
);
},
{
closed = 1;
nodes = (
"143 702 OFFCURVE",
"106 626 OFFCURVE",
"90 480 CURVE SMOOTH",
"82 406 OFFCURVE",
"68 261 OFFCURVE",
"51 103 CURVE",
"32 -65 OFFCURVE",
"20 -142 OFFCURVE",
"-11 -183 CURVE",
"-39 -169 OFFCURVE",
"-85 -127 OFFCURVE",
"-111 -103 CURVE",
"-129 -135 OFFCURVE",
"-145 -164 OFFCURVE",
"-156 -202 CURVE",
"-136 -232 OFFCURVE",
"-59 -252 OFFCURVE",
"-12 -250 CURVE",
"82 -228 OFFCURVE",
"139 -161 OFFCURVE",
"156 -1 CURVE SMOOTH",
"199 400 LINE",
"223 598 OFFCURVE",
"237 635 OFFCURVE",
"258 664 CURVE",
"289 664 OFFCURVE",
"335 637 OFFCURVE",
"382 582 CURVE",
"400 613 OFFCURVE",
"421 648 OFFCURVE",
"431 682 CURVE",
"393 713 OFFCURVE",
"332 736 OFFCURVE",
"252 732 CURVE"
);
},
{
closed = 1;
nodes = (
"415 710 OFFCURVE",
"379 626 OFFCURVE",
"363 480 CURVE SMOOTH",
"355 406 OFFCURVE",
"343 282 OFFCURVE",
"328 124 CURVE",
"309 -44 OFFCURVE",
"297 -123 OFFCURVE",
"266 -164 CURVE",
"238 -150 OFFCURVE",
"208 -125 OFFCURVE",
"182 -101 CURVE",
"164 -133 OFFCURVE",
"154 -152 OFFCURVE",
"140 -190 CURVE",
"160 -220 OFFCURVE",
"218 -231 OFFCURVE",
"265 -229 CURVE",
"359 -207 OFFCURVE",
"414 -140 OFFCURVE",
"429 20 CURVE SMOOTH",
"466 403 LINE",
"490 601 OFFCURVE",
"507 642 OFFCURVE",
"527 672 CURVE",
"541 670 OFFCURVE",
"618 642 OFFCURVE",
"652 608 CURVE",
"670 639 OFFCURVE",
"763 661 OFFCURVE",
"773 695 CURVE",
"741 729 OFFCURVE",
"612 742 OFFCURVE",
"524 740 CURVE"
);
},
{
closed = 1;
nodes = (
"446 400 LINE",
"494 399 OFFCURVE",
"547 398 OFFCURVE",
"569 398 CURVE SMOOTH",
"580 398 OFFCURVE",
"581 414 OFFCURVE",
"589 478 CURVE",
"540 475 OFFCURVE",
"492 474 OFFCURVE",
"475 473 CURVE",
"383 572 LINE",
"365 491 LINE",
"362 470 OFFCURVE",
"353 468 OFFCURVE",
"323 466 CURVE SMOOTH",
"308 465 LINE",
"301 401 LINE",
"305 401 OFFCURVE",
"349 401 OFFCURVE",
"364 401 CURVE"
);
},
{
closed = 1;
nodes = (
"903 483 LINE",
"823 437 OFFCURVE",
"748 307 OFFCURVE",
"727 276 CURVE",
"750 457 OFFCURVE",
"788 676 OFFCURVE",
"773 695 CURVE SMOOTH",
"762 708 OFFCURVE",
"630 738 OFFCURVE",
"610 731 CURVE",
"600 698 LINE",
"648 666 LINE",
"655 617 OFFCURVE",
"638 479 OFFCURVE",
"623 353 CURVE SMOOTH",
"607 217 OFFCURVE",
"582 43 OFFCURVE",
"580 32 CURVE",
"580 20 OFFCURVE",
"657 -5 OFFCURVE",
"705 -5 CURVE SMOOTH",
"720 -5 OFFCURVE",
"722 41 OFFCURVE",
"715 132 CURVE",
"757 236 OFFCURVE",
"841 334 OFFCURVE",
"869 360 CURVE",
"841 255 OFFCURVE",
"821 75 OFFCURVE",
"840 44 CURVE SMOOTH",
"850 28 OFFCURVE",
"902 -2 OFFCURVE",
"956 -2 CURVE",
"988 7 OFFCURVE",
"1007 17 OFFCURVE",
"1019 25 CURVE",
"1015 70 LINE",
"1001 65 OFFCURVE",
"980 59 OFFCURVE",
"965 59 CURVE",
"945 124 OFFCURVE",
"986 371 OFFCURVE",
"1006 444 CURVE"
);
}
);
width = 1052;
}
);
leftKerningGroup = f;
leftMetricsKey = f;
rightKerningGroup = i;
rightMetricsKey = h;
},
{
glyphname = f_f_i.liga;
lastChange = "2015-11-23 16:17:55 +0000";
layers = (
{
background = {
paths = (
{
closed = 1;
nodes = (
"21 400 LINE",
"21 399 OFFCURVE",
"21 398 OFFCURVE",
"21 398 CURVE SMOOTH",
"21 398 OFFCURVE",
"21 411 OFFCURVE",
"21 475 CURVE",
"21 472 OFFCURVE",
"21 472 OFFCURVE",
"21 471 CURVE",
"21 572 LINE",
"21 491 LINE",
"21 470 OFFCURVE",
"21 468 OFFCURVE",
"21 466 CURVE SMOOTH",
"21 465 LINE",
"21 401 LINE",
"21 401 OFFCURVE",
"21 401 OFFCURVE",
"21 401 CURVE"
);
},
{
closed = 1;
nodes = (
"21 702 OFFCURVE",
"21 626 OFFCURVE",
"21 480 CURVE SMOOTH",
"21 406 OFFCURVE",
"21 261 OFFCURVE",
"21 103 CURVE",
"21 -65 OFFCURVE",
"21 -142 OFFCURVE",
"21 -183 CURVE",
"21 -169 OFFCURVE",
"21 -127 OFFCURVE",
"21 -103 CURVE",
"21 -135 OFFCURVE",
"21 -164 OFFCURVE",
"21 -202 CURVE",
"21 -232 OFFCURVE",
"21 -252 OFFCURVE",
"21 -250 CURVE",
"21 -228 OFFCURVE",
"21 -161 OFFCURVE",
"21 -1 CURVE SMOOTH",
"21 400 LINE",
"21 598 OFFCURVE",
"21 635 OFFCURVE",
"21 664 CURVE",
"21 664 OFFCURVE",
"21 637 OFFCURVE",
"21 582 CURVE",
"21 613 OFFCURVE",
"21 648 OFFCURVE",
"21 682 CURVE",
"21 713 OFFCURVE",
"21 736 OFFCURVE",
"21 732 CURVE"
);
},
{
closed = 1;
nodes = (
"21 710 OFFCURVE",
"21 626 OFFCURVE",
"21 480 CURVE SMOOTH",
"21 406 OFFCURVE",
"21 282 OFFCURVE",
"21 124 CURVE",
"21 -44 OFFCURVE",
"21 -123 OFFCURVE",
"21 -164 CURVE",
"21 -150 OFFCURVE",
"21 -125 OFFCURVE",
"21 -101 CURVE",
"21 -133 OFFCURVE",
"21 -152 OFFCURVE",
"21 -190 CURVE",
"21 -220 OFFCURVE",
"21 -231 OFFCURVE",
"21 -229 CURVE",
"21 -207 OFFCURVE",
"21 -140 OFFCURVE",
"21 20 CURVE SMOOTH",
"21 403 LINE",
"21 601 OFFCURVE",
"21 642 OFFCURVE",
"21 672 CURVE",
"21 670 OFFCURVE",
"21 642 OFFCURVE",
"21 608 CURVE",
"21 639 OFFCURVE",
"21 661 OFFCURVE",
"21 695 CURVE",
"21 729 OFFCURVE",
"21 742 OFFCURVE",
"21 740 CURVE"
);
},
{
closed = 1;
nodes = (
"21 400 LINE",
"21 399 OFFCURVE",
"21 398 OFFCURVE",
"21 398 CURVE SMOOTH",
"21 398 OFFCURVE",
"21 414 OFFCURVE",
"21 478 CURVE",
"21 475 OFFCURVE",
"21 474 OFFCURVE",
"21 473 CURVE",
"21 572 LINE",
"21 491 LINE",
"21 470 OFFCURVE",
"21 468 OFFCURVE",
"21 466 CURVE SMOOTH",
"21 465 LINE",
"21 401 LINE",
"21 401 OFFCURVE",
"21 401 OFFCURVE",
"21 401 CURVE"
);
},
{
closed = 1;
nodes = (
"21 483 LINE",
"21 437 OFFCURVE",
"21 307 OFFCURVE",
"21 276 CURVE",
"21 457 OFFCURVE",
"21 676 OFFCURVE",
"21 695 CURVE SMOOTH",
"21 708 OFFCURVE",
"21 738 OFFCURVE",
"21 731 CURVE",
"21 698 LINE",
"21 666 LINE",
"21 617 OFFCURVE",
"21 479 OFFCURVE",
"21 353 CURVE SMOOTH",
"21 217 OFFCURVE",
"21 43 OFFCURVE",
"21 32 CURVE",
"21 20 OFFCURVE",
"21 -5 OFFCURVE",
"21 -5 CURVE SMOOTH",
"21 -5 OFFCURVE",
"21 41 OFFCURVE",
"21 132 CURVE",
"21 236 OFFCURVE",
"21 334 OFFCURVE",
"21 360 CURVE",
"21 255 OFFCURVE",
"21 75 OFFCURVE",
"21 44 CURVE SMOOTH",
"21 28 OFFCURVE",
"21 -2 OFFCURVE",
"21 -2 CURVE",
"21 7 OFFCURVE",
"21 17 OFFCURVE",
"21 25 CURVE",
"21 70 LINE",
"21 65 OFFCURVE",
"21 59 OFFCURVE",
"21 59 CURVE",
"21 124 OFFCURVE",
"21 371 OFFCURVE",
"21 444 CURVE"
);
}
);
};
layerId = "71FD7A9F-05F5-4D76-8D4F-547475A05E4C";
name = "Bold Italic";
paths = (
{
closed = 1;
nodes = (
"172 400 LINE",
"220 399 OFFCURVE",
"341 398 OFFCURVE",
"363 398 CURVE SMOOTH",
"374 398 OFFCURVE",
"361 411 OFFCURVE",
"369 475 CURVE",
"320 472 OFFCURVE",
"215 472 OFFCURVE",
"198 471 CURVE",
"109 572 LINE",
"91 491 LINE",
"88 470 OFFCURVE",
"79 468 OFFCURVE",
"49 466 CURVE SMOOTH",
"34 465 LINE",
"27 401 LINE",
"31 401 OFFCURVE",
"75 401 OFFCURVE",
"90 401 CURVE"
);
},
{
closed = 1;
nodes = (
"143 702 OFFCURVE",
"106 626 OFFCURVE",
"90 480 CURVE SMOOTH",
"82 406 OFFCURVE",
"68 261 OFFCURVE",
"51 103 CURVE",
"32 -65 OFFCURVE",
"20 -142 OFFCURVE",
"-11 -183 CURVE",
"-39 -169 OFFCURVE",
"-85 -127 OFFCURVE",
"-111 -103 CURVE",
"-129 -135 OFFCURVE",
"-145 -164 OFFCURVE",
"-156 -202 CURVE",
"-136 -232 OFFCURVE",
"-59 -252 OFFCURVE",
"-12 -250 CURVE",
"82 -228 OFFCURVE",
"139 -161 OFFCURVE",
"156 -1 CURVE SMOOTH",
"199 400 LINE",
"223 598 OFFCURVE",
"237 635 OFFCURVE",
"258 664 CURVE",
"289 664 OFFCURVE",
"335 637 OFFCURVE",
"382 582 CURVE",
"400 613 OFFCURVE",
"421 648 OFFCURVE",
"431 682 CURVE",
"393 713 OFFCURVE",
"332 736 OFFCURVE",
"252 732 CURVE"
);
},
{
closed = 1;
nodes = (
"705 600 OFFCURVE",
"721 637 OFFCURVE",
"731 671 CURVE",
"725 692 OFFCURVE",
"654 743 OFFCURVE",
"527 740 CURVE SMOOTH",
"524 740 LINE",
"415 710 OFFCURVE",
"379 626 OFFCURVE",
"363 480 CURVE SMOOTH",
"355 406 OFFCURVE",
"343 282 OFFCURVE",
"328 124 CURVE SMOOTH",
"309 -44 OFFCURVE",
"297 -123 OFFCURVE",
"266 -164 CURVE",
"238 -150 OFFCURVE",
"208 -125 OFFCURVE",
"182 -101 CURVE",
"164 -133 OFFCURVE",
"154 -152 OFFCURVE",
"140 -190 CURVE",
"160 -220 OFFCURVE",
"218 -231 OFFCURVE",
"265 -229 CURVE",
"355 -208 OFFCURVE",
"409 -146 OFFCURVE",
"427 -1 CURVE SMOOTH",
"468 404 LINE SMOOTH",
"492 601 OFFCURVE",
"509 642 OFFCURVE",
"529 672 CURVE",
"530 671 OFFCURVE",
"532 671 OFFCURVE",
"533 670 CURVE",
"558 660 OFFCURVE",
"653 597 OFFCURVE",
"687 569 CURVE"
);
},
{
closed = 1;
nodes = (
"731 67 OFFCURVE",
"708 60 OFFCURVE",
"693 60 CURVE",
"674 122 OFFCURVE",
"736 434 OFFCURVE",
"738 451 CURVE",
"683 480 LINE",
"619 477 OFFCURVE",
"493 470 OFFCURVE",
"476 469 CURVE",
"384 572 LINE",
"366 491 LINE",
"363 470 OFFCURVE",
"354 468 OFFCURVE",
"324 466 CURVE SMOOTH",
"309 465 LINE",
"302 401 LINE",
"365 401 LINE",
"447 403 LINE SMOOTH",
"483 404 OFFCURVE",
"585 399 OFFCURVE",
"614 395 CURVE",
"596 300 OFFCURVE",
"554 47 OFFCURVE",
"581 27 CURVE SMOOTH",
"603 11 OFFCURVE",
"638 -5 OFFCURVE",
"684 -4 CURVE",
"702 -1 OFFCURVE",
"735 14 OFFCURVE",
"751 26 CURVE",
"747 72 LINE"
);
}
);
width = 783;
}
);
leftKerningGroup = f;
leftMetricsKey = f;
rightKerningGroup = i;
rightMetricsKey = i;
},
{
glyphname = f_f_j.liga;
lastChange = "2015-11-23 16:17:55 +0000";
layers = (
{
background = {
paths = (
{
closed = 1;
nodes = (
"172 400 LINE",
"220 399 OFFCURVE",
"341 398 OFFCURVE",
"363 398 CURVE SMOOTH",
"374 398 OFFCURVE",
"361 411 OFFCURVE",
"369 475 CURVE",
"320 472 OFFCURVE",
"215 472 OFFCURVE",
"198 471 CURVE",
"109 572 LINE",
"91 491 LINE",
"88 470 OFFCURVE",
"79 468 OFFCURVE",
"49 466 CURVE SMOOTH",
"34 465 LINE",
"27 401 LINE",
"31 401 OFFCURVE",
"75 401 OFFCURVE",
"90 401 CURVE"
);
},
{
closed = 1;
nodes = (
"143 702 OFFCURVE",
"106 626 OFFCURVE",
"90 480 CURVE SMOOTH",
"82 406 OFFCURVE",
"68 261 OFFCURVE",
"51 103 CURVE",
"32 -65 OFFCURVE",
"20 -142 OFFCURVE",
"-11 -183 CURVE",
"-39 -169 OFFCURVE",
"-85 -127 OFFCURVE",
"-111 -103 CURVE",
"-129 -135 OFFCURVE",
"-145 -164 OFFCURVE",
"-156 -202 CURVE",
"-136 -232 OFFCURVE",
"-59 -252 OFFCURVE",
"-12 -250 CURVE",
"82 -228 OFFCURVE",
"139 -161 OFFCURVE",
"156 -1 CURVE SMOOTH",
"199 400 LINE",
"223 598 OFFCURVE",
"237 635 OFFCURVE",
"258 664 CURVE",
"289 664 OFFCURVE",
"335 637 OFFCURVE",
"382 582 CURVE",
"400 613 OFFCURVE",
"421 648 OFFCURVE",
"431 682 CURVE",
"393 713 OFFCURVE",
"332 736 OFFCURVE",
"252 732 CURVE"
);
},
{
closed = 1;
nodes = (
"415 710 OFFCURVE",
"379 626 OFFCURVE",
"363 480 CURVE SMOOTH",
"355 406 OFFCURVE",
"343 282 OFFCURVE",
"328 124 CURVE",
"309 -44 OFFCURVE",
"297 -123 OFFCURVE",
"266 -164 CURVE",
"238 -150 OFFCURVE",
"208 -125 OFFCURVE",
"182 -101 CURVE",
"164 -133 OFFCURVE",
"154 -152 OFFCURVE",
"140 -190 CURVE",
"160 -220 OFFCURVE",
"218 -231 OFFCURVE",
"265 -229 CURVE",
"359 -207 OFFCURVE",
"414 -140 OFFCURVE",
"429 20 CURVE SMOOTH",
"466 403 LINE",
"490 601 OFFCURVE",
"507 642 OFFCURVE",
"527 672 CURVE",
"541 670 OFFCURVE",
"618 642 OFFCURVE",
"652 608 CURVE",
"670 639 OFFCURVE",
"763 661 OFFCURVE",
"773 695 CURVE",
"741 729 OFFCURVE",
"612 742 OFFCURVE",
"524 740 CURVE"
);
},
{
closed = 1;
nodes = (
"446 400 LINE",
"494 399 OFFCURVE",
"547 398 OFFCURVE",
"569 398 CURVE SMOOTH",
"580 398 OFFCURVE",
"581 414 OFFCURVE",
"589 478 CURVE",
"540 475 OFFCURVE",
"492 474 OFFCURVE",
"475 473 CURVE",
"383 572 LINE",
"365 491 LINE",
"362 470 OFFCURVE",
"353 468 OFFCURVE",
"323 466 CURVE SMOOTH",
"308 465 LINE",
"301 401 LINE",
"305 401 OFFCURVE",
"349 401 OFFCURVE",
"364 401 CURVE"
);
},
{
closed = 1;
nodes = (
"903 483 LINE",
"823 437 OFFCURVE",
"748 307 OFFCURVE",
"727 276 CURVE",
"750 457 OFFCURVE",
"788 676 OFFCURVE",
"773 695 CURVE SMOOTH",
"762 708 OFFCURVE",
"630 738 OFFCURVE",
"610 731 CURVE",
"600 698 LINE",
"648 666 LINE",
"655 617 OFFCURVE",
"638 479 OFFCURVE",
"623 353 CURVE SMOOTH",
"607 217 OFFCURVE",
"582 43 OFFCURVE",
"580 32 CURVE",
"580 20 OFFCURVE",
"657 -5 OFFCURVE",
"705 -5 CURVE SMOOTH",
"720 -5 OFFCURVE",
"722 41 OFFCURVE",
"715 132 CURVE",
"757 236 OFFCURVE",
"841 334 OFFCURVE",
"869 360 CURVE",
"841 255 OFFCURVE",
"821 75 OFFCURVE",
"840 44 CURVE SMOOTH",
"850 28 OFFCURVE",
"902 -2 OFFCURVE",
"956 -2 CURVE",
"988 7 OFFCURVE",
"1007 17 OFFCURVE",
"1019 25 CURVE",
"1015 70 LINE",
"1001 65 OFFCURVE",
"980 59 OFFCURVE",
"965 59 CURVE",
"945 124 OFFCURVE",
"986 371 OFFCURVE",
"1006 444 CURVE"
);
}
);
};
layerId = "71FD7A9F-05F5-4D76-8D4F-547475A05E4C";
name = "Bold Italic";
paths = (
{
closed = 1;
nodes = (
"172 400 LINE",
"220 399 OFFCURVE",
"341 398 OFFCURVE",
"363 398 CURVE SMOOTH",
"374 398 OFFCURVE",
"361 411 OFFCURVE",
"369 475 CURVE",
"320 472 OFFCURVE",
"215 472 OFFCURVE",
"198 471 CURVE",
"109 572 LINE",
"91 491 LINE",
"88 470 OFFCURVE",
"79 468 OFFCURVE",
"49 466 CURVE SMOOTH",
"34 465 LINE",
"27 401 LINE",
"31 401 OFFCURVE",
"75 401 OFFCURVE",
"90 401 CURVE"
);
},
{
closed = 1;
nodes = (
"143 702 OFFCURVE",
"106 626 OFFCURVE",
"90 480 CURVE SMOOTH",
"82 406 OFFCURVE",
"68 261 OFFCURVE",
"51 103 CURVE",
"32 -65 OFFCURVE",
"20 -142 OFFCURVE",
"-11 -183 CURVE",
"-39 -169 OFFCURVE",
"-85 -127 OFFCURVE",
"-111 -103 CURVE",
"-129 -135 OFFCURVE",
"-145 -164 OFFCURVE",
"-156 -202 CURVE",
"-136 -232 OFFCURVE",
"-59 -252 OFFCURVE",
"-12 -250 CURVE",
"82 -228 OFFCURVE",
"139 -161 OFFCURVE",
"156 -1 CURVE SMOOTH",
"199 400 LINE",
"223 598 OFFCURVE",
"237 635 OFFCURVE",
"258 664 CURVE",
"289 664 OFFCURVE",
"335 637 OFFCURVE",
"382 582 CURVE",
"400 613 OFFCURVE",
"421 648 OFFCURVE",
"431 682 CURVE",
"393 713 OFFCURVE",
"332 736 OFFCURVE",
"252 732 CURVE"
);
},
{
closed = 1;
nodes = (
"705 600 OFFCURVE",
"721 637 OFFCURVE",
"731 671 CURVE",
"725 692 OFFCURVE",
"654 743 OFFCURVE",
"527 740 CURVE SMOOTH",
"524 740 LINE",
"415 710 OFFCURVE",
"379 626 OFFCURVE",
"363 480 CURVE SMOOTH",
"355 406 OFFCURVE",
"343 282 OFFCURVE",
"328 124 CURVE SMOOTH",
"309 -44 OFFCURVE",
"297 -123 OFFCURVE",
"266 -164 CURVE",
"238 -150 OFFCURVE",
"208 -125 OFFCURVE",
"182 -101 CURVE",
"164 -133 OFFCURVE",
"154 -152 OFFCURVE",
"140 -190 CURVE",
"160 -220 OFFCURVE",
"218 -231 OFFCURVE",
"265 -229 CURVE",
"355 -208 OFFCURVE",
"409 -146 OFFCURVE",
"427 -1 CURVE SMOOTH",
"468 404 LINE SMOOTH",
"492 601 OFFCURVE",
"509 642 OFFCURVE",
"529 672 CURVE",
"530 671 OFFCURVE",
"532 671 OFFCURVE",
"533 670 CURVE",
"558 660 OFFCURVE",
"653 597 OFFCURVE",
"687 569 CURVE"
);
},
{
closed = 1;
nodes = (
"683 480 LINE",
"619 477 OFFCURVE",
"493 470 OFFCURVE",
"476 469 CURVE",
"384 572 LINE",
"366 491 LINE",
"363 470 OFFCURVE",
"354 468 OFFCURVE",
"324 466 CURVE SMOOTH",
"309 465 LINE",
"302 401 LINE",
"365 401 LINE",
"447 403 LINE SMOOTH",
"479 404 OFFCURVE",
"562 400 OFFCURVE",
"601 396 CURVE",
"601 379 OFFCURVE",
"599 353 OFFCURVE",
"598 336 CURVE SMOOTH",
"596 300 OFFCURVE",
"591 191 OFFCURVE",
"587 144 CURVE",
"558 -58 OFFCURVE",
"544 -98 OFFCURVE",
"523 -126 CURVE",
"511 -126 OFFCURVE",
"497 -120 OFFCURVE",
"473 -106 CURVE",
"455 -153 LINE",
"479 -173 OFFCURVE",
"507 -187 OFFCURVE",
"526 -193 CURVE",
"638 -167 OFFCURVE",
"668 -113 OFFCURVE",
"692 113 CURVE SMOOTH",
"705 237 OFFCURVE",
"735 426 OFFCURVE",
"738 450 CURVE",
"738 450 OFFCURVE",
"738 450 OFFCURVE",
"738 450 CURVE",
"738 451 LINE"
);
}
);
width = 600;
}
);
leftKerningGroup = f;
leftMetricsKey = f;
rightKerningGroup = g;
},
{
glyphname = f_f_t.liga;
lastChange = "2015-11-23 16:17:55 +0000";
layers = (
{
layerId = "71FD7A9F-05F5-4D76-8D4F-547475A05E4C";
name = "Bold Italic";
paths = (
{
closed = 1;
nodes = (
"172 400 LINE",
"220 399 OFFCURVE",
"341 398 OFFCURVE",
"363 398 CURVE SMOOTH",
"374 398 OFFCURVE",
"361 411 OFFCURVE",
"369 475 CURVE",
"320 472 OFFCURVE",
"215 472 OFFCURVE",
"198 471 CURVE",
"109 572 LINE",
"91 491 LINE",
"88 470 OFFCURVE",
"79 468 OFFCURVE",
"49 466 CURVE SMOOTH",
"34 465 LINE",
"27 401 LINE",
"31 401 OFFCURVE",
"75 401 OFFCURVE",
"90 401 CURVE"
);
},
{
closed = 1;
nodes = (
"143 702 OFFCURVE",
"106 626 OFFCURVE",
"90 480 CURVE SMOOTH",
"82 406 OFFCURVE",
"68 261 OFFCURVE",
"51 103 CURVE",
"32 -65 OFFCURVE",
"20 -142 OFFCURVE",
"-11 -183 CURVE",
"-39 -169 OFFCURVE",
"-85 -127 OFFCURVE",
"-111 -103 CURVE",
"-129 -135 OFFCURVE",
"-145 -164 OFFCURVE",
"-156 -202 CURVE",
"-136 -232 OFFCURVE",
"-59 -252 OFFCURVE",
"-12 -250 CURVE",
"82 -228 OFFCURVE",
"139 -161 OFFCURVE",
"156 -1 CURVE SMOOTH",
"199 400 LINE",
"223 598 OFFCURVE",
"237 635 OFFCURVE",
"258 664 CURVE",
"289 664 OFFCURVE",
"335 637 OFFCURVE",
"382 582 CURVE",
"400 613 OFFCURVE",
"421 648 OFFCURVE",
"431 682 CURVE",
"393 713 OFFCURVE",
"332 736 OFFCURVE",
"252 732 CURVE"
);
},
{
closed = 1;
nodes = (
"447 400 LINE",
"489 400 OFFCURVE",
"580 400 OFFCURVE",
"604 400 CURVE SMOOTH",
"615 400 OFFCURVE",
"616 413 OFFCURVE",
"624 477 CURVE",
"575 474 OFFCURVE",
"493 473 OFFCURVE",
"476 472 CURVE",
"384 572 LINE",
"366 491 LINE",
"363 470 OFFCURVE",
"354 468 OFFCURVE",
"324 466 CURVE SMOOTH",
"309 465 LINE",
"302 401 LINE",
"306 401 OFFCURVE",
"350 401 OFFCURVE",
"365 401 CURVE"
);
},
{
closed = 1;
nodes = (
"417 710 OFFCURVE",
"381 626 OFFCURVE",
"365 480 CURVE SMOOTH",
"357 406 OFFCURVE",
"341 261 OFFCURVE",
"326 103 CURVE",
"307 -65 OFFCURVE",
"411 -161 OFFCURVE",
"427 -1 CURVE SMOOTH",
"468 403 LINE",
"492 601 OFFCURVE",
"509 642 OFFCURVE",
"529 672 CURVE",
"543 670 OFFCURVE",
"594 623 OFFCURVE",
"631 593 CURVE",
"649 624 OFFCURVE",
"665 661 OFFCURVE",
"675 695 CURVE",
"643 725 OFFCURVE",
"587 741 OFFCURVE",
"526 740 CURVE"
);
},
{
closed = 1;
nodes = (
"790 476 OFFCURVE",
"744 476 OFFCURVE",
"727 475 CURVE",
"731 502 OFFCURVE",
"737 534 OFFCURVE",
"741 565 CURVE",
"634 572 LINE",
"623 494 LINE",
"620 473 OFFCURVE",
"611 468 OFFCURVE",
"581 466 CURVE SMOOTH",
"566 465 LINE",
"559 403 LINE",
"562 403 OFFCURVE",
"587 402 OFFCURVE",
"606 402 CURVE",
"595 345 OFFCURVE",
"564 149 OFFCURVE",
"570 76 CURVE SMOOTH",
"573 36 OFFCURVE",
"613 -3 OFFCURVE",
"686 -3 CURVE",
"726 4 OFFCURVE",
"749 10 OFFCURVE",
"797 32 CURVE",
"791 86 LINE",
"762 74 OFFCURVE",
"733 67 OFFCURVE",
"704 68 CURVE",
"678 104 OFFCURVE",
"706 288 OFFCURVE",
"720 400 CURVE",
"761 400 OFFCURVE",
"800 402 OFFCURVE",
"819 402 CURVE SMOOTH",
"830 402 OFFCURVE",
"831 414 OFFCURVE",
"839 478 CURVE"
);
},
{
closed = 1;
nodes = (
"331 152 LINE",
"310 -35 OFFCURVE",
"299 -121 OFFCURVE",
"266 -164 CURVE",
"238 -150 OFFCURVE",
"208 -125 OFFCURVE",
"182 -101 CURVE",
"164 -133 OFFCURVE",
"154 -152 OFFCURVE",
"140 -190 CURVE",
"160 -220 OFFCURVE",
"218 -231 OFFCURVE",
"265 -229 CURVE",
"360 -207 OFFCURVE",
"418 -140 OFFCURVE",
"429 23 CURVE"
);
}
);
width = 819;
}
);
leftKerningGroup = f;
leftMetricsKey = f;
rightKerningGroup = t;
rightMetricsKey = t;
},
{
glyphname = f_h.liga;
lastChange = "2015-11-23 16:17:55 +0000";
layers = (
{
background = {
paths = (
{
closed = 1;
nodes = (
"172 400 LINE",
"220 399 OFFCURVE",
"273 398 OFFCURVE",
"295 398 CURVE SMOOTH",
"306 398 OFFCURVE",
"307 414 OFFCURVE",
"315 478 CURVE",
"266 475 OFFCURVE",
"215 474 OFFCURVE",
"198 473 CURVE",
"109 572 LINE",
"91 491 LINE",
"88 470 OFFCURVE",
"79 468 OFFCURVE",
"49 466 CURVE SMOOTH",
"34 465 LINE",
"27 401 LINE",
"31 401 OFFCURVE",
"75 401 OFFCURVE",
"90 401 CURVE"
);
},
{
closed = 1;
nodes = (
"142 710 OFFCURVE",
"106 626 OFFCURVE",
"90 480 CURVE SMOOTH",
"82 406 OFFCURVE",
"68 261 OFFCURVE",
"51 103 CURVE",
"32 -65 OFFCURVE",
"20 -142 OFFCURVE",
"-11 -183 CURVE",
"-39 -169 OFFCURVE",
"-85 -127 OFFCURVE",
"-111 -103 CURVE",
"-129 -135 OFFCURVE",
"-145 -164 OFFCURVE",
"-156 -202 CURVE",
"-136 -232 OFFCURVE",
"-59 -252 OFFCURVE",
"-12 -250 CURVE",
"82 -228 OFFCURVE",
"139 -161 OFFCURVE",
"156 -1 CURVE SMOOTH",
"199 402 LINE",
"223 600 OFFCURVE",
"234 642 OFFCURVE",
"254 672 CURVE",
"268 668 OFFCURVE",
"350 643 OFFCURVE",
"379 610 CURVE",
"397 641 OFFCURVE",
"490 671 OFFCURVE",
"500 705 CURVE",
"489 718 OFFCURVE",
"374 752 OFFCURVE",
"251 740 CURVE"
);
},
{
closed = 1;
nodes = (
"448 2 OFFCURVE",
"474 11 OFFCURVE",
"500 29 CURVE",
"496 75 LINE",
"478 69 OFFCURVE",
"452 63 OFFCURVE",
"440 63 CURVE",
"434 156 OFFCURVE",
"458 299 OFFCURVE",
"474 431 CURVE SMOOTH",
"485 520 OFFCURVE",
"510 675 OFFCURVE",
"500 705 CURVE",
"489 710 OFFCURVE",
"474 711 OFFCURVE",
"459 715 CURVE",
"366 674 LINE",
"378 665 LINE",
"380 595 OFFCURVE",
"359 442 OFFCURVE",
"344 326 CURVE SMOOTH",
"332 234 OFFCURVE",
"297 47 OFFCURVE",
"321 29 CURVE SMOOTH",
"329 23 OFFCURVE",
"390 -4 OFFCURVE",
"431 -1 CURVE"
);
}
);
};
layerId = "71FD7A9F-05F5-4D76-8D4F-547475A05E4C";
name = "Bold Italic";
paths = (
{
closed = 1;
nodes = (
"173 400 LINE",
"221 399 OFFCURVE",
"274 398 OFFCURVE",
"296 398 CURVE SMOOTH",
"307 398 OFFCURVE",
"308 414 OFFCURVE",
"316 478 CURVE",
"267 475 OFFCURVE",
"219 474 OFFCURVE",
"202 473 CURVE",
"110 572 LINE",
"92 491 LINE",
"89 470 OFFCURVE",
"80 468 OFFCURVE",
"50 466 CURVE SMOOTH",
"35 465 LINE",
"28 401 LINE",
"32 401 OFFCURVE",
"76 401 OFFCURVE",
"91 401 CURVE"
);
},
{
closed = 1;
nodes = (
"623 483 LINE",
"543 437 OFFCURVE",
"472 307 OFFCURVE",
"451 276 CURVE",
"470 425 OFFCURVE",
"502 617 OFFCURVE",
"502 690 CURVE SMOOTH",
"502 698 OFFCURVE",
"466 718 OFFCURVE",
"459 715 CURVE SMOOTH",
"426 701 OFFCURVE",
"398 683 OFFCURVE",
"385 678 CURVE",
"379 673 LINE",
"382 624 OFFCURVE",
"364 479 OFFCURVE",
"349 353 CURVE SMOOTH",
"333 217 OFFCURVE",
"306 43 OFFCURVE",
"304 32 CURVE",
"304 20 OFFCURVE",
"381 -5 OFFCURVE",
"429 -5 CURVE SMOOTH",
"444 -5 OFFCURVE",
"446 41 OFFCURVE",
"439 132 CURVE",
"481 236 OFFCURVE",
"561 334 OFFCURVE",
"589 360 CURVE",
"561 255 OFFCURVE",
"541 75 OFFCURVE",
"560 44 CURVE SMOOTH",
"570 28 OFFCURVE",
"622 -2 OFFCURVE",
"676 -2 CURVE",
"708 7 OFFCURVE",
"727 17 OFFCURVE",
"739 25 CURVE",
"735 70 LINE",
"721 65 OFFCURVE",
"700 59 OFFCURVE",
"685 59 CURVE",
"665 124 OFFCURVE",
"706 371 OFFCURVE",
"726 444 CURVE"
);
},
{
closed = 1;
nodes = (
"142 710 OFFCURVE",
"106 626 OFFCURVE",
"90 480 CURVE SMOOTH",
"82 406 OFFCURVE",
"66 261 OFFCURVE",
"51 103 CURVE",
"32 -65 OFFCURVE",
"20 -142 OFFCURVE",
"-11 -183 CURVE",
"-39 -169 OFFCURVE",
"-85 -127 OFFCURVE",
"-111 -103 CURVE",
"-129 -135 OFFCURVE",
"-145 -164 OFFCURVE",
"-156 -202 CURVE",
"-136 -232 OFFCURVE",
"-59 -252 OFFCURVE",
"-12 -250 CURVE",
"82 -228 OFFCURVE",
"137 -161 OFFCURVE",
"154 -1 CURVE SMOOTH",
"198 403 LINE",
"222 601 OFFCURVE",
"234 642 OFFCURVE",
"254 672 CURVE",
"268 669 OFFCURVE",
"344 646 OFFCURVE",
"379 610 CURVE",
"397 641 OFFCURVE",
"492 658 OFFCURVE",
"502 692 CURVE",
"465 735 OFFCURVE",
"312 741 OFFCURVE",
"251 740 CURVE"
);
}
);
width = 772;
}
);
leftKerningGroup = f;
leftMetricsKey = f;
rightKerningGroup = i;
rightMetricsKey = i;
},
{
glyphname = f_j.liga;
lastChange = "2015-11-23 16:17:55 +0000";
layers = (
{
layerId = "71FD7A9F-05F5-4D76-8D4F-547475A05E4C";
name = "Bold Italic";
paths = (
{
closed = 1;
nodes = (
"82 -228 OFFCURVE",
"136 -161 OFFCURVE",
"152 -1 CURVE SMOOTH",
"193 404 LINE",
"217 602 OFFCURVE",
"234 642 OFFCURVE",
"254 672 CURVE",
"268 670 OFFCURVE",
"375 599 OFFCURVE",
"412 569 CURVE",
"430 600 OFFCURVE",
"446 637 OFFCURVE",
"456 671 CURVE",
"450 692 OFFCURVE",
"379 743 OFFCURVE",
"251 740 CURVE",
"142 710 OFFCURVE",
"106 626 OFFCURVE",
"90 480 CURVE SMOOTH",
"82 406 OFFCURVE",
"66 261 OFFCURVE",
"51 103 CURVE",
"32 -65 OFFCURVE",
"20 -142 OFFCURVE",
"-11 -183 CURVE",
"-39 -169 OFFCURVE",
"-85 -127 OFFCURVE",
"-111 -103 CURVE",
"-129 -135 OFFCURVE",
"-145 -164 OFFCURVE",
"-156 -202 CURVE",
"-136 -232 OFFCURVE",
"-59 -252 OFFCURVE",
"-12 -250 CURVE"
);
},
{
closed = 1;
nodes = (
"392 39 OFFCURVE",
"395 12 OFFCURVE",
"403 65 CURVE",
"384 127 OFFCURVE",
"461 434 OFFCURVE",
"463 451 CURVE",
"408 480 LINE",
"344 477 OFFCURVE",
"218 470 OFFCURVE",
"201 469 CURVE",
"109 572 LINE",
"91 491 LINE",
"88 470 OFFCURVE",
"79 468 OFFCURVE",
"49 466 CURVE SMOOTH",
"34 465 LINE",
"27 401 LINE",
"90 401 LINE",
"172 403 LINE SMOOTH",
"208 404 OFFCURVE",
"310 399 OFFCURVE",
"339 395 CURVE",
"321 300 OFFCURVE",
"322 47 OFFCURVE",
"349 27 CURVE SMOOTH",
"371 11 OFFCURVE",
"328 35 OFFCURVE",
"374 36 CURVE"
);
},
{
closed = 1;
nodes = (
"423 467 OFFCURVE",
"374 465 OFFCURVE",
"343 462 CURVE",
"285 437 LINE",
"325 412 LINE",
"328 400 OFFCURVE",
"324 359 OFFCURVE",
"323 336 CURVE SMOOTH",
"321 300 OFFCURVE",
"316 191 OFFCURVE",
"312 144 CURVE",
"283 -58 OFFCURVE",
"269 -98 OFFCURVE",
"248 -126 CURVE",
"236 -126 OFFCURVE",
"222 -120 OFFCURVE",
"198 -106 CURVE",
"180 -153 LINE",
"204 -173 OFFCURVE",
"232 -187 OFFCURVE",
"251 -193 CURVE",
"363 -167 OFFCURVE",
"393 -113 OFFCURVE",
"417 113 CURVE",
"430 237 OFFCURVE",
"460 426 OFFCURVE",
"463 450 CURVE"
);
}
);
width = 496;
}
);
leftKerningGroup = f;
leftMetricsKey = f;
rightKerningGroup = g;
rightMetricsKey = j;
},
{
glyphname = f_k.liga;
lastChange = "2015-11-23 16:17:55 +0000";
layers = (
{
background = {
paths = (
{
closed = 1;
nodes = (
"173 400 LINE",
"221 399 OFFCURVE",
"274 398 OFFCURVE",
"296 398 CURVE SMOOTH",
"307 398 OFFCURVE",
"308 414 OFFCURVE",
"316 478 CURVE",
"267 475 OFFCURVE",
"219 474 OFFCURVE",
"202 473 CURVE",
"110 572 LINE",
"92 491 LINE",
"89 470 OFFCURVE",
"80 468 OFFCURVE",
"50 466 CURVE SMOOTH",
"35 465 LINE",
"28 401 LINE",
"32 401 OFFCURVE",
"76 401 OFFCURVE",
"91 401 CURVE"
);
},
{
closed = 1;
nodes = (
"142 710 OFFCURVE",
"106 626 OFFCURVE",
"90 480 CURVE SMOOTH",
"82 406 OFFCURVE",
"66 261 OFFCURVE",
"51 103 CURVE",
"32 -65 OFFCURVE",
"20 -142 OFFCURVE",
"-11 -183 CURVE",
"-39 -169 OFFCURVE",
"-85 -127 OFFCURVE",
"-111 -103 CURVE",
"-129 -135 OFFCURVE",
"-145 -164 OFFCURVE",
"-156 -202 CURVE",
"-136 -232 OFFCURVE",
"-59 -252 OFFCURVE",
"-12 -250 CURVE",
"82 -228 OFFCURVE",
"138 -161 OFFCURVE",
"155 -1 CURVE SMOOTH",
"199 403 LINE",
"223 601 OFFCURVE",
"234 642 OFFCURVE",
"254 672 CURVE",
"268 670 OFFCURVE",
"344 644 OFFCURVE",
"379 608 CURVE",
"397 639 OFFCURVE",
"490 662 OFFCURVE",
"500 696 CURVE",
"481 715 OFFCURVE",
"396 743 OFFCURVE",
"251 740 CURVE"
);
},
{
closed = 1;
nodes = (
"642 480 OFFCURVE",
"618 484 OFFCURVE",
"579 482 CURVE",
"546 457 OFFCURVE",
"488 381 OFFCURVE",
"464 347 CURVE",
"489 543 OFFCURVE",
"511 674 OFFCURVE",
"500 696 CURVE SMOOTH",
"498 700 OFFCURVE",
"357 730 OFFCURVE",
"344 723 CURVE",
"331 697 LINE",
"338 693 OFFCURVE",
"359 678 OFFCURVE",
"373 666 CURVE",
"375 647 OFFCURVE",
"375 606 OFFCURVE",
"373 569 CURVE SMOOTH",
"364 433 OFFCURVE",
"333 203 OFFCURVE",
"318 123 CURVE SMOOTH",
"312 91 OFFCURVE",
"301 49 OFFCURVE",
"289 18 CURVE",
"296 14 OFFCURVE",
"311 2 OFFCURVE",
"332 -3 CURVE SMOOTH",
"345 -6 OFFCURVE",
"352 0 OFFCURVE",
"389 42 CURVE",
"424 17 OFFCURVE",
"493 -11 OFFCURVE",
"557 -4 CURVE",
"733 45 OFFCURVE",
"782 312 OFFCURVE",
"674 442 CURVE SMOOTH"
);
},
{
closed = 1;
nodes = (
"537 63 LINE SMOOTH",
"537 63 OFFCURVE",
"484 68 OFFCURVE",
"431 137 CURVE",
"448 232 LINE",
"481 290 OFFCURVE",
"538 351 OFFCURVE",
"556 368 CURVE",
"563 368 OFFCURVE",
"579 354 OFFCURVE",
"588 329 CURVE SMOOTH",
"618 247 OFFCURVE",
"616 106 OFFCURVE",
"537 63 CURVE"
);
}
);
};
layerId = "71FD7A9F-05F5-4D76-8D4F-547475A05E4C";
name = "Bold Italic";
paths = (
{
closed = 1;
nodes = (
"173 400 LINE",
"221 399 OFFCURVE",
"274 398 OFFCURVE",
"296 398 CURVE SMOOTH",
"307 398 OFFCURVE",
"308 414 OFFCURVE",
"316 478 CURVE",
"267 475 OFFCURVE",
"219 474 OFFCURVE",
"202 473 CURVE",
"110 572 LINE",
"92 491 LINE",
"89 470 OFFCURVE",
"80 468 OFFCURVE",
"50 466 CURVE SMOOTH",
"35 465 LINE",
"28 401 LINE",
"32 401 OFFCURVE",
"76 401 OFFCURVE",
"91 401 CURVE"
);
},
{
closed = 1;
nodes = (
"142 710 OFFCURVE",
"106 626 OFFCURVE",
"90 480 CURVE SMOOTH",
"82 406 OFFCURVE",
"66 261 OFFCURVE",
"51 103 CURVE",
"32 -65 OFFCURVE",
"20 -142 OFFCURVE",
"-11 -183 CURVE",
"-39 -169 OFFCURVE",
"-85 -127 OFFCURVE",
"-111 -103 CURVE",
"-129 -135 OFFCURVE",
"-145 -164 OFFCURVE",
"-156 -202 CURVE",
"-136 -232 OFFCURVE",
"-59 -252 OFFCURVE",
"-12 -250 CURVE",
"82 -228 OFFCURVE",
"138 -161 OFFCURVE",
"155 -1 CURVE SMOOTH",
"199 403 LINE",
"223 601 OFFCURVE",
"234 642 OFFCURVE",
"254 672 CURVE",
"268 670 OFFCURVE",
"344 644 OFFCURVE",
"379 608 CURVE",
"397 639 OFFCURVE",
"490 662 OFFCURVE",
"500 696 CURVE",
"481 715 OFFCURVE",
"396 743 OFFCURVE",
"251 740 CURVE"
);
},
{
closed = 1;
nodes = (
"725 70 LINE",
"711 65 OFFCURVE",
"695 61 OFFCURVE",
"680 59 CURVE",
"663 74 OFFCURVE",
"640 134 OFFCURVE",
"638 189 CURVE",
"728 229 OFFCURVE",
"719 437 OFFCURVE",
"703 459 CURVE",
"612 485 LINE",
"559 434 OFFCURVE",
"482 338 OFFCURVE",
"456 284 CURVE",
"477 465 OFFCURVE",
"515 685 OFFCURVE",
"500 696 CURVE SMOOTH",
"487 705 OFFCURVE",
"358 735 OFFCURVE",
"338 728 CURVE",
"328 696 LINE",
"377 665 LINE",
"382 615 OFFCURVE",
"368 491 OFFCURVE",
"352 353 CURVE SMOOTH",
"336 217 OFFCURVE",
"310 44 OFFCURVE",
"308 33 CURVE",
"308 21 OFFCURVE",
"387 -2 OFFCURVE",
"430 -2 CURVE SMOOTH",
"445 -2 OFFCURVE",
"450 69 OFFCURVE",
"444 158 CURVE",
"501 275 OFFCURVE",
"565 338 OFFCURVE",
"583 360 CURVE",
"590 348 OFFCURVE",
"584 221 OFFCURVE",
"552 196 CURVE",
"521 201 LINE",
"520 153 OFFCURVE",
"545 38 OFFCURVE",
"558 27 CURVE",
"578 15 OFFCURVE",
"613 -5 OFFCURVE",
"662 -5 CURVE",
"697 3 OFFCURVE",
"713 14 OFFCURVE",
"729 24 CURVE"
);
}
);
width = 762;
}
);
leftKerningGroup = f;
leftMetricsKey = f;
rightKerningGroup = i;
rightMetricsKey = k;
},
{
glyphname = f_t.liga;
lastChange = "2015-11-23 16:17:55 +0000";
layers = (
{
layerId = "71FD7A9F-05F5-4D76-8D4F-547475A05E4C";
name = "Bold Italic";
paths = (
{
closed = 1;
nodes = (
"172 400 LINE",
"214 400 OFFCURVE",
"305 400 OFFCURVE",
"329 400 CURVE SMOOTH",
"340 400 OFFCURVE",
"341 413 OFFCURVE",
"349 477 CURVE",
"300 474 OFFCURVE",
"218 473 OFFCURVE",
"201 472 CURVE",
"109 572 LINE",
"91 491 LINE",
"88 470 OFFCURVE",
"79 468 OFFCURVE",
"49 466 CURVE SMOOTH",
"34 465 LINE",
"27 401 LINE",
"31 401 OFFCURVE",
"75 401 OFFCURVE",
"90 401 CURVE"
);
},
{
closed = 1;
nodes = (
"142 710 OFFCURVE",
"106 626 OFFCURVE",
"90 480 CURVE SMOOTH",
"82 406 OFFCURVE",
"66 261 OFFCURVE",
"51 103 CURVE",
"32 -65 OFFCURVE",
"20 -142 OFFCURVE",
"-11 -183 CURVE",
"-39 -169 OFFCURVE",
"-85 -127 OFFCURVE",
"-111 -103 CURVE",
"-129 -135 OFFCURVE",
"-145 -164 OFFCURVE",
"-156 -202 CURVE",
"-136 -232 OFFCURVE",
"-59 -252 OFFCURVE",
"-12 -250 CURVE",
"82 -228 OFFCURVE",
"136 -161 OFFCURVE",
"152 -1 CURVE SMOOTH",
"193 403 LINE",
"217 601 OFFCURVE",
"234 642 OFFCURVE",
"254 672 CURVE",
"268 670 OFFCURVE",
"319 623 OFFCURVE",
"356 593 CURVE",
"374 624 OFFCURVE",
"390 661 OFFCURVE",
"400 695 CURVE",
"368 725 OFFCURVE",
"312 741 OFFCURVE",
"251 740 CURVE"
);
},
{
closed = 1;
nodes = (
"515 476 OFFCURVE",
"469 476 OFFCURVE",
"452 475 CURVE",
"456 502 OFFCURVE",
"462 534 OFFCURVE",
"466 565 CURVE",
"359 572 LINE",
"348 494 LINE",
"345 473 OFFCURVE",
"336 468 OFFCURVE",
"306 466 CURVE SMOOTH",
"291 465 LINE",
"284 403 LINE",
"287 403 OFFCURVE",
"312 402 OFFCURVE",
"331 402 CURVE",
"320 345 OFFCURVE",
"289 149 OFFCURVE",
"295 76 CURVE SMOOTH",
"298 36 OFFCURVE",
"338 -3 OFFCURVE",
"411 -3 CURVE",
"451 4 OFFCURVE",
"474 10 OFFCURVE",
"522 32 CURVE",
"516 86 LINE",
"487 74 OFFCURVE",
"458 67 OFFCURVE",
"429 68 CURVE",
"403 104 OFFCURVE",
"431 288 OFFCURVE",
"445 400 CURVE",
"486 400 OFFCURVE",
"525 402 OFFCURVE",
"544 402 CURVE SMOOTH",
"555 402 OFFCURVE",
"556 414 OFFCURVE",
"564 478 CURVE"
);
}
);
width = 544;
}
);
leftKerningGroup = f;
leftMetricsKey = f;
rightKerningGroup = t;
rightMetricsKey = t;
},
{
glyphname = fi.liga;
lastChange = "2015-11-23 16:17:55 +0000";
layers = (
{
background = {
paths = (
{
closed = 1;
nodes = (
"333 485 OFFCURVE",
"445 467 OFFCURVE",
"463 454 CURVE",
"461 437 OFFCURVE",
"401 122 OFFCURVE",
"420 60 CURVE",
"435 60 OFFCURVE",
"458 67 OFFCURVE",
"474 72 CURVE",
"478 26 LINE",
"462 14 OFFCURVE",
"429 -1 OFFCURVE",
"411 -4 CURVE",
"365 -5 OFFCURVE",
"330 11 OFFCURVE",
"308 27 CURVE SMOOTH",
"281 47 OFFCURVE",
"324 315 OFFCURVE",
"342 410 CURVE",
"300 437 LINE",
"313 480 LINE"
);
},
{
closed = 1;
nodes = (
"450 704 LINE",
"445 717 OFFCURVE",
"439 725 OFFCURVE",
"425 720 CURVE SMOOTH",
"408 714 OFFCURVE",
"375 699 OFFCURVE",
"360 689 CURVE SMOOTH",
"345 679 OFFCURVE",
"345 670 OFFCURVE",
"352 661 CURVE",
"407 572 LINE",
"416 571 OFFCURVE",
"474 610 OFFCURVE",
"486 622 CURVE"
);
}
);
};
layerId = "71FD7A9F-05F5-4D76-8D4F-547475A05E4C";
name = "Bold Italic";
paths = (
{
closed = 1;
nodes = (
"82 -228 OFFCURVE",
"136 -161 OFFCURVE",
"152 -1 CURVE SMOOTH",
"193 404 LINE",
"217 602 OFFCURVE",
"234 642 OFFCURVE",
"254 672 CURVE",
"268 670 OFFCURVE",
"375 599 OFFCURVE",
"412 569 CURVE",
"430 600 OFFCURVE",
"446 637 OFFCURVE",
"456 671 CURVE",
"450 692 OFFCURVE",
"379 743 OFFCURVE",
"251 740 CURVE",
"142 710 OFFCURVE",
"106 626 OFFCURVE",
"90 480 CURVE SMOOTH",
"82 406 OFFCURVE",
"66 261 OFFCURVE",
"51 103 CURVE",
"32 -65 OFFCURVE",
"20 -142 OFFCURVE",
"-11 -183 CURVE",
"-39 -169 OFFCURVE",
"-85 -127 OFFCURVE",
"-111 -103 CURVE",
"-129 -135 OFFCURVE",
"-145 -164 OFFCURVE",
"-156 -202 CURVE",
"-136 -232 OFFCURVE",
"-59 -252 OFFCURVE",
"-12 -250 CURVE"
);
},
{
closed = 1;
nodes = (
"456 67 OFFCURVE",
"433 60 OFFCURVE",
"418 60 CURVE",
"399 122 OFFCURVE",
"461 434 OFFCURVE",
"463 451 CURVE",
"408 480 LINE",
"344 477 OFFCURVE",
"218 470 OFFCURVE",
"201 469 CURVE",
"109 572 LINE",
"91 491 LINE",
"88 470 OFFCURVE",
"79 468 OFFCURVE",
"49 466 CURVE SMOOTH",
"34 465 LINE",
"27 401 LINE",
"90 401 LINE",
"172 403 LINE SMOOTH",
"208 404 OFFCURVE",
"310 399 OFFCURVE",
"339 395 CURVE",
"321 300 OFFCURVE",
"279 47 OFFCURVE",
"306 27 CURVE SMOOTH",
"328 11 OFFCURVE",
"363 -5 OFFCURVE",
"409 -4 CURVE",
"427 -1 OFFCURVE",
"460 14 OFFCURVE",
"476 26 CURVE",
"472 72 LINE"
);
}
);
width = 508;
}
);
leftKerningGroup = f;
leftMetricsKey = f;
rightKerningGroup = i;
rightMetricsKey = i;
},
{
glyphname = fl.liga;
lastChange = "2015-11-23 16:17:55 +0000";
layers = (
{
background = {
paths = (
{
closed = 1;
nodes = (
"173 400 LINE",
"221 399 OFFCURVE",
"274 398 OFFCURVE",
"296 398 CURVE SMOOTH",
"307 398 OFFCURVE",
"308 414 OFFCURVE",
"316 478 CURVE",
"267 475 OFFCURVE",
"219 474 OFFCURVE",
"202 473 CURVE",
"110 572 LINE",
"92 491 LINE",
"89 470 OFFCURVE",
"80 468 OFFCURVE",
"50 466 CURVE SMOOTH",
"35 465 LINE",
"28 401 LINE",
"32 401 OFFCURVE",
"76 401 OFFCURVE",
"91 401 CURVE"
);
},
{
closed = 1;
nodes = (
"623 483 LINE",
"543 437 OFFCURVE",
"472 307 OFFCURVE",
"451 276 CURVE",
"470 425 OFFCURVE",
"502 617 OFFCURVE",
"502 690 CURVE SMOOTH",
"502 698 OFFCURVE",
"466 718 OFFCURVE",
"459 715 CURVE SMOOTH",
"426 701 OFFCURVE",
"398 683 OFFCURVE",
"385 678 CURVE",
"379 673 LINE",
"382 624 OFFCURVE",
"364 479 OFFCURVE",
"349 353 CURVE SMOOTH",
"333 217 OFFCURVE",
"306 43 OFFCURVE",
"304 32 CURVE",
"304 20 OFFCURVE",
"381 -5 OFFCURVE",
"429 -5 CURVE SMOOTH",
"444 -5 OFFCURVE",
"446 41 OFFCURVE",
"439 132 CURVE",
"481 236 OFFCURVE",
"561 334 OFFCURVE",
"589 360 CURVE",
"561 255 OFFCURVE",
"541 75 OFFCURVE",
"560 44 CURVE SMOOTH",
"570 28 OFFCURVE",
"622 -2 OFFCURVE",
"676 -2 CURVE",
"708 7 OFFCURVE",
"727 17 OFFCURVE",
"739 25 CURVE",
"735 70 LINE",
"721 65 OFFCURVE",
"700 59 OFFCURVE",
"685 59 CURVE",
"665 124 OFFCURVE",
"706 371 OFFCURVE",
"726 444 CURVE"
);
},
{
closed = 1;
nodes = (
"142 710 OFFCURVE",
"106 626 OFFCURVE",
"90 480 CURVE SMOOTH",
"82 406 OFFCURVE",
"66 261 OFFCURVE",
"51 103 CURVE",
"32 -65 OFFCURVE",
"20 -142 OFFCURVE",
"-11 -183 CURVE",
"-39 -169 OFFCURVE",
"-85 -127 OFFCURVE",
"-111 -103 CURVE",
"-129 -135 OFFCURVE",
"-145 -164 OFFCURVE",
"-156 -202 CURVE",
"-136 -232 OFFCURVE",
"-59 -252 OFFCURVE",
"-12 -250 CURVE",
"82 -228 OFFCURVE",
"137 -161 OFFCURVE",
"154 -1 CURVE SMOOTH",
"198 403 LINE",
"222 601 OFFCURVE",
"234 642 OFFCURVE",
"254 672 CURVE",
"268 669 OFFCURVE",
"344 646 OFFCURVE",
"379 610 CURVE",
"397 641 OFFCURVE",
"492 658 OFFCURVE",
"502 692 CURVE",
"465 735 OFFCURVE",
"312 741 OFFCURVE",
"251 740 CURVE"
);
}
);
};
layerId = "71FD7A9F-05F5-4D76-8D4F-547475A05E4C";
name = "Bold Italic";
paths = (
{
closed = 1;
nodes = (
"172 400 LINE",
"220 399 OFFCURVE",
"273 398 OFFCURVE",
"295 398 CURVE SMOOTH",
"306 398 OFFCURVE",
"307 414 OFFCURVE",
"315 478 CURVE",
"266 475 OFFCURVE",
"215 474 OFFCURVE",
"198 473 CURVE",
"109 572 LINE",
"91 491 LINE",
"88 470 OFFCURVE",
"79 468 OFFCURVE",
"49 466 CURVE SMOOTH",
"34 465 LINE",
"27 401 LINE",
"31 401 OFFCURVE",
"75 401 OFFCURVE",
"90 401 CURVE"
);
},
{
closed = 1;
nodes = (
"142 710 OFFCURVE",
"106 626 OFFCURVE",
"90 480 CURVE SMOOTH",
"82 406 OFFCURVE",
"68 261 OFFCURVE",
"51 103 CURVE",
"32 -65 OFFCURVE",
"20 -142 OFFCURVE",
"-11 -183 CURVE",
"-39 -169 OFFCURVE",
"-85 -127 OFFCURVE",
"-111 -103 CURVE",
"-129 -135 OFFCURVE",
"-145 -164 OFFCURVE",
"-156 -202 CURVE",
"-136 -232 OFFCURVE",
"-59 -252 OFFCURVE",
"-12 -250 CURVE",
"82 -228 OFFCURVE",
"139 -161 OFFCURVE",
"156 -1 CURVE SMOOTH",
"199 402 LINE",
"223 600 OFFCURVE",
"234 642 OFFCURVE",
"254 672 CURVE",
"268 668 OFFCURVE",
"350 643 OFFCURVE",
"379 610 CURVE",
"397 641 OFFCURVE",
"492 658 OFFCURVE",
"502 692 CURVE",
"478 722 OFFCURVE",
"380 741 OFFCURVE",
"251 740 CURVE"
);
},
{
closed = 1;
nodes = (
"448 2 OFFCURVE",
"474 11 OFFCURVE",
"500 29 CURVE",
"496 75 LINE",
"478 69 OFFCURVE",
"452 63 OFFCURVE",
"440 63 CURVE",
"434 156 OFFCURVE",
"458 299 OFFCURVE",
"474 431 CURVE SMOOTH",
"485 520 OFFCURVE",
"505 662 OFFCURVE",
"502 692 CURVE",
"472 692 OFFCURVE",
"474 707 OFFCURVE",
"459 711 CURVE",
"366 674 LINE",
"378 665 LINE",
"380 595 OFFCURVE",
"359 442 OFFCURVE",
"344 326 CURVE SMOOTH",
"332 234 OFFCURVE",
"297 47 OFFCURVE",
"321 29 CURVE SMOOTH",
"329 23 OFFCURVE",
"390 -4 OFFCURVE",
"431 -1 CURVE"
);
}
);
width = 532;
}
);
leftKerningGroup = f;
leftMetricsKey = f;
rightKerningGroup = i;
rightMetricsKey = l;
},
{
glyphname = l_l.dlig;
lastChange = "2015-11-23 16:17:55 +0000";
layers = (
{
layerId = "71FD7A9F-05F5-4D76-8D4F-547475A05E4C";
name = "Bold Italic";
paths = (
{
closed = 1;
nodes = (
"180 2 OFFCURVE",
"206 11 OFFCURVE",
"232 29 CURVE",
"228 75 LINE",
"210 69 OFFCURVE",
"184 63 OFFCURVE",
"172 63 CURVE",
"166 156 OFFCURVE",
"186 249 OFFCURVE",
"202 381 CURVE SMOOTH",
"213 470 OFFCURVE",
"239 633 OFFCURVE",
"226 656 CURVE SMOOTH",
"217 669 OFFCURVE",
"76 697 OFFCURVE",
"64 690 CURVE",
"53 646 LINE",
"96 615 LINE",
"98 545 OFFCURVE",
"87 392 OFFCURVE",
"72 276 CURVE SMOOTH",
"60 184 OFFCURVE",
"29 47 OFFCURVE",
"53 29 CURVE SMOOTH",
"61 23 OFFCURVE",
"122 -4 OFFCURVE",
"163 -1 CURVE"
);
},
{
closed = 1;
nodes = (
"432 2 OFFCURVE",
"458 11 OFFCURVE",
"484 29 CURVE",
"480 75 LINE",
"462 69 OFFCURVE",
"436 63 OFFCURVE",
"424 63 CURVE",
"418 156 OFFCURVE",
"442 299 OFFCURVE",
"458 431 CURVE SMOOTH",
"469 520 OFFCURVE",
"495 683 OFFCURVE",
"482 706 CURVE SMOOTH",
"473 719 OFFCURVE",
"332 747 OFFCURVE",
"320 740 CURVE",
"309 696 LINE",
"352 665 LINE",
"354 595 OFFCURVE",
"343 442 OFFCURVE",
"328 326 CURVE SMOOTH",
"316 234 OFFCURVE",
"281 47 OFFCURVE",
"305 29 CURVE SMOOTH",
"313 23 OFFCURVE",
"374 -4 OFFCURVE",
"415 -1 CURVE"
);
}
);
width = 516;
}
);
leftKerningGroup = l;
leftMetricsKey = l;
rightKerningGroup = i;
rightMetricsKey = l;
},
{
glyphname = s_p.dlig;
lastChange = "2015-11-28 18:04:44 +0000";
layers = (
{
background = {
paths = (
{
closed = 1;
nodes = (
"303 20 OFFCURVE",
"362 75 OFFCURVE",
"367 137 CURVE SMOOTH",
"375 240 OFFCURVE",
"287 268 OFFCURVE",
"242 287 CURVE SMOOTH",
"170 317 OFFCURVE",
"142 335 OFFCURVE",
"142 350 CURVE",
"155 373 OFFCURVE",
"189 395 OFFCURVE",
"208 397 CURVE",
"252 379 OFFCURVE",
"286 360 OFFCURVE",
"327 322 CURVE",
"347 353 OFFCURVE",
"369 402 OFFCURVE",
"381 433 CURVE",
"366 446 OFFCURVE",
"376 438 OFFCURVE",
"363 447 CURVE SMOOTH",
"329 471 OFFCURVE",
"277 489 OFFCURVE",
"221 487 CURVE SMOOTH",
"139 484 OFFCURVE",
"54 430 OFFCURVE",
"45 347 CURVE SMOOTH",
"33 246 OFFCURVE",
"107 205 OFFCURVE",
"159 185 CURVE SMOOTH",
"224 160 OFFCURVE",
"266 145 OFFCURVE",
"266 126 CURVE",
"252 97 OFFCURVE",
"197 76 OFFCURVE",
"180 76 CURVE",
"134 91 OFFCURVE",
"100 123 OFFCURVE",
"68 153 CURVE",
"48 120 OFFCURVE",
"16 61 OFFCURVE",
"16 47 CURVE",
"68 -4 OFFCURVE",
"175 -24 OFFCURVE",
"261 6 CURVE SMOOTH"
);
},
{
closed = 1;
nodes = (
"667 475 OFFCURVE",
"621 474 OFFCURVE",
"604 473 CURVE",
"606 500 OFFCURVE",
"617 571 OFFCURVE",
"621 602 CURVE",
"509 557 LINE",
"500 494 LINE",
"497 473 OFFCURVE",
"488 468 OFFCURVE",
"458 466 CURVE SMOOTH",
"443 465 LINE",
"436 401 LINE",
"439 401 OFFCURVE",
"464 401 OFFCURVE",
"483 401 CURVE",
"472 344 OFFCURVE",
"441 149 OFFCURVE",
"447 76 CURVE SMOOTH",
"450 36 OFFCURVE",
"490 -3 OFFCURVE",
"563 -3 CURVE",
"603 4 OFFCURVE",
"626 10 OFFCURVE",
"674 32 CURVE",
"668 86 LINE",
"639 74 OFFCURVE",
"610 67 OFFCURVE",
"581 68 CURVE",
"555 104 OFFCURVE",
"583 288 OFFCURVE",
"597 400 CURVE",
"638 400 OFFCURVE",
"677 402 OFFCURVE",
"696 402 CURVE SMOOTH",
"707 402 OFFCURVE",
"708 414 OFFCURVE",
"716 478 CURVE"
);
},
{
closed = 1;
nodes = (
"272 626 OFFCURVE",
"255 534 OFFCURVE",
"288 458 CURVE",
"381 433 LINE",
"350 512 OFFCURVE",
"365 558 OFFCURVE",
"385 588 CURVE",
"402 588 OFFCURVE",
"471 563 OFFCURVE",
"507 533 CURVE",
"525 564 OFFCURVE",
"611 568 OFFCURVE",
"621 602 CURVE",
"586 633 OFFCURVE",
"465 656 OFFCURVE",
"379 656 CURVE"
);
}
);
};
components = (
{
name = s;
}
);
layerId = "71FD7A9F-05F5-4D76-8D4F-547475A05E4C";
name = "Bold Italic";
paths = (
{
closed = 1;
nodes = (
"274 610 OFFCURVE",
"255 534 OFFCURVE",
"288 458 CURVE",
"382 435 LINE",
"351 514 OFFCURVE",
"367 542 OFFCURVE",
"387 572 CURVE",
"404 572 OFFCURVE",
"456 545 OFFCURVE",
"486 515 CURVE",
"504 546 OFFCURVE",
"605 526 OFFCURVE",
"615 560 CURVE",
"580 598 OFFCURVE",
"468 641 OFFCURVE",
"381 640 CURVE"
);
},
{
closed = 1;
nodes = (
"632 67 OFFCURVE",
"587 99 OFFCURVE",
"560 138 CURVE",
"576 227 LINE",
"603 284 OFFCURVE",
"681 364 OFFCURVE",
"686 369 CURVE",
"697 364 OFFCURVE",
"708 354 OFFCURVE",
"717 332 CURVE SMOOTH",
"750 250 OFFCURVE",
"746 113 OFFCURVE",
"668 63 CURVE"
);
},
{
closed = 1;
nodes = (
"784 474 OFFCURVE",
"745 483 OFFCURVE",
"710 480 CURVE",
"655 431 OFFCURVE",
"615 378 OFFCURVE",
"584 330 CURVE",
"587 348 OFFCURVE",
"597 446 OFFCURVE",
"598 455 CURVE SMOOTH",
"615 560 LINE",
"488 539 LINE",
"481 458 LINE",
"466 269 OFFCURVE",
"453 124 OFFCURVE",
"443 55 CURVE SMOOTH",
"425 -67 OFFCURVE",
"399 -195 OFFCURVE",
"406 -203 CURVE",
"418 -213 OFFCURVE",
"554 -262 OFFCURVE",
"567 -252 CURVE",
"579 -201 LINE",
"561 -192 OFFCURVE",
"540 -134 OFFCURVE",
"539 -86 CURVE SMOOTH",
"538 -45 OFFCURVE",
"540 -21 OFFCURVE",
"544 28 CURVE",
"589 4 OFFCURVE",
"637 -6 OFFCURVE",
"687 -4 CURVE",
"859 46 OFFCURVE",
"918 304 OFFCURVE",
"810 441 CURVE SMOOTH"
);
}
);
width = 893;
}
);
leftKerningGroup = o;
leftMetricsKey = s;
rightKerningGroup = o;
rightMetricsKey = p;
},
{
glyphname = s_t.dlig;
lastChange = "2015-11-28 18:04:25 +0000";
layers = (
{
background = {
paths = (
{
closed = 1;
nodes = (
"299 20 OFFCURVE",
"358 75 OFFCURVE",
"363 137 CURVE SMOOTH",
"371 240 OFFCURVE",
"283 268 OFFCURVE",
"238 287 CURVE SMOOTH",
"166 317 OFFCURVE",
"138 335 OFFCURVE",
"138 350 CURVE",
"151 373 OFFCURVE",
"185 395 OFFCURVE",
"204 397 CURVE",
"248 379 OFFCURVE",
"282 360 OFFCURVE",
"323 322 CURVE",
"343 353 OFFCURVE",
"359 388 OFFCURVE",
"371 419 CURVE SMOOTH",
"379 439 OFFCURVE",
"379 431 OFFCURVE",
"359 447 CURVE SMOOTH",
"324 472 OFFCURVE",
"273 489 OFFCURVE",
"217 487 CURVE SMOOTH",
"135 484 OFFCURVE",
"50 430 OFFCURVE",
"41 347 CURVE SMOOTH",
"29 246 OFFCURVE",
"103 205 OFFCURVE",
"155 185 CURVE SMOOTH",
"220 160 OFFCURVE",
"262 145 OFFCURVE",
"262 126 CURVE",
"248 97 OFFCURVE",
"193 76 OFFCURVE",
"176 76 CURVE",
"130 91 OFFCURVE",
"96 123 OFFCURVE",
"64 153 CURVE",
"44 120 OFFCURVE",
"12 61 OFFCURVE",
"12 47 CURVE",
"64 -4 OFFCURVE",
"171 -24 OFFCURVE",
"257 6 CURVE SMOOTH"
);
}
);
};
components = (
{
name = s;
transform = "{1, 0, 0, 1, -4, 0}";
}
);
layerId = "71FD7A9F-05F5-4D76-8D4F-547475A05E4C";
name = "Bold Italic";
paths = (
{
closed = 1;
nodes = (
"663 475 OFFCURVE",
"617 474 OFFCURVE",
"600 473 CURVE",
"602 500 OFFCURVE",
"613 571 OFFCURVE",
"617 602 CURVE",
"505 557 LINE",
"496 494 LINE",
"493 473 OFFCURVE",
"484 468 OFFCURVE",
"454 466 CURVE SMOOTH",
"439 465 LINE",
"432 401 LINE",
"435 401 OFFCURVE",
"460 401 OFFCURVE",
"479 401 CURVE",
"468 344 OFFCURVE",
"437 149 OFFCURVE",
"443 76 CURVE SMOOTH",
"446 36 OFFCURVE",
"486 -3 OFFCURVE",
"559 -3 CURVE",
"599 4 OFFCURVE",
"622 10 OFFCURVE",
"670 32 CURVE",
"664 86 LINE",
"635 74 OFFCURVE",
"606 67 OFFCURVE",
"577 68 CURVE",
"551 104 OFFCURVE",
"579 288 OFFCURVE",
"593 400 CURVE",
"634 400 OFFCURVE",
"673 402 OFFCURVE",
"692 402 CURVE SMOOTH",
"703 402 OFFCURVE",
"704 414 OFFCURVE",
"712 478 CURVE"
);
},
{
closed = 1;
nodes = (
"268 626 OFFCURVE",
"251 534 OFFCURVE",
"284 458 CURVE",
"378 435 LINE",
"347 514 OFFCURVE",
"361 558 OFFCURVE",
"381 588 CURVE",
"398 588 OFFCURVE",
"467 563 OFFCURVE",
"503 533 CURVE",
"521 564 OFFCURVE",
"607 568 OFFCURVE",
"617 602 CURVE",
"582 633 OFFCURVE",
"461 656 OFFCURVE",
"375 656 CURVE"
);
}
);
width = 692;
}
);
leftKerningGroup = o;
leftMetricsKey = s;
rightKerningGroup = t;
rightMetricsKey = t;
},
{
glyphname = zero.osf;
lastChange = "2015-11-25 18:15:43 +0000";
layers = (
{
layerId = "71FD7A9F-05F5-4D76-8D4F-547475A05E4C";
name = "Bold Italic";
paths = (
{
closed = 1;
nodes = (
"469 475 OFFCURVE",
"404 527 OFFCURVE",
"286 515 CURVE",
"92 475 OFFCURVE",
"31 220 OFFCURVE",
"111 78 CURVE SMOOTH",
"147 14 OFFCURVE",
"245 -26 OFFCURVE",
"340 0 CURVE",
"541 64 OFFCURVE",
"562 318 OFFCURVE",
"495 431 CURVE SMOOTH"
);
},
{
closed = 1;
nodes = (
"267 72 OFFCURVE",
"216 91 OFFCURVE",
"207 176 CURVE SMOOTH",
"196 277 OFFCURVE",
"207 393 OFFCURVE",
"295 438 CURVE",
"330 438 OFFCURVE",
"384 421 OFFCURVE",
"396 345 CURVE SMOOTH",
"410 255 OFFCURVE",
"405 121 OFFCURVE",
"312 72 CURVE"
);
}
);
width = 600;
}
);
},
{
glyphname = one.osf;
lastChange = "2015-11-28 17:01:08 +0000";
layers = (
{
layerId = "71FD7A9F-05F5-4D76-8D4F-547475A05E4C";
name = "Bold Italic";
paths = (
{
closed = 1;
nodes = (
"157 516 LINE",
"129 470 OFFCURVE",
"92 443 OFFCURVE",
"44 430 CURVE",
"38 383 LINE",
"99 378 LINE",
"101 353 OFFCURVE",
"99 310 OFFCURVE",
"92 233 CURVE SMOOTH",
"85 153 OFFCURVE",
"75 73 OFFCURVE",
"66 9 CURVE",
"99 -1 OFFCURVE",
"187 -9 OFFCURVE",
"194 -1 CURVE",
"195 66 OFFCURVE",
"199 140 OFFCURVE",
"206 225 CURVE SMOOTH",
"216 342 OFFCURVE",
"220 429 OFFCURVE",
"230 503 CURVE"
);
}
);
width = 265;
}
);
leftKerningGroup = i;
leftMetricsKey = i;
rightKerningGroup = i;
},
{
glyphname = two.osf;
lastChange = "2015-11-28 17:05:11 +0000";
layers = (
{
layerId = "71FD7A9F-05F5-4D76-8D4F-547475A05E4C";
name = "Bold Italic";
paths = (
{
closed = 1;
nodes = (
"462 477 OFFCURVE",
"346 567 OFFCURVE",
"80 486 CURVE",
"45 313 LINE",
"93 301 LINE",
"115 370 OFFCURVE",
"211 416 OFFCURVE",
"269 405 CURVE",
"281 389 OFFCURVE",
"281 339 OFFCURVE",
"259 301 CURVE SMOOTH",
"216 225 OFFCURVE",
"130 136 OFFCURVE",
"49 79 CURVE SMOOTH",
"31 66 OFFCURVE",
"11 55 OFFCURVE",
"0 50 CURVE",
"13 0 LINE",
"162 2 OFFCURVE",
"273 1 OFFCURVE",
"417 -4 CURVE",
"449 166 LINE",
"402 174 LINE",
"370 112 LINE",
"323 102 OFFCURVE",
"245 98 OFFCURVE",
"178 97 CURVE",
"215 109 OFFCURVE",
"362 188 OFFCURVE",
"409 324 CURVE SMOOTH"
);
}
);
width = 481;
}
);
leftKerningGroup = z;
leftMetricsKey = z;
rightKerningGroup = z;
},
{
glyphname = three.osf;
lastChange = "2015-11-28 17:04:19 +0000";
layers = (
{
background = {
paths = (
{
closed = 1;
nodes = (
"438 477 OFFCURVE",
"320 567 OFFCURVE",
"54 486 CURVE",
"19 313 LINE",
"67 301 LINE",
"89 370 OFFCURVE",
"185 416 OFFCURVE",
"243 405 CURVE",
"255 389 OFFCURVE",
"255 339 OFFCURVE",
"233 301 CURVE SMOOTH",
"190 225 OFFCURVE",
"104 136 OFFCURVE",
"23 79 CURVE SMOOTH",
"5 66 OFFCURVE",
"-15 55 OFFCURVE",
"-26 50 CURVE",
"-13 0 LINE",
"142 7 OFFCURVE",
"247 0 OFFCURVE",
"391 0 CURVE",
"425 181 LINE",
"378 189 LINE",
"344 121 LINE",
"276 111 OFFCURVE",
"230 106 OFFCURVE",
"163 106 CURVE",
"200 118 OFFCURVE",
"336 192 OFFCURVE",
"383 324 CURVE SMOOTH"
);
}
);
};
layerId = "71FD7A9F-05F5-4D76-8D4F-547475A05E4C";
name = "Bold Italic";
paths = (
{
closed = 1;
nodes = (
"439 453 OFFCURVE",
"352 577 OFFCURVE",
"64 491 CURVE",
"38 346 LINE",
"82 336 LINE",
"129 408 OFFCURVE",
"194 424 OFFCURVE",
"254 412 CURVE",
"279 313 OFFCURVE",
"183 239 OFFCURVE",
"93 228 CURVE",
"104 169 LINE",
"234 154 OFFCURVE",
"250 58 OFFCURVE",
"247 20 CURVE SMOOTH",
"244 -16 OFFCURVE",
"233 -47 OFFCURVE",
"211 -62 CURVE",
"133 -59 OFFCURVE",
"70 -27 OFFCURVE",
"16 18 CURVE",
"-4 -10 OFFCURVE",
"-33 -77 OFFCURVE",
"-38 -97 CURVE",
"-17 -126 OFFCURVE",
"134 -181 OFFCURVE",
"265 -125 CURVE SMOOTH",
"334 -96 OFFCURVE",
"384 -7 OFFCURVE",
"376 81 CURVE SMOOTH",
"366 185 OFFCURVE",
"271 218 OFFCURVE",
"238 216 CURVE",
"257 218 OFFCURVE",
"331 240 OFFCURVE",
"375 326 CURVE SMOOTH"
);
}
);
width = 414;
}
);
},
{
glyphname = four.osf;
lastChange = "2015-11-28 17:13:31 +0000";
layers = (
{
guideLines = (
{
position = "{996, -126}";
}
);
layerId = "71FD7A9F-05F5-4D76-8D4F-547475A05E4C";
name = "Bold Italic";
paths = (
{
closed = 1;
nodes = (
"324 518 LINE",
"-5 81 LINE",
"20 33 LINE",
"455 21 LINE",
"461 51 OFFCURVE",
"467 106 OFFCURVE",
"467 133 CURVE",
"403 127 OFFCURVE",
"314 125 OFFCURVE",
"119 129 CURVE",
"166 195 OFFCURVE",
"251 310 OFFCURVE",
"275 335 CURVE",
"267 182 OFFCURVE",
"255 60 OFFCURVE",
"236 -99 CURVE",
"271 -117 OFFCURVE",
"331 -134 OFFCURVE",
"363 -135 CURVE",
"362 -76 OFFCURVE",
"373 81 OFFCURVE",
"382 225 CURVE SMOOTH",
"390 346 OFFCURVE",
"396 431 OFFCURVE",
"405 505 CURVE"
);
}
);
width = 509;
}
);
},
{
glyphname = five.osf;
lastChange = "2015-11-28 17:13:14 +0000";
layers = (
{
background = {
paths = (
{
closed = 1;
nodes = (
"347 230 OFFCURVE",
"251 277 OFFCURVE",
"159 215 CURVE",
"207 315 OFFCURVE",
"290 378 OFFCURVE",
"422 382 CURVE",
"438 449 LINE",
"111 475 OFFCURVE",
"-10 225 OFFCURVE",
"-3 33 CURVE",
"-4 -21 OFFCURVE",
"13 -76 OFFCURVE",
"50 -120 CURVE SMOOTH",
"97 -175 OFFCURVE",
"171 -193 OFFCURVE",
"252 -172 CURVE",
"433 -110 OFFCURVE",
"470 88 OFFCURVE",
"379 193 CURVE SMOOTH"
);
},
{
closed = 1;
nodes = (
"130 -102 OFFCURVE",
"107 51 OFFCURVE",
"140 155 CURVE",
"153 163 OFFCURVE",
"180 173 OFFCURVE",
"196 177 CURVE",
"240 177 OFFCURVE",
"263 157 OFFCURVE",
"280 112 CURVE SMOOTH",
"314 33 OFFCURVE",
"286 -69 OFFCURVE",
"225 -102 CURVE"
);
}
);
};
layerId = "71FD7A9F-05F5-4D76-8D4F-547475A05E4C";
name = "Bold Italic";
paths = (
{
closed = 1;
nodes = (
"407 403 OFFCURVE",
"419 471 OFFCURVE",
"425 519 CURVE",
"316 505 OFFCURVE",
"208 506 OFFCURVE",
"79 507 CURVE",
"75 447 OFFCURVE",
"68 335 OFFCURVE",
"59 246 CURVE",
"79 169 LINE",
"196 177 OFFCURVE",
"256 110 OFFCURVE",
"265 68 CURVE SMOOTH",
"275 21 OFFCURVE",
"265 -50 OFFCURVE",
"232 -61 CURVE",
"182 -62 OFFCURVE",
"95 -32 OFFCURVE",
"39 17 CURVE",
"18 -11 OFFCURVE",
"-11 -79 OFFCURVE",
"-16 -99 CURVE",
"-10 -111 OFFCURVE",
"100 -169 OFFCURVE",
"241 -141 CURVE SMOOTH",
"354 -118 OFFCURVE",
"408 -6 OFFCURVE",
"400 87 CURVE SMOOTH",
"391 183 OFFCURVE",
"294 249 OFFCURVE",
"158 238 CURVE",
"159 285 OFFCURVE",
"164 351 OFFCURVE",
"169 390 CURVE",
"228 390 OFFCURVE",
"338 384 OFFCURVE",
"398 375 CURVE"
);
}
);
width = 437;
}
);
},
{
glyphname = six.osf;
lastChange = "2015-11-28 17:13:04 +0000";
layers = (
{
background = {
paths = (
{
closed = 1;
nodes = (
"384 399 OFFCURVE",
"289 446 OFFCURVE",
"198 384 CURVE",
"246 484 OFFCURVE",
"323 563 OFFCURVE",
"455 567 CURVE",
"470 634 LINE",
"145 660 OFFCURVE",
"28 394 OFFCURVE",
"36 202 CURVE",
"35 148 OFFCURVE",
"52 93 OFFCURVE",
"89 49 CURVE SMOOTH",
"136 -6 OFFCURVE",
"209 -24 OFFCURVE",
"290 -3 CURVE",
"470 59 OFFCURVE",
"508 257 OFFCURVE",
"417 362 CURVE SMOOTH"
);
},
{
closed = 1;
nodes = (
"168 67 OFFCURVE",
"146 220 OFFCURVE",
"178 324 CURVE",
"192 332 OFFCURVE",
"218 342 OFFCURVE",
"234 346 CURVE",
"278 346 OFFCURVE",
"301 326 OFFCURVE",
"318 281 CURVE SMOOTH",
"352 202 OFFCURVE",
"324 100 OFFCURVE",
"263 67 CURVE"
);
}
);
};
layerId = "71FD7A9F-05F5-4D76-8D4F-547475A05E4C";
name = "Bold Italic";
paths = (
{
closed = 1;
nodes = (
"383 401 OFFCURVE",
"290 448 OFFCURVE",
"198 392 CURVE",
"246 492 OFFCURVE",
"326 549 OFFCURVE",
"458 553 CURVE",
"474 620 LINE",
"147 646 OFFCURVE",
"26 396 OFFCURVE",
"33 204 CURVE",
"32 150 OFFCURVE",
"49 95 OFFCURVE",
"86 51 CURVE SMOOTH",
"133 -4 OFFCURVE",
"207 -22 OFFCURVE",
"288 -1 CURVE",
"469 61 OFFCURVE",
"506 259 OFFCURVE",
"415 364 CURVE SMOOTH"
);
},
{
closed = 1;
nodes = (
"166 69 OFFCURVE",
"143 222 OFFCURVE",
"176 326 CURVE",
"189 334 OFFCURVE",
"216 344 OFFCURVE",
"232 348 CURVE",
"276 348 OFFCURVE",
"299 328 OFFCURVE",
"316 283 CURVE SMOOTH",
"350 204 OFFCURVE",
"322 102 OFFCURVE",
"261 69 CURVE"
);
}
);
width = 485;
}
);
},
{
glyphname = seven.osf;
lastChange = "2015-11-28 17:11:24 +0000";
layers = (
{
background = {
paths = (
{
closed = 1;
nodes = (
"91 241 LINE",
"91 285 OFFCURVE",
"96 336 OFFCURVE",
"103 384 CURVE",
"162 384 OFFCURVE",
"283 380 OFFCURVE",
"329 372 CURVE",
"362 533 LINE",
"315 539 LINE",
"296 507 LINE",
"241 503 OFFCURVE",
"123 502 OFFCURVE",
"26 505 CURVE",
"26 445 OFFCURVE",
"13 328 OFFCURVE",
"-1 239 CURVE"
);
},
{
closed = 1;
nodes = (
"-1 239 LINE",
"22 185 LINE",
"160 169 OFFCURVE",
"198 97 OFFCURVE",
"200 59 CURVE SMOOTH",
"202 26 OFFCURVE",
"184 -23 OFFCURVE",
"151 -34 CURVE",
"101 -34 OFFCURVE",
"33 -8 OFFCURVE",
"-22 41 CURVE",
"-43 13 OFFCURVE",
"-78 -48 OFFCURVE",
"-83 -68 CURVE",
"139 -197 OFFCURVE",
"354 -75 OFFCURVE",
"333 89 CURVE SMOOTH",
"323 170 OFFCURVE",
"254 261 OFFCURVE",
"85 276 CURVE"
);
}
);
};
guideLines = (
{
position = "{996, -126}";
}
);
layerId = "71FD7A9F-05F5-4D76-8D4F-547475A05E4C";
name = "Bold Italic";
paths = (
{
closed = 1;
nodes = (
"436 502 LINE",
"281 501 OFFCURVE",
"174 502 OFFCURVE",
"54 509 CURVE",
"19 328 LINE",
"67 318 LINE",
"89 390 OFFCURVE",
"183 391 OFFCURVE",
"308 397 CURVE",
"256 277 OFFCURVE",
"129 79 OFFCURVE",
"13 -90 CURVE",
"46 -109 OFFCURVE",
"123 -143 OFFCURVE",
"149 -144 CURVE",
"213 -1 OFFCURVE",
"350 264 OFFCURVE",
"432 419 CURVE",
"461 464 LINE"
);
}
);
width = 442;
}
);
},
{
glyphname = eight.osf;
lastChange = "2015-11-28 17:09:00 +0000";
layers = (
{
background = {
paths = (
{
closed = 1;
nodes = (
"80 594 OFFCURVE",
"48 520 OFFCURVE",
"42 451 CURVE SMOOTH",
"36 375 OFFCURVE",
"82 308 OFFCURVE",
"218 243 CURVE SMOOTH",
"342 184 OFFCURVE",
"284 88 OFFCURVE",
"247 74 CURVE",
"153 75 OFFCURVE",
"156 200 OFFCURVE",
"262 256 CURVE SMOOTH",
"368 312 OFFCURVE",
"473 350 OFFCURVE",
"484 456 CURVE SMOOTH",
"489 511 OFFCURVE",
"477 554 OFFCURVE",
"435 592 CURVE SMOOTH",
"386 636 OFFCURVE",
"308 653 OFFCURVE",
"217 632 CURVE"
);
},
{
closed = 1;
nodes = (
"318 562 OFFCURVE",
"362 521 OFFCURVE",
"362 472 CURVE SMOOTH",
"362 434 OFFCURVE",
"349 396 OFFCURVE",
"247 346 CURVE SMOOTH",
"88 268 OFFCURVE",
"65 172 OFFCURVE",
"65 107 CURVE SMOOTH",
"65 46 OFFCURVE",
"124 -12 OFFCURVE",
"232 -4 CURVE SMOOTH",
"365 6 OFFCURVE",
"420 92 OFFCURVE",
"419 182 CURVE SMOOTH",
"418 243 OFFCURVE",
"386 290 OFFCURVE",
"310 332 CURVE SMOOTH",
"198 394 OFFCURVE",
"182 424 OFFCURVE",
"183 463 CURVE SMOOTH",
"184 516 OFFCURVE",
"222 544 OFFCURVE",
"256 562 CURVE"
);
}
);
};
guideLines = (
{
position = "{-70, 631}";
}
);
layerId = "71FD7A9F-05F5-4D76-8D4F-547475A05E4C";
name = "Bold Italic";
paths = (
{
closed = 1;
nodes = (
"254 280 LINE",
"389 331 OFFCURVE",
"459 382 OFFCURVE",
"459 485 CURVE SMOOTH",
"459 593 OFFCURVE",
"367 645 OFFCURVE",
"264 640 CURVE SMOOTH",
"129 634 OFFCURVE",
"58 539 OFFCURVE",
"63 454 CURVE SMOOTH",
"67 386 OFFCURVE",
"114 350 OFFCURVE",
"191 304 CURVE SMOOTH",
"289 246 OFFCURVE",
"321 227 OFFCURVE",
"321 176 CURVE SMOOTH",
"321 116 OFFCURVE",
"278 86 OFFCURVE",
"249 71 CURVE",
"187 71 OFFCURVE",
"148 106 OFFCURVE",
"141 157 CURVE SMOOTH",
"133 209 OFFCURVE",
"189 272 OFFCURVE",
"269 303 CURVE",
"247 381 LINE",
"145 338 OFFCURVE",
"33 305 OFFCURVE",
"19 180 CURVE SMOOTH",
"13 124 OFFCURVE",
"31 76 OFFCURVE",
"71 41 CURVE SMOOTH",
"121 -3 OFFCURVE",
"204 -20 OFFCURVE",
"294 1 CURVE",
"420 37 OFFCURVE",
"459 124 OFFCURVE",
"459 183 CURVE SMOOTH",
"459 266 OFFCURVE",
"388 316 OFFCURVE",
"254 394 CURVE SMOOTH",
"140 460 OFFCURVE",
"216 548 OFFCURVE",
"251 562 CURVE",
"372 555 OFFCURVE",
"396 405 OFFCURVE",
"223 351 CURVE"
);
}
);
width = 491;
}
);
},
